M48
;GenerationSoftware,Autodesk,EAGLE,9.7.0*%
;CreationDate,2025-06-07T05:18:11Z*%
FMAT,2
ICI,OFF
METRIC,TZ,000.000
T7C0.500
T6C0.600
T5C0.650
T4C0.700
T3C0.850
T2C1.000
T1C1.016
%
G90
M71
T1
X67500Y65250
X67500Y69250
X67500Y71250
X51950Y87850
X39470Y112150
X36930Y112150
X27500Y67750
X43170Y81400
X40630Y81400
X94000Y51500
X26750Y86000
X26750Y82500
X23300Y113800
X43250Y61250
X17450Y117200
X17550Y125650
X22650Y125650
X-4070Y114100
X-1530Y114100
X51600Y125030
X6570Y114100
X4030Y114100
X9970Y117400
X7430Y117400
X29000Y122970
X29000Y120430
X51600Y127570
X55170Y120900
X52630Y120900
X73190Y71700
X75730Y71700
X78270Y71700
X40539Y94591
X47041Y94591
X40539Y90069
X47041Y90069
X47051Y100769
X40549Y100769
X47051Y105291
X40549Y105291
X8750Y104000
X-150Y93650
X-5670Y93200
X-3130Y93200
X10800Y92250
X13000Y96250
X48050Y114750
X12000Y100250
X9250Y80000
X17750Y85750
X19980Y74000
X22520Y74000
X15750Y74500
X13000Y88500
X50000Y79750
X80810Y71700
X51050Y114750
X65500Y51500
X65500Y55500
X65500Y53500
X65500Y57500
X65500Y59500
X67500Y63250
X67500Y67250
T2
X18610Y106340
X21150Y103800
X23690Y106340
X82600Y126530
X85100Y126530
T3
X400Y120170
X400Y124130
X43300Y128070
X45630Y120500
X48170Y120500
X43300Y125530
X33000Y128170
X400Y126670
X56300Y127870
X33000Y125630
X56300Y125330
X400Y117630
T4
X61080Y111890
X61080Y109350
X61080Y106810
X61080Y104270
X61080Y99190
X61080Y96650
X61080Y101730
X61080Y114430
X61080Y116970
T5
X550Y108004
T6
X84580Y86580
X82040Y84040
X66580Y86580
X82040Y81500
X78120Y76440
X75580Y76440
X73040Y76440
X69120Y81500
X69120Y84040
X69120Y86580
X82040Y86580
X66580Y81500
X66580Y84040
X84580Y81500
X84580Y84040
T7
X-6650Y108894
X-6650Y99914
X-700Y100274
X-700Y108534
M30