G04 EAGLE Gerber RS-274X export*
G75*
%MOMM*%
%FSLAX34Y34*%
%LPD*%
%INBottom Copper*%
%IPPOS*%
%AMOC8*
5,1,8,0,0,1.08239X$1,22.5*%
G01*
G04 Define Apertures*
%ADD10C,1.700000*%
%ADD11R,1.208000X1.208000*%
%ADD12C,1.208000*%
%ADD13R,1.108000X1.108000*%
%ADD14C,1.108000*%
%ADD15C,1.008000*%
%ADD16C,1.879600*%
%ADD17P,1.64956X8X22.5*%
%ADD18C,1.524000*%
%ADD19R,1.524000X1.524000*%
%ADD20C,1.524000*%
%ADD21C,1.450000*%
%ADD22C,1.508000*%
%ADD23C,1.000000*%
%ADD24C,0.500000*%
%ADD25C,0.750000*%
%ADD26C,0.700000*%
%ADD27C,0.203200*%
G36*
X610157Y483957D02*
X608695Y483660D01*
X-79090Y483660D01*
X-80442Y483912D01*
X-81699Y484716D01*
X-82543Y485947D01*
X-82840Y487410D01*
X-82840Y990666D01*
X-82609Y991962D01*
X-81825Y993232D01*
X-80608Y994095D01*
X-79150Y994415D01*
X-77683Y994142D01*
X-76438Y993318D01*
X-75838Y992717D01*
X-73052Y991563D01*
X-67266Y991563D01*
X-67266Y1006723D01*
X-73052Y1006723D01*
X-75838Y1005569D01*
X-76438Y1004969D01*
X-77518Y1004216D01*
X-78970Y1003873D01*
X-80442Y1004123D01*
X-81699Y1004927D01*
X-82543Y1006158D01*
X-82840Y1007621D01*
X-82840Y1080466D01*
X-82609Y1081762D01*
X-81825Y1083032D01*
X-80608Y1083895D01*
X-79150Y1084215D01*
X-77683Y1083942D01*
X-76438Y1083118D01*
X-75838Y1082517D01*
X-73052Y1081363D01*
X-67266Y1081363D01*
X-67266Y1096523D01*
X-73052Y1096523D01*
X-75838Y1095369D01*
X-76438Y1094769D01*
X-77518Y1094016D01*
X-78970Y1093673D01*
X-80442Y1093923D01*
X-81699Y1094727D01*
X-82543Y1095958D01*
X-82840Y1097421D01*
X-82840Y1306090D01*
X-82588Y1307442D01*
X-81784Y1308699D01*
X-80553Y1309543D01*
X-79090Y1309840D01*
X966090Y1309840D01*
X967442Y1309588D01*
X968699Y1308784D01*
X969543Y1307553D01*
X969840Y1306090D01*
X969840Y487410D01*
X969588Y486058D01*
X968784Y484801D01*
X967553Y483957D01*
X966090Y483660D01*
X713790Y483660D01*
X712438Y483912D01*
X711181Y484716D01*
X710337Y485947D01*
X710040Y487410D01*
X710040Y640505D01*
X709653Y641439D01*
X684822Y666270D01*
X684033Y667431D01*
X683724Y668892D01*
X684010Y670357D01*
X684144Y670681D01*
X684144Y674319D01*
X682752Y677680D01*
X680583Y679848D01*
X679806Y680983D01*
X679485Y682440D01*
X679759Y683907D01*
X680583Y685152D01*
X682752Y687320D01*
X682886Y687645D01*
X683657Y688819D01*
X684888Y689663D01*
X686351Y689960D01*
X686505Y689960D01*
X687439Y690347D01*
X689674Y692582D01*
X690863Y693383D01*
X692325Y693680D01*
X817414Y693680D01*
X818347Y694067D01*
X830013Y705733D01*
X830400Y706666D01*
X830400Y717943D01*
X830674Y719350D01*
X831498Y720595D01*
X840045Y729142D01*
X841234Y729943D01*
X842697Y730240D01*
X857785Y730240D01*
X858719Y730627D01*
X882749Y754657D01*
X883136Y755591D01*
X883136Y890101D01*
X882749Y891035D01*
X872035Y901749D01*
X871101Y902136D01*
X756509Y902136D01*
X755102Y902410D01*
X753858Y903234D01*
X619413Y1037679D01*
X618624Y1038840D01*
X618315Y1040300D01*
X618364Y1040552D01*
X618364Y1044205D01*
X617212Y1046985D01*
X615085Y1049112D01*
X612305Y1050264D01*
X609295Y1050264D01*
X606515Y1049112D01*
X604388Y1046985D01*
X603236Y1044205D01*
X603236Y1041195D01*
X604388Y1038415D01*
X606515Y1036288D01*
X609295Y1035136D01*
X612874Y1035136D01*
X613110Y1035185D01*
X614577Y1034911D01*
X615821Y1034087D01*
X618844Y1031064D01*
X619584Y1030011D01*
X619939Y1028562D01*
X619701Y1027089D01*
X618907Y1025825D01*
X617682Y1024971D01*
X616222Y1024663D01*
X614757Y1024948D01*
X612507Y1025880D01*
X611562Y1025880D01*
X611562Y1018062D01*
X619380Y1018062D01*
X619380Y1019007D01*
X618448Y1021257D01*
X618167Y1022513D01*
X618393Y1023988D01*
X619178Y1025258D01*
X620395Y1026121D01*
X621853Y1026442D01*
X623320Y1026168D01*
X624564Y1025344D01*
X745926Y903982D01*
X746679Y902902D01*
X747023Y901450D01*
X746772Y899978D01*
X745968Y898721D01*
X744737Y897877D01*
X743275Y897580D01*
X639731Y897580D01*
X638324Y897854D01*
X637080Y898678D01*
X594638Y941120D01*
X593837Y942309D01*
X593540Y943771D01*
X593540Y1061810D01*
X593792Y1063162D01*
X594596Y1064419D01*
X595827Y1065263D01*
X597290Y1065560D01*
X601159Y1065560D01*
X602539Y1065297D01*
X603789Y1064483D01*
X603933Y1064270D01*
X606515Y1061688D01*
X609295Y1060536D01*
X612305Y1060536D01*
X615085Y1061688D01*
X617212Y1063815D01*
X618364Y1066595D01*
X618364Y1069605D01*
X617212Y1072385D01*
X615085Y1074512D01*
X612305Y1075664D01*
X609295Y1075664D01*
X606515Y1074512D01*
X603985Y1071982D01*
X603853Y1071781D01*
X602622Y1070937D01*
X601159Y1070640D01*
X590774Y1070640D01*
X589422Y1070892D01*
X588165Y1071696D01*
X587321Y1072927D01*
X587024Y1074390D01*
X587024Y1159426D01*
X587276Y1160778D01*
X588080Y1162035D01*
X589311Y1162879D01*
X590774Y1163176D01*
X601535Y1163176D01*
X602943Y1162902D01*
X604099Y1162136D01*
X617499Y1162136D01*
X618602Y1162879D01*
X620065Y1163176D01*
X658544Y1163176D01*
X659952Y1162902D01*
X661196Y1162078D01*
X932378Y890896D01*
X933179Y889707D01*
X933476Y888244D01*
X933476Y522961D01*
X933202Y521553D01*
X932378Y520309D01*
X930856Y518788D01*
X930856Y511212D01*
X936212Y505856D01*
X943788Y505856D01*
X949144Y511212D01*
X949144Y518788D01*
X947622Y520309D01*
X946821Y521498D01*
X946524Y522961D01*
X946524Y893798D01*
X945531Y896196D01*
X666496Y1175231D01*
X664098Y1176224D01*
X620065Y1176224D01*
X618657Y1176498D01*
X617501Y1177264D01*
X604101Y1177264D01*
X602998Y1176521D01*
X601535Y1176224D01*
X579202Y1176224D01*
X576804Y1175231D01*
X574969Y1173396D01*
X573976Y1170998D01*
X573976Y897774D01*
X573724Y896422D01*
X572920Y895165D01*
X571689Y894321D01*
X570226Y894024D01*
X527202Y894024D01*
X524804Y893031D01*
X520516Y888742D01*
X519327Y887941D01*
X517864Y887644D01*
X515712Y887644D01*
X510356Y882288D01*
X510356Y874712D01*
X511878Y873191D01*
X512679Y872002D01*
X512976Y870539D01*
X512976Y821256D01*
X512702Y819848D01*
X511878Y818604D01*
X501016Y807742D01*
X499827Y806941D01*
X498364Y806644D01*
X496212Y806644D01*
X490856Y801288D01*
X490856Y793712D01*
X496212Y788356D01*
X503788Y788356D01*
X509144Y793712D01*
X509144Y795864D01*
X509418Y797272D01*
X510242Y798516D01*
X525031Y813304D01*
X526024Y815702D01*
X526024Y870539D01*
X526298Y871947D01*
X527122Y873191D01*
X528644Y874712D01*
X528644Y876864D01*
X528918Y878272D01*
X529742Y879516D01*
X530104Y879878D01*
X531293Y880679D01*
X532756Y880976D01*
X857226Y880976D01*
X858578Y880724D01*
X859835Y879920D01*
X860679Y878689D01*
X860976Y877226D01*
X860976Y854256D01*
X860702Y852848D01*
X859878Y851604D01*
X856296Y848022D01*
X855107Y847221D01*
X853644Y846924D01*
X849255Y846924D01*
X847820Y847209D01*
X847205Y847464D01*
X844395Y847464D01*
X841799Y846389D01*
X839811Y844401D01*
X838736Y841805D01*
X838736Y838995D01*
X839811Y836399D01*
X841799Y834411D01*
X844395Y833336D01*
X847205Y833336D01*
X847820Y833591D01*
X849255Y833876D01*
X859198Y833876D01*
X861596Y834869D01*
X866098Y839372D01*
X867178Y840125D01*
X868630Y840468D01*
X870102Y840218D01*
X871359Y839414D01*
X872203Y838183D01*
X872500Y836720D01*
X872500Y761174D01*
X872226Y759767D01*
X871402Y758523D01*
X855853Y742974D01*
X854664Y742173D01*
X853202Y741876D01*
X727742Y741876D01*
X726809Y741489D01*
X701458Y716138D01*
X700269Y715337D01*
X698806Y715040D01*
X686351Y715040D01*
X684971Y715303D01*
X683721Y716117D01*
X682886Y717355D01*
X682752Y717680D01*
X680180Y720252D01*
X676819Y721644D01*
X673181Y721644D01*
X669820Y720252D01*
X667248Y717680D01*
X665856Y714319D01*
X665856Y710681D01*
X667248Y707320D01*
X669417Y705152D01*
X670194Y704018D01*
X670515Y702560D01*
X670241Y701093D01*
X669417Y699848D01*
X667248Y697680D01*
X665856Y694319D01*
X665856Y690681D01*
X667248Y687320D01*
X669417Y685152D01*
X670194Y684018D01*
X670515Y682560D01*
X670241Y681093D01*
X669417Y679848D01*
X667248Y677680D01*
X665856Y674319D01*
X665856Y670681D01*
X667248Y667320D01*
X669417Y665152D01*
X670194Y664018D01*
X670515Y662560D01*
X670241Y661093D01*
X669417Y659848D01*
X667248Y657680D01*
X665856Y654319D01*
X665856Y650681D01*
X667278Y647247D01*
X667963Y646249D01*
X668283Y644792D01*
X668009Y643324D01*
X667185Y642080D01*
X665856Y640751D01*
X665856Y628790D01*
X665604Y627438D01*
X664800Y626181D01*
X663569Y625337D01*
X662106Y625040D01*
X649105Y625040D01*
X647698Y625314D01*
X646454Y626138D01*
X459638Y812954D01*
X458837Y814143D01*
X458540Y815605D01*
X458540Y888177D01*
X458781Y889501D01*
X459576Y890765D01*
X460800Y891619D01*
X462260Y891927D01*
X463725Y891642D01*
X468240Y889772D01*
X472584Y889772D01*
X476599Y891435D01*
X479671Y894507D01*
X481334Y898522D01*
X481334Y902866D01*
X479671Y906881D01*
X476599Y909953D01*
X472584Y911616D01*
X468240Y911616D01*
X463725Y909746D01*
X462410Y909463D01*
X460938Y909713D01*
X459681Y910517D01*
X458837Y911748D01*
X458540Y913211D01*
X458540Y932290D01*
X458781Y933614D01*
X459576Y934877D01*
X460800Y935731D01*
X462260Y936040D01*
X463725Y935754D01*
X468037Y933968D01*
X469650Y933968D01*
X469650Y957844D01*
X468037Y957844D01*
X463725Y956058D01*
X462410Y955774D01*
X460938Y956024D01*
X459681Y956829D01*
X458837Y958060D01*
X458540Y959522D01*
X458540Y994119D01*
X458781Y995443D01*
X459576Y996707D01*
X460800Y997560D01*
X462260Y997869D01*
X463725Y997584D01*
X468137Y995756D01*
X469750Y995756D01*
X469750Y1019632D01*
X468137Y1019632D01*
X463725Y1017804D01*
X462410Y1017521D01*
X460938Y1017771D01*
X459681Y1018575D01*
X458837Y1019806D01*
X458540Y1021269D01*
X458540Y1040431D01*
X458781Y1041755D01*
X459576Y1043018D01*
X460800Y1043872D01*
X462260Y1044181D01*
X463725Y1043895D01*
X468340Y1041984D01*
X472684Y1041984D01*
X476699Y1043647D01*
X479771Y1046719D01*
X481434Y1050734D01*
X481434Y1055078D01*
X479771Y1059093D01*
X476699Y1062165D01*
X472684Y1063828D01*
X468340Y1063828D01*
X463725Y1061917D01*
X462410Y1061633D01*
X460938Y1061883D01*
X459681Y1062688D01*
X458837Y1063919D01*
X458540Y1065381D01*
X458540Y1077505D01*
X458153Y1078439D01*
X412939Y1123653D01*
X412005Y1124040D01*
X407594Y1124040D01*
X406242Y1124292D01*
X404985Y1125096D01*
X404141Y1126327D01*
X403844Y1127790D01*
X403844Y1130939D01*
X402452Y1134300D01*
X399542Y1137209D01*
X399354Y1137329D01*
X398471Y1138532D01*
X398128Y1139984D01*
X398378Y1141456D01*
X399182Y1142713D01*
X400413Y1143557D01*
X401876Y1143854D01*
X469661Y1143854D01*
X471069Y1143580D01*
X472313Y1142756D01*
X476712Y1138356D01*
X484288Y1138356D01*
X489644Y1143712D01*
X489644Y1151288D01*
X486622Y1154309D01*
X485821Y1155498D01*
X485524Y1156961D01*
X485524Y1194862D01*
X485798Y1196270D01*
X486622Y1197514D01*
X489138Y1200030D01*
X490474Y1203255D01*
X490474Y1206745D01*
X489138Y1209970D01*
X486670Y1212438D01*
X483445Y1213774D01*
X479955Y1213774D01*
X476730Y1212438D01*
X474262Y1209970D01*
X473014Y1206959D01*
X472305Y1205850D01*
X471101Y1204981D01*
X472180Y1204279D01*
X473014Y1203041D01*
X474262Y1200030D01*
X474378Y1199914D01*
X475179Y1198725D01*
X475476Y1197262D01*
X475476Y1160652D01*
X475224Y1159300D01*
X474420Y1158043D01*
X473189Y1157199D01*
X471726Y1156902D01*
X297327Y1156902D01*
X294929Y1155909D01*
X281870Y1142850D01*
X281785Y1142723D01*
X202526Y1063464D01*
X201446Y1062711D01*
X199994Y1062367D01*
X198522Y1062617D01*
X197265Y1063422D01*
X196421Y1064653D01*
X196410Y1064705D01*
X196409Y1064705D01*
X194598Y1069078D01*
X191778Y1071898D01*
X188094Y1073424D01*
X184106Y1073424D01*
X180422Y1071898D01*
X177602Y1069078D01*
X176076Y1065394D01*
X176076Y1061406D01*
X177602Y1057722D01*
X180422Y1054902D01*
X184651Y1053150D01*
X184681Y1053145D01*
X184715Y1053124D01*
X184795Y1053091D01*
X184790Y1053078D01*
X185951Y1052361D01*
X186814Y1051144D01*
X187134Y1049686D01*
X186861Y1048219D01*
X186036Y1046974D01*
X149184Y1010122D01*
X147995Y1009321D01*
X146533Y1009024D01*
X127961Y1009024D01*
X126553Y1009298D01*
X125309Y1010122D01*
X123788Y1011644D01*
X116212Y1011644D01*
X110856Y1006288D01*
X110856Y998712D01*
X116212Y993356D01*
X123788Y993356D01*
X125309Y994878D01*
X126498Y995679D01*
X127961Y995976D01*
X152086Y995976D01*
X154484Y996969D01*
X195178Y1037663D01*
X196284Y1038428D01*
X197740Y1038760D01*
X199209Y1038498D01*
X200460Y1037684D01*
X201294Y1036446D01*
X203002Y1032322D01*
X205822Y1029502D01*
X209506Y1027976D01*
X213494Y1027976D01*
X217178Y1029502D01*
X219998Y1032322D01*
X221524Y1036006D01*
X221524Y1039994D01*
X219998Y1043678D01*
X217178Y1046498D01*
X213054Y1048206D01*
X211923Y1048936D01*
X211060Y1050153D01*
X210739Y1051611D01*
X211013Y1053078D01*
X211837Y1054323D01*
X220578Y1063063D01*
X221684Y1063828D01*
X223140Y1064160D01*
X224609Y1063898D01*
X225860Y1063084D01*
X226694Y1061846D01*
X228402Y1057722D01*
X231222Y1054902D01*
X234906Y1053376D01*
X238894Y1053376D01*
X242578Y1054902D01*
X245398Y1057722D01*
X246924Y1061406D01*
X246924Y1065394D01*
X245398Y1069078D01*
X242578Y1071898D01*
X238454Y1073606D01*
X237323Y1074336D01*
X236460Y1075553D01*
X236139Y1077011D01*
X236413Y1078478D01*
X237237Y1079723D01*
X285243Y1127728D01*
X286377Y1128505D01*
X287834Y1128826D01*
X289302Y1128552D01*
X290546Y1127728D01*
X333804Y1084469D01*
X336202Y1083476D01*
X401656Y1083476D01*
X403063Y1083202D01*
X404307Y1082378D01*
X420878Y1065807D01*
X421679Y1064618D01*
X421976Y1063156D01*
X421976Y1060494D01*
X421755Y1059226D01*
X420981Y1057950D01*
X419771Y1057077D01*
X418316Y1056745D01*
X416846Y1057007D01*
X415596Y1057821D01*
X414761Y1059058D01*
X414747Y1059093D01*
X411675Y1062165D01*
X407660Y1063828D01*
X403316Y1063828D01*
X399301Y1062165D01*
X396229Y1059093D01*
X394566Y1055078D01*
X394566Y1050734D01*
X396229Y1046719D01*
X399301Y1043647D01*
X403316Y1041984D01*
X407660Y1041984D01*
X411675Y1043647D01*
X414747Y1046719D01*
X414761Y1046754D01*
X415451Y1047840D01*
X416654Y1048723D01*
X418106Y1049067D01*
X419578Y1048816D01*
X420835Y1048012D01*
X421679Y1046781D01*
X421976Y1045318D01*
X421976Y1017142D01*
X421745Y1015846D01*
X420961Y1014576D01*
X419744Y1013713D01*
X418286Y1013393D01*
X416819Y1013666D01*
X415574Y1014491D01*
X412250Y1017815D01*
X407863Y1019632D01*
X406250Y1019632D01*
X406250Y995756D01*
X407863Y995756D01*
X412250Y997573D01*
X415574Y1000897D01*
X416654Y1001650D01*
X418106Y1001994D01*
X419578Y1001744D01*
X420835Y1000939D01*
X421679Y999708D01*
X421976Y998246D01*
X421976Y955254D01*
X421745Y953958D01*
X420961Y952688D01*
X419744Y951825D01*
X418286Y951505D01*
X416819Y951778D01*
X415574Y952603D01*
X412150Y956027D01*
X407763Y957844D01*
X406150Y957844D01*
X406150Y933968D01*
X407763Y933968D01*
X412150Y935785D01*
X415574Y939209D01*
X416654Y939962D01*
X418106Y940306D01*
X419578Y940056D01*
X420835Y939251D01*
X421679Y938020D01*
X421976Y936558D01*
X421976Y908040D01*
X421755Y906772D01*
X420981Y905496D01*
X419771Y904623D01*
X418316Y904291D01*
X416846Y904553D01*
X415596Y905367D01*
X414761Y906605D01*
X414647Y906881D01*
X411575Y909953D01*
X407560Y911616D01*
X403216Y911616D01*
X399201Y909953D01*
X396129Y906881D01*
X394466Y902866D01*
X394466Y898522D01*
X396129Y894507D01*
X397910Y892726D01*
X398663Y891646D01*
X399007Y890194D01*
X398757Y888722D01*
X397952Y887465D01*
X396721Y886621D01*
X395259Y886324D01*
X229456Y886324D01*
X228048Y886598D01*
X226804Y887422D01*
X214138Y900088D01*
X211740Y901081D01*
X168260Y901081D01*
X165862Y900088D01*
X145546Y879772D01*
X144466Y879019D01*
X143014Y878676D01*
X141542Y878926D01*
X140285Y879730D01*
X139441Y880961D01*
X139144Y882424D01*
X139144Y888788D01*
X133788Y894144D01*
X126212Y894144D01*
X120856Y888788D01*
X120856Y881212D01*
X126337Y875732D01*
X127114Y874598D01*
X127434Y873140D01*
X127161Y871673D01*
X126337Y870429D01*
X69347Y813439D01*
X68960Y812505D01*
X68960Y788995D01*
X69347Y788061D01*
X79561Y777847D01*
X80495Y777460D01*
X102514Y777460D01*
X103448Y777847D01*
X116247Y790646D01*
X116634Y791580D01*
X116634Y820825D01*
X116908Y822233D01*
X117732Y823477D01*
X169634Y875379D01*
X170823Y876180D01*
X172286Y876477D01*
X196877Y876477D01*
X198285Y876203D01*
X199529Y875379D01*
X208862Y866046D01*
X209663Y864857D01*
X209960Y863395D01*
X209960Y760021D01*
X209719Y758697D01*
X208924Y757433D01*
X207700Y756580D01*
X206240Y756271D01*
X204775Y756556D01*
X201821Y757780D01*
X200562Y757780D01*
X200562Y739238D01*
X189640Y739238D01*
X189640Y730359D01*
X191187Y726625D01*
X194045Y723767D01*
X197696Y722255D01*
X198782Y721565D01*
X199665Y720362D01*
X199792Y719828D01*
X199852Y720170D01*
X200667Y721420D01*
X201904Y722255D01*
X204775Y723444D01*
X206090Y723727D01*
X207562Y723477D01*
X208819Y722673D01*
X209663Y721442D01*
X209960Y719979D01*
X209960Y718790D01*
X209708Y717438D01*
X208904Y716181D01*
X207673Y715337D01*
X206210Y715040D01*
X203339Y715040D01*
X202072Y715261D01*
X200796Y716035D01*
X199922Y717245D01*
X199810Y717739D01*
X199758Y717438D01*
X198954Y716181D01*
X197723Y715337D01*
X196261Y715040D01*
X192605Y715040D01*
X191198Y715314D01*
X189954Y716138D01*
X167742Y738350D01*
X166941Y739539D01*
X166644Y741001D01*
X166644Y748788D01*
X161288Y754144D01*
X153712Y754144D01*
X148356Y748788D01*
X148356Y741212D01*
X153712Y735856D01*
X161499Y735856D01*
X162906Y735582D01*
X164150Y734758D01*
X188561Y710347D01*
X189495Y709960D01*
X213005Y709960D01*
X213939Y710347D01*
X214653Y711061D01*
X215040Y711995D01*
X215040Y721079D01*
X215281Y722403D01*
X216076Y723666D01*
X217300Y724520D01*
X218760Y724829D01*
X220225Y724543D01*
X223381Y723236D01*
X227019Y723236D01*
X230380Y724628D01*
X232952Y727200D01*
X234344Y730561D01*
X234344Y749439D01*
X232952Y752800D01*
X232822Y752929D01*
X232021Y754118D01*
X231724Y755581D01*
X231724Y869526D01*
X231976Y870878D01*
X232780Y872135D01*
X234011Y872979D01*
X235474Y873276D01*
X258791Y873276D01*
X260087Y873045D01*
X261357Y872261D01*
X262220Y871044D01*
X262541Y869586D01*
X262267Y868119D01*
X261443Y866874D01*
X258356Y863788D01*
X258356Y856212D01*
X263862Y850707D01*
X264663Y849518D01*
X264960Y848055D01*
X264960Y836945D01*
X264686Y835537D01*
X263862Y834293D01*
X258356Y828788D01*
X258356Y821212D01*
X263712Y815856D01*
X271288Y815856D01*
X276644Y821212D01*
X276644Y828788D01*
X271138Y834293D01*
X270337Y835482D01*
X270040Y836945D01*
X270040Y848055D01*
X270314Y849463D01*
X271138Y850707D01*
X276644Y856212D01*
X276644Y863788D01*
X273557Y866874D01*
X272804Y867954D01*
X272461Y869406D01*
X272711Y870878D01*
X273515Y872135D01*
X274746Y872979D01*
X276209Y873276D01*
X419309Y873276D01*
X421707Y874269D01*
X434031Y886593D01*
X435024Y888991D01*
X435024Y1069302D01*
X435255Y1070597D01*
X436039Y1071867D01*
X437257Y1072731D01*
X438714Y1073051D01*
X440181Y1072777D01*
X441426Y1071953D01*
X444222Y1069157D01*
X445023Y1067968D01*
X445320Y1066506D01*
X445320Y829985D01*
X445089Y828689D01*
X444305Y827419D01*
X443088Y826556D01*
X441630Y826235D01*
X440163Y826509D01*
X438918Y827333D01*
X436880Y829372D01*
X436355Y829589D01*
X435181Y830360D01*
X434337Y831591D01*
X434040Y833054D01*
X434040Y850505D01*
X433653Y851439D01*
X432939Y852153D01*
X432005Y852540D01*
X371995Y852540D01*
X371061Y852153D01*
X370347Y851439D01*
X369960Y850505D01*
X369960Y679495D01*
X370347Y678561D01*
X384966Y663942D01*
X385719Y662862D01*
X386063Y661410D01*
X385812Y659938D01*
X385008Y658681D01*
X383777Y657837D01*
X382315Y657540D01*
X300105Y657540D01*
X298698Y657814D01*
X297454Y658638D01*
X285242Y670850D01*
X284441Y672039D01*
X284144Y673501D01*
X284144Y681288D01*
X278788Y686644D01*
X271212Y686644D01*
X265856Y681288D01*
X265856Y673712D01*
X271212Y668356D01*
X278999Y668356D01*
X280406Y668082D01*
X281650Y667258D01*
X296061Y652847D01*
X296995Y652460D01*
X447395Y652460D01*
X448802Y652186D01*
X450046Y651362D01*
X611346Y490062D01*
X612099Y488982D01*
X612443Y487530D01*
X612192Y486058D01*
X611388Y484801D01*
X610157Y483957D01*
G37*
%LPC*%
G36*
X320210Y1282462D02*
X329238Y1282462D01*
X329238Y1291490D01*
X328053Y1291490D01*
X324454Y1290000D01*
X321700Y1287246D01*
X320210Y1283647D01*
X320210Y1282462D01*
G37*
G36*
X330762Y1282462D02*
X339790Y1282462D01*
X339790Y1283647D01*
X338300Y1287246D01*
X335546Y1290000D01*
X331947Y1291490D01*
X330762Y1291490D01*
X330762Y1282462D01*
G37*
G36*
X423210Y1281462D02*
X432238Y1281462D01*
X432238Y1290490D01*
X431053Y1290490D01*
X427454Y1289000D01*
X424700Y1286246D01*
X423210Y1282647D01*
X423210Y1281462D01*
G37*
G36*
X433762Y1281462D02*
X442790Y1281462D01*
X442790Y1282647D01*
X441300Y1286246D01*
X438546Y1289000D01*
X434947Y1290490D01*
X433762Y1290490D01*
X433762Y1281462D01*
G37*
G36*
X553210Y1279462D02*
X562238Y1279462D01*
X562238Y1288490D01*
X561053Y1288490D01*
X557454Y1287000D01*
X554700Y1284246D01*
X553210Y1280647D01*
X553210Y1279462D01*
G37*
G36*
X563762Y1279462D02*
X572790Y1279462D01*
X572790Y1280647D01*
X571300Y1284246D01*
X568546Y1287000D01*
X564947Y1288490D01*
X563762Y1288490D01*
X563762Y1279462D01*
G37*
G36*
X504062Y1276462D02*
X515238Y1276462D01*
X515238Y1287638D01*
X513625Y1287638D01*
X509238Y1285821D01*
X505879Y1282462D01*
X504062Y1278075D01*
X504062Y1276462D01*
G37*
G36*
X516762Y1276462D02*
X527938Y1276462D01*
X527938Y1278075D01*
X526121Y1282462D01*
X522762Y1285821D01*
X518375Y1287638D01*
X516762Y1287638D01*
X516762Y1276462D01*
G37*
G36*
X329150Y1271205D02*
X330019Y1270002D01*
X330721Y1271081D01*
X331959Y1271915D01*
X335546Y1273400D01*
X338300Y1276154D01*
X339790Y1279753D01*
X339790Y1280938D01*
X320210Y1280938D01*
X320210Y1279753D01*
X321700Y1276154D01*
X324454Y1273400D01*
X328041Y1271915D01*
X329150Y1271205D01*
G37*
G36*
X432150Y1270205D02*
X433019Y1269002D01*
X433721Y1270081D01*
X434959Y1270915D01*
X438546Y1272400D01*
X441300Y1275154D01*
X442790Y1278753D01*
X442790Y1279938D01*
X423210Y1279938D01*
X423210Y1278753D01*
X424700Y1275154D01*
X427454Y1272400D01*
X431041Y1270915D01*
X432150Y1270205D01*
G37*
G36*
X562150Y1268205D02*
X563019Y1267002D01*
X563721Y1268081D01*
X564959Y1268915D01*
X568546Y1270400D01*
X571300Y1273154D01*
X572790Y1276753D01*
X572790Y1277938D01*
X553210Y1277938D01*
X553210Y1276753D01*
X554700Y1273154D01*
X557454Y1270400D01*
X561041Y1268915D01*
X562150Y1268205D01*
G37*
G36*
X3150Y1257305D02*
X4019Y1256101D01*
X4721Y1257180D01*
X5959Y1258014D01*
X8970Y1259262D01*
X11438Y1261730D01*
X12774Y1264955D01*
X12774Y1268445D01*
X11438Y1271670D01*
X8970Y1274138D01*
X5745Y1275474D01*
X2255Y1275474D01*
X-970Y1274138D01*
X-3438Y1271670D01*
X-4774Y1268445D01*
X-4774Y1264955D01*
X-3438Y1261730D01*
X-970Y1259262D01*
X2041Y1258014D01*
X3150Y1257305D01*
G37*
G36*
X815920Y1266062D02*
X825238Y1266062D01*
X825238Y1275380D01*
X823995Y1275380D01*
X820290Y1273845D01*
X817455Y1271010D01*
X815920Y1267305D01*
X815920Y1266062D01*
G37*
G36*
X826762Y1255220D02*
X828005Y1255220D01*
X831710Y1256755D01*
X834545Y1259590D01*
X835585Y1262101D01*
X836295Y1263209D01*
X837505Y1264083D01*
X838960Y1264415D01*
X840430Y1264153D01*
X841680Y1263338D01*
X842514Y1262101D01*
X843316Y1260166D01*
X845866Y1257616D01*
X849197Y1256236D01*
X852803Y1256236D01*
X856134Y1257616D01*
X858684Y1260166D01*
X860064Y1263497D01*
X860064Y1267103D01*
X858684Y1270434D01*
X856134Y1272984D01*
X852803Y1274364D01*
X849197Y1274364D01*
X845866Y1272984D01*
X843316Y1270434D01*
X842514Y1268499D01*
X841805Y1267391D01*
X840595Y1266517D01*
X839140Y1266185D01*
X837670Y1266447D01*
X836419Y1267262D01*
X835585Y1268499D01*
X834545Y1271010D01*
X831710Y1273845D01*
X828005Y1275380D01*
X826762Y1275380D01*
X826762Y1255220D01*
G37*
G36*
X513828Y1239378D02*
X518172Y1239378D01*
X522187Y1241041D01*
X525259Y1244113D01*
X526922Y1248128D01*
X526922Y1252472D01*
X525259Y1256487D01*
X522067Y1259679D01*
X521301Y1260786D01*
X520970Y1262241D01*
X521232Y1263711D01*
X522046Y1264961D01*
X522347Y1265164D01*
X526121Y1268938D01*
X527938Y1273325D01*
X527938Y1274938D01*
X504062Y1274938D01*
X504062Y1273325D01*
X505879Y1268938D01*
X509577Y1265240D01*
X509847Y1265066D01*
X510711Y1263848D01*
X511031Y1262391D01*
X510757Y1260923D01*
X509933Y1259679D01*
X506741Y1256487D01*
X505078Y1252472D01*
X505078Y1248128D01*
X506741Y1244113D01*
X509813Y1241041D01*
X513828Y1239378D01*
G37*
G36*
X328255Y1247526D02*
X331745Y1247526D01*
X334970Y1248862D01*
X337438Y1251330D01*
X338774Y1254555D01*
X338774Y1258045D01*
X337438Y1261270D01*
X334970Y1263738D01*
X331959Y1264986D01*
X330850Y1265695D01*
X329981Y1266899D01*
X329279Y1265820D01*
X328041Y1264986D01*
X325030Y1263738D01*
X322562Y1261270D01*
X321226Y1258045D01*
X321226Y1254555D01*
X322562Y1251330D01*
X325030Y1248862D01*
X328255Y1247526D01*
G37*
G36*
X431255Y1246526D02*
X434745Y1246526D01*
X437970Y1247862D01*
X440438Y1250330D01*
X441774Y1253555D01*
X441774Y1257045D01*
X440438Y1260270D01*
X437970Y1262738D01*
X434959Y1263986D01*
X433850Y1264695D01*
X432981Y1265899D01*
X432279Y1264820D01*
X431041Y1263986D01*
X428030Y1262738D01*
X425562Y1260270D01*
X424226Y1257045D01*
X424226Y1253555D01*
X425562Y1250330D01*
X428030Y1247862D01*
X431255Y1246526D01*
G37*
G36*
X171712Y1247356D02*
X179288Y1247356D01*
X180809Y1248878D01*
X181998Y1249679D01*
X183461Y1249976D01*
X218539Y1249976D01*
X219947Y1249702D01*
X221191Y1248878D01*
X222712Y1247356D01*
X230288Y1247356D01*
X235644Y1252712D01*
X235644Y1260288D01*
X230288Y1265644D01*
X222712Y1265644D01*
X221191Y1264122D01*
X220002Y1263321D01*
X218539Y1263024D01*
X183461Y1263024D01*
X182053Y1263298D01*
X180809Y1264122D01*
X179288Y1265644D01*
X171712Y1265644D01*
X166356Y1260288D01*
X166356Y1252712D01*
X171712Y1247356D01*
G37*
G36*
X823995Y1255220D02*
X825238Y1255220D01*
X825238Y1264538D01*
X815920Y1264538D01*
X815920Y1263295D01*
X817455Y1259590D01*
X820290Y1256755D01*
X823995Y1255220D01*
G37*
G36*
X561255Y1244526D02*
X564745Y1244526D01*
X567970Y1245862D01*
X570438Y1248330D01*
X571774Y1251555D01*
X571774Y1255045D01*
X570438Y1258270D01*
X567970Y1260738D01*
X564959Y1261986D01*
X563850Y1262695D01*
X562981Y1263899D01*
X562279Y1262820D01*
X561041Y1261986D01*
X558030Y1260738D01*
X555562Y1258270D01*
X554226Y1255045D01*
X554226Y1251555D01*
X555562Y1248330D01*
X558030Y1245862D01*
X561255Y1244526D01*
G37*
G36*
X-5790Y1242062D02*
X13790Y1242062D01*
X13790Y1243247D01*
X12300Y1246846D01*
X9546Y1249600D01*
X5959Y1251085D01*
X4850Y1251795D01*
X3981Y1252999D01*
X3279Y1251919D01*
X2041Y1251085D01*
X-1546Y1249600D01*
X-4300Y1246846D01*
X-5790Y1243247D01*
X-5790Y1242062D01*
G37*
G36*
X287828Y1193378D02*
X292172Y1193378D01*
X296187Y1195041D01*
X299259Y1198113D01*
X300922Y1202128D01*
X300922Y1206472D01*
X299259Y1210487D01*
X296151Y1213595D01*
X295135Y1214245D01*
X294262Y1215455D01*
X293930Y1216910D01*
X294192Y1218380D01*
X295007Y1219630D01*
X296141Y1220395D01*
X299259Y1223513D01*
X300922Y1227528D01*
X300922Y1231872D01*
X299259Y1235887D01*
X296187Y1238959D01*
X292172Y1240622D01*
X287828Y1240622D01*
X283813Y1238959D01*
X280741Y1235887D01*
X279078Y1231872D01*
X279078Y1227528D01*
X280741Y1223513D01*
X283849Y1220405D01*
X284865Y1219755D01*
X285738Y1218545D01*
X286070Y1217090D01*
X285808Y1215620D01*
X284993Y1214370D01*
X283859Y1213605D01*
X280741Y1210487D01*
X279078Y1206472D01*
X279078Y1202128D01*
X280741Y1198113D01*
X283813Y1195041D01*
X287828Y1193378D01*
G37*
G36*
X4762Y1231510D02*
X5947Y1231510D01*
X9546Y1233000D01*
X12300Y1235754D01*
X13790Y1239353D01*
X13790Y1240538D01*
X4762Y1240538D01*
X4762Y1231510D01*
G37*
G36*
X2053Y1231510D02*
X3238Y1231510D01*
X3238Y1240538D01*
X-5790Y1240538D01*
X-5790Y1239353D01*
X-4300Y1235754D01*
X-1546Y1233000D01*
X2053Y1231510D01*
G37*
G36*
X527062Y1197062D02*
X528675Y1197062D01*
X533062Y1198879D01*
X536760Y1202577D01*
X536934Y1202847D01*
X538152Y1203711D01*
X539609Y1204031D01*
X541077Y1203757D01*
X542321Y1202933D01*
X545513Y1199741D01*
X549528Y1198078D01*
X553872Y1198078D01*
X557887Y1199741D01*
X560959Y1202813D01*
X562622Y1206828D01*
X562622Y1211172D01*
X560959Y1215187D01*
X557887Y1218259D01*
X553872Y1219922D01*
X549528Y1219922D01*
X545513Y1218259D01*
X542321Y1215067D01*
X541214Y1214301D01*
X539759Y1213970D01*
X538289Y1214232D01*
X537039Y1215046D01*
X536836Y1215347D01*
X533062Y1219121D01*
X528675Y1220938D01*
X527062Y1220938D01*
X527062Y1197062D01*
G37*
G36*
X514362Y1209762D02*
X525538Y1209762D01*
X525538Y1220938D01*
X523925Y1220938D01*
X519538Y1219121D01*
X516179Y1215762D01*
X514362Y1211375D01*
X514362Y1209762D01*
G37*
G36*
X457062Y1195210D02*
X458247Y1195210D01*
X461846Y1196700D01*
X464600Y1199454D01*
X466085Y1203041D01*
X466795Y1204150D01*
X467999Y1205019D01*
X466919Y1205721D01*
X466085Y1206959D01*
X464600Y1210546D01*
X461846Y1213300D01*
X458247Y1214790D01*
X457062Y1214790D01*
X457062Y1195210D01*
G37*
G36*
X446510Y1205762D02*
X455538Y1205762D01*
X455538Y1214790D01*
X454353Y1214790D01*
X450754Y1213300D01*
X448000Y1210546D01*
X446510Y1206947D01*
X446510Y1205762D01*
G37*
G36*
X3150Y1192305D02*
X4019Y1191101D01*
X4721Y1192180D01*
X5959Y1193014D01*
X8970Y1194262D01*
X11438Y1196730D01*
X12774Y1199955D01*
X12774Y1203445D01*
X11438Y1206670D01*
X8970Y1209138D01*
X5745Y1210474D01*
X2255Y1210474D01*
X-970Y1209138D01*
X-3438Y1206670D01*
X-4774Y1203445D01*
X-4774Y1199955D01*
X-3438Y1196730D01*
X-970Y1194262D01*
X2041Y1193014D01*
X3150Y1192305D01*
G37*
G36*
X523925Y1197062D02*
X525538Y1197062D01*
X525538Y1208238D01*
X514362Y1208238D01*
X514362Y1206625D01*
X516179Y1202238D01*
X519538Y1198879D01*
X523925Y1197062D01*
G37*
G36*
X454353Y1195210D02*
X455538Y1195210D01*
X455538Y1204238D01*
X446510Y1204238D01*
X446510Y1203053D01*
X448000Y1199454D01*
X450754Y1196700D01*
X454353Y1195210D01*
G37*
G36*
X-5790Y1177062D02*
X13790Y1177062D01*
X13790Y1178247D01*
X12300Y1181846D01*
X9546Y1184600D01*
X5959Y1186085D01*
X4850Y1186795D01*
X3981Y1187999D01*
X3279Y1186919D01*
X2041Y1186085D01*
X-1546Y1184600D01*
X-4300Y1181846D01*
X-5790Y1178247D01*
X-5790Y1177062D01*
G37*
G36*
X72128Y1163078D02*
X76472Y1163078D01*
X80487Y1164741D01*
X83595Y1167849D01*
X84245Y1168865D01*
X85455Y1169738D01*
X86910Y1170070D01*
X88380Y1169808D01*
X89630Y1168993D01*
X90395Y1167859D01*
X93513Y1164741D01*
X97528Y1163078D01*
X101872Y1163078D01*
X105887Y1164741D01*
X108959Y1167813D01*
X110622Y1171828D01*
X110622Y1176172D01*
X108959Y1180187D01*
X105887Y1183259D01*
X101872Y1184922D01*
X97528Y1184922D01*
X93513Y1183259D01*
X90405Y1180151D01*
X89755Y1179135D01*
X88545Y1178262D01*
X87090Y1177930D01*
X85620Y1178192D01*
X84370Y1179007D01*
X83605Y1180141D01*
X80487Y1183259D01*
X76472Y1184922D01*
X72128Y1184922D01*
X68113Y1183259D01*
X65041Y1180187D01*
X63378Y1176172D01*
X63378Y1171828D01*
X65041Y1167813D01*
X68113Y1164741D01*
X72128Y1163078D01*
G37*
G36*
X229212Y1128856D02*
X236788Y1128856D01*
X242144Y1134212D01*
X242144Y1141788D01*
X236606Y1147325D01*
X235361Y1147963D01*
X234403Y1149108D01*
X220574Y1174638D01*
X220407Y1174989D01*
X220070Y1175802D01*
X219791Y1176176D01*
X219108Y1176730D01*
X218819Y1176990D01*
X218197Y1177613D01*
X217797Y1177851D01*
X216954Y1178102D01*
X216587Y1178231D01*
X215774Y1178568D01*
X215314Y1178635D01*
X214438Y1178544D01*
X214050Y1178524D01*
X182461Y1178524D01*
X181053Y1178798D01*
X179809Y1179622D01*
X178288Y1181144D01*
X170712Y1181144D01*
X165356Y1175788D01*
X165356Y1168212D01*
X170712Y1162856D01*
X178288Y1162856D01*
X179809Y1164378D01*
X180998Y1165179D01*
X182461Y1165476D01*
X208464Y1165476D01*
X209475Y1165337D01*
X210804Y1164657D01*
X211761Y1163512D01*
X223403Y1142019D01*
X223856Y1140233D01*
X223856Y1134212D01*
X229212Y1128856D01*
G37*
G36*
X4762Y1166510D02*
X5947Y1166510D01*
X9546Y1168000D01*
X12300Y1170754D01*
X13790Y1174353D01*
X13790Y1175538D01*
X4762Y1175538D01*
X4762Y1166510D01*
G37*
G36*
X2053Y1166510D02*
X3238Y1166510D01*
X3238Y1175538D01*
X-5790Y1175538D01*
X-5790Y1174353D01*
X-4300Y1170754D01*
X-1546Y1168000D01*
X2053Y1166510D01*
G37*
G36*
X511262Y1148262D02*
X520660Y1148262D01*
X520660Y1151708D01*
X514708Y1157660D01*
X511262Y1157660D01*
X511262Y1148262D01*
G37*
G36*
X500340Y1148262D02*
X509738Y1148262D01*
X509738Y1157660D01*
X506292Y1157660D01*
X500340Y1151708D01*
X500340Y1148262D01*
G37*
G36*
X-14538Y1141762D02*
X-3362Y1141762D01*
X-3362Y1143375D01*
X-5179Y1147762D01*
X-8538Y1151121D01*
X-12925Y1152938D01*
X-14538Y1152938D01*
X-14538Y1141762D01*
G37*
G36*
X41062Y1129062D02*
X42675Y1129062D01*
X47062Y1130879D01*
X50760Y1134577D01*
X50934Y1134847D01*
X52152Y1135711D01*
X53609Y1136031D01*
X55077Y1135757D01*
X56321Y1134933D01*
X59513Y1131741D01*
X63528Y1130078D01*
X67872Y1130078D01*
X71887Y1131741D01*
X74959Y1134813D01*
X76622Y1138828D01*
X76622Y1143172D01*
X74959Y1147187D01*
X71887Y1150259D01*
X67872Y1151922D01*
X63528Y1151922D01*
X59513Y1150259D01*
X56321Y1147067D01*
X55214Y1146301D01*
X53759Y1145970D01*
X52289Y1146232D01*
X51039Y1147046D01*
X50836Y1147347D01*
X47062Y1151121D01*
X42675Y1152938D01*
X41062Y1152938D01*
X41062Y1129062D01*
G37*
G36*
X28362Y1141762D02*
X39538Y1141762D01*
X39538Y1152938D01*
X37925Y1152938D01*
X33538Y1151121D01*
X30179Y1147762D01*
X28362Y1143375D01*
X28362Y1141762D01*
G37*
G36*
X-17675Y1129062D02*
X-16062Y1129062D01*
X-16062Y1152938D01*
X-17675Y1152938D01*
X-22062Y1151121D01*
X-25760Y1147423D01*
X-25934Y1147153D01*
X-27152Y1146289D01*
X-28609Y1145969D01*
X-30077Y1146243D01*
X-31321Y1147067D01*
X-34513Y1150259D01*
X-38528Y1151922D01*
X-42872Y1151922D01*
X-46887Y1150259D01*
X-49959Y1147187D01*
X-51622Y1143172D01*
X-51622Y1138828D01*
X-49959Y1134813D01*
X-46887Y1131741D01*
X-42872Y1130078D01*
X-38528Y1130078D01*
X-34513Y1131741D01*
X-31321Y1134933D01*
X-30214Y1135699D01*
X-28759Y1136030D01*
X-27289Y1135768D01*
X-26039Y1134954D01*
X-25836Y1134653D01*
X-22062Y1130879D01*
X-17675Y1129062D01*
G37*
G36*
X609295Y1136736D02*
X612305Y1136736D01*
X615085Y1137888D01*
X617212Y1140015D01*
X618364Y1142795D01*
X618364Y1145805D01*
X617212Y1148585D01*
X615085Y1150712D01*
X612305Y1151864D01*
X609295Y1151864D01*
X606515Y1150712D01*
X604388Y1148585D01*
X603236Y1145805D01*
X603236Y1142795D01*
X604388Y1140015D01*
X606515Y1137888D01*
X609295Y1136736D01*
G37*
G36*
X506292Y1137340D02*
X509738Y1137340D01*
X509738Y1146738D01*
X500340Y1146738D01*
X500340Y1143292D01*
X506292Y1137340D01*
G37*
G36*
X511262Y1137340D02*
X514708Y1137340D01*
X520660Y1143292D01*
X520660Y1146738D01*
X511262Y1146738D01*
X511262Y1137340D01*
G37*
G36*
X-14538Y1129062D02*
X-12925Y1129062D01*
X-8538Y1130879D01*
X-5179Y1134238D01*
X-3362Y1138625D01*
X-3362Y1140238D01*
X-14538Y1140238D01*
X-14538Y1129062D01*
G37*
G36*
X37925Y1129062D02*
X39538Y1129062D01*
X39538Y1140238D01*
X28362Y1140238D01*
X28362Y1138625D01*
X30179Y1134238D01*
X33538Y1130879D01*
X37925Y1129062D01*
G37*
G36*
X609295Y1111336D02*
X612305Y1111336D01*
X615085Y1112488D01*
X617212Y1114615D01*
X618364Y1117395D01*
X618364Y1120405D01*
X617212Y1123185D01*
X615085Y1125312D01*
X612305Y1126464D01*
X609295Y1126464D01*
X606515Y1125312D01*
X604388Y1123185D01*
X603236Y1120405D01*
X603236Y1117395D01*
X604388Y1114615D01*
X606515Y1112488D01*
X609295Y1111336D01*
G37*
G36*
X609295Y1085936D02*
X612305Y1085936D01*
X615085Y1087088D01*
X617212Y1089215D01*
X618364Y1091995D01*
X618364Y1095005D01*
X617212Y1097785D01*
X615085Y1099912D01*
X612305Y1101064D01*
X609295Y1101064D01*
X606515Y1099912D01*
X604388Y1097785D01*
X603236Y1095005D01*
X603236Y1091995D01*
X604388Y1089215D01*
X606515Y1087088D01*
X609295Y1085936D01*
G37*
G36*
X-65742Y1089705D02*
X-53884Y1089705D01*
X-53884Y1090451D01*
X-55038Y1093237D01*
X-57171Y1095369D01*
X-59957Y1096523D01*
X-65742Y1096523D01*
X-65742Y1089705D01*
G37*
G36*
X2828Y1066633D02*
X8163Y1066633D01*
X13092Y1068675D01*
X16864Y1072447D01*
X18906Y1077376D01*
X18906Y1082711D01*
X16864Y1087639D01*
X13092Y1091412D01*
X8163Y1093453D01*
X2828Y1093453D01*
X1981Y1093102D01*
X576Y1092817D01*
X31Y1092923D01*
X-6242Y1092923D01*
X-6242Y1084581D01*
X-19624Y1084581D01*
X-19624Y1083836D01*
X-18470Y1081050D01*
X-16338Y1078917D01*
X-13552Y1077763D01*
X-10580Y1077763D01*
X-9201Y1077500D01*
X-7950Y1076686D01*
X-7116Y1075448D01*
X-5873Y1072447D01*
X-2100Y1068675D01*
X2828Y1066633D01*
G37*
G36*
X-19624Y1086105D02*
X-7766Y1086105D01*
X-7766Y1092923D01*
X-13552Y1092923D01*
X-16338Y1091769D01*
X-18470Y1089637D01*
X-19624Y1086851D01*
X-19624Y1086105D01*
G37*
G36*
X-65742Y1081363D02*
X-59957Y1081363D01*
X-57171Y1082517D01*
X-55038Y1084650D01*
X-53884Y1087436D01*
X-53884Y1088181D01*
X-65742Y1088181D01*
X-65742Y1081363D01*
G37*
G36*
X77340Y1040762D02*
X86738Y1040762D01*
X86738Y1050160D01*
X83292Y1050160D01*
X77340Y1044208D01*
X77340Y1040762D01*
G37*
G36*
X88262Y1040762D02*
X97660Y1040762D01*
X97660Y1044208D01*
X91708Y1050160D01*
X88262Y1050160D01*
X88262Y1040762D01*
G37*
G36*
X88262Y1029840D02*
X91708Y1029840D01*
X97660Y1035792D01*
X97660Y1039238D01*
X88262Y1039238D01*
X88262Y1029840D01*
G37*
G36*
X83292Y1029840D02*
X86738Y1029840D01*
X86738Y1039238D01*
X77340Y1039238D01*
X77340Y1035792D01*
X83292Y1029840D01*
G37*
G36*
X602220Y1018062D02*
X610038Y1018062D01*
X610038Y1025880D01*
X609093Y1025880D01*
X605940Y1024574D01*
X603526Y1022160D01*
X602220Y1019007D01*
X602220Y1018062D01*
G37*
G36*
X471274Y1008456D02*
X482450Y1008456D01*
X482450Y1010069D01*
X480633Y1014456D01*
X477274Y1017815D01*
X472887Y1019632D01*
X471274Y1019632D01*
X471274Y1008456D01*
G37*
G36*
X393550Y1008456D02*
X404726Y1008456D01*
X404726Y1019632D01*
X403113Y1019632D01*
X398726Y1017815D01*
X395367Y1014456D01*
X393550Y1010069D01*
X393550Y1008456D01*
G37*
G36*
X611562Y1008720D02*
X612507Y1008720D01*
X615660Y1010026D01*
X618074Y1012440D01*
X619380Y1015593D01*
X619380Y1016538D01*
X611562Y1016538D01*
X611562Y1008720D01*
G37*
G36*
X609093Y1008720D02*
X610038Y1008720D01*
X610038Y1016538D01*
X602220Y1016538D01*
X602220Y1015593D01*
X603526Y1012440D01*
X605940Y1010026D01*
X609093Y1008720D01*
G37*
G36*
X-19624Y1003505D02*
X-7766Y1003505D01*
X-7766Y1010323D01*
X-13552Y1010323D01*
X-16338Y1009169D01*
X-18470Y1007037D01*
X-19624Y1004251D01*
X-19624Y1003505D01*
G37*
G36*
X-6242Y1003505D02*
X5616Y1003505D01*
X5616Y1004251D01*
X5279Y1005063D01*
X5018Y1006543D01*
X4996Y1006543D01*
X4996Y1008947D01*
X4149Y1008737D01*
X2684Y1009022D01*
X-457Y1010323D01*
X-6242Y1010323D01*
X-6242Y1003505D01*
G37*
G36*
X471274Y995756D02*
X472887Y995756D01*
X477274Y997573D01*
X480633Y1000932D01*
X482450Y1005319D01*
X482450Y1006932D01*
X471274Y1006932D01*
X471274Y995756D01*
G37*
G36*
X403113Y995756D02*
X404726Y995756D01*
X404726Y1006932D01*
X393550Y1006932D01*
X393550Y1005319D01*
X395367Y1000932D01*
X398726Y997573D01*
X403113Y995756D01*
G37*
G36*
X-65742Y999905D02*
X-53884Y999905D01*
X-53884Y1000651D01*
X-55038Y1003437D01*
X-57171Y1005569D01*
X-59957Y1006723D01*
X-65742Y1006723D01*
X-65742Y999905D01*
G37*
G36*
X-13552Y995163D02*
X-7766Y995163D01*
X-7766Y1001981D01*
X-19624Y1001981D01*
X-19624Y1001236D01*
X-18470Y998450D01*
X-16338Y996317D01*
X-13552Y995163D01*
G37*
G36*
X-6242Y995163D02*
X-457Y995163D01*
X2329Y996317D01*
X4462Y998450D01*
X5616Y1001236D01*
X5616Y1001981D01*
X-6242Y1001981D01*
X-6242Y995163D01*
G37*
G36*
X609295Y984336D02*
X612305Y984336D01*
X615085Y985488D01*
X617212Y987615D01*
X618364Y990395D01*
X618364Y993405D01*
X617212Y996185D01*
X615085Y998312D01*
X612305Y999464D01*
X609295Y999464D01*
X606515Y998312D01*
X604388Y996185D01*
X603236Y993405D01*
X603236Y990395D01*
X604388Y987615D01*
X606515Y985488D01*
X609295Y984336D01*
G37*
G36*
X-65742Y991563D02*
X-59957Y991563D01*
X-57171Y992717D01*
X-55038Y994850D01*
X-53884Y997636D01*
X-53884Y998381D01*
X-65742Y998381D01*
X-65742Y991563D01*
G37*
G36*
X609295Y958936D02*
X612305Y958936D01*
X615085Y960088D01*
X617212Y962215D01*
X618364Y964995D01*
X618364Y968005D01*
X617212Y970785D01*
X615085Y972912D01*
X612305Y974064D01*
X609295Y974064D01*
X606515Y972912D01*
X604388Y970785D01*
X603236Y968005D01*
X603236Y964995D01*
X604388Y962215D01*
X606515Y960088D01*
X609295Y958936D01*
G37*
G36*
X-40205Y909460D02*
X98005Y909460D01*
X98939Y909847D01*
X101350Y912258D01*
X102539Y913059D01*
X104001Y913356D01*
X111788Y913356D01*
X117144Y918712D01*
X117144Y926288D01*
X111788Y931644D01*
X108289Y931644D01*
X106994Y931875D01*
X105724Y932659D01*
X104860Y933877D01*
X104540Y935334D01*
X104814Y936801D01*
X105638Y938046D01*
X120929Y953337D01*
X122063Y954114D01*
X123521Y954434D01*
X124988Y954161D01*
X126203Y953356D01*
X133788Y953356D01*
X139144Y958712D01*
X139144Y966288D01*
X133788Y971644D01*
X126212Y971644D01*
X120856Y966288D01*
X120856Y962001D01*
X120582Y960594D01*
X119758Y959350D01*
X84546Y924138D01*
X83357Y923337D01*
X81895Y923040D01*
X8462Y923040D01*
X7166Y923271D01*
X5896Y924055D01*
X5032Y925273D01*
X4712Y926730D01*
X4986Y928197D01*
X5810Y929442D01*
X8660Y932292D01*
X8660Y935738D01*
X-11660Y935738D01*
X-11660Y932292D01*
X-8810Y929442D01*
X-8057Y928362D01*
X-7714Y926910D01*
X-7964Y925438D01*
X-8768Y924181D01*
X-9999Y923337D01*
X-11462Y923040D01*
X-18406Y923040D01*
X-19758Y923292D01*
X-21015Y924096D01*
X-21859Y925327D01*
X-22156Y926790D01*
X-22156Y941439D01*
X-23548Y944800D01*
X-26120Y947372D01*
X-29481Y948764D01*
X-33119Y948764D01*
X-36480Y947372D01*
X-39052Y944800D01*
X-40535Y941218D01*
X-41245Y940109D01*
X-42455Y939236D01*
X-43910Y938904D01*
X-45380Y939166D01*
X-46630Y939980D01*
X-47465Y941218D01*
X-48948Y944800D01*
X-51520Y947372D01*
X-54881Y948764D01*
X-58519Y948764D01*
X-61880Y947372D01*
X-64452Y944800D01*
X-65844Y941439D01*
X-65844Y922561D01*
X-64452Y919200D01*
X-61880Y916628D01*
X-58519Y915236D01*
X-54881Y915236D01*
X-51290Y916724D01*
X-49914Y917009D01*
X-48447Y916735D01*
X-47203Y915911D01*
X-41139Y909847D01*
X-40205Y909460D01*
G37*
G36*
X393450Y946668D02*
X404626Y946668D01*
X404626Y957844D01*
X403013Y957844D01*
X398626Y956027D01*
X395267Y952668D01*
X393450Y948281D01*
X393450Y946668D01*
G37*
G36*
X471174Y946668D02*
X482350Y946668D01*
X482350Y948281D01*
X480533Y952668D01*
X477174Y956027D01*
X472787Y957844D01*
X471174Y957844D01*
X471174Y946668D01*
G37*
G36*
X-11660Y937262D02*
X-2262Y937262D01*
X-2262Y946660D01*
X-5708Y946660D01*
X-11660Y940708D01*
X-11660Y937262D01*
G37*
G36*
X-738Y937262D02*
X8660Y937262D01*
X8660Y940708D01*
X2708Y946660D01*
X-738Y946660D01*
X-738Y937262D01*
G37*
G36*
X471174Y933968D02*
X472787Y933968D01*
X477174Y935785D01*
X480533Y939144D01*
X482350Y943531D01*
X482350Y945144D01*
X471174Y945144D01*
X471174Y933968D01*
G37*
G36*
X403013Y933968D02*
X404626Y933968D01*
X404626Y945144D01*
X393450Y945144D01*
X393450Y943531D01*
X395267Y939144D01*
X398626Y935785D01*
X403013Y933968D01*
G37*
G36*
X689795Y858736D02*
X692605Y858736D01*
X695201Y859811D01*
X697189Y861799D01*
X698264Y864395D01*
X698264Y867205D01*
X697189Y869801D01*
X695201Y871789D01*
X692605Y872864D01*
X689795Y872864D01*
X687199Y871789D01*
X685211Y869801D01*
X684136Y867205D01*
X684136Y864395D01*
X685211Y861799D01*
X687199Y859811D01*
X689795Y858736D01*
G37*
G36*
X659629Y858736D02*
X671971Y858736D01*
X672864Y859629D01*
X672864Y871971D01*
X671971Y872864D01*
X659629Y872864D01*
X658736Y871971D01*
X658736Y859629D01*
X659629Y858736D01*
G37*
G36*
X844395Y858736D02*
X847205Y858736D01*
X849801Y859811D01*
X851789Y861799D01*
X852864Y864395D01*
X852864Y867205D01*
X851789Y869801D01*
X849801Y871789D01*
X847205Y872864D01*
X844395Y872864D01*
X841799Y871789D01*
X839811Y869801D01*
X838736Y867205D01*
X838736Y864395D01*
X839811Y861799D01*
X841799Y859811D01*
X844395Y858736D01*
G37*
G36*
X818995Y858736D02*
X821805Y858736D01*
X824401Y859811D01*
X826389Y861799D01*
X827464Y864395D01*
X827464Y867205D01*
X826389Y869801D01*
X824401Y871789D01*
X821805Y872864D01*
X818995Y872864D01*
X816399Y871789D01*
X814411Y869801D01*
X813336Y867205D01*
X813336Y864395D01*
X814411Y861799D01*
X816399Y859811D01*
X818995Y858736D01*
G37*
G36*
X167340Y858262D02*
X176738Y858262D01*
X176738Y867660D01*
X173292Y867660D01*
X167340Y861708D01*
X167340Y858262D01*
G37*
G36*
X178262Y858262D02*
X187660Y858262D01*
X187660Y861708D01*
X181708Y867660D01*
X178262Y867660D01*
X178262Y858262D01*
G37*
G36*
X178262Y847340D02*
X181708Y847340D01*
X187660Y853292D01*
X187660Y856738D01*
X178262Y856738D01*
X178262Y847340D01*
G37*
G36*
X173292Y847340D02*
X176738Y847340D01*
X176738Y856738D01*
X167340Y856738D01*
X167340Y853292D01*
X173292Y847340D01*
G37*
G36*
X689795Y833336D02*
X692605Y833336D01*
X695201Y834411D01*
X697189Y836399D01*
X698264Y838995D01*
X698264Y841805D01*
X697189Y844401D01*
X695201Y846389D01*
X692605Y847464D01*
X689795Y847464D01*
X687199Y846389D01*
X685211Y844401D01*
X684136Y841805D01*
X684136Y838995D01*
X685211Y836399D01*
X687199Y834411D01*
X689795Y833336D01*
G37*
G36*
X664395Y833336D02*
X667205Y833336D01*
X669801Y834411D01*
X671789Y836399D01*
X672864Y838995D01*
X672864Y841805D01*
X671789Y844401D01*
X669801Y846389D01*
X667205Y847464D01*
X664395Y847464D01*
X661799Y846389D01*
X659811Y844401D01*
X658736Y841805D01*
X658736Y838995D01*
X659811Y836399D01*
X661799Y834411D01*
X664395Y833336D01*
G37*
G36*
X818995Y833336D02*
X821805Y833336D01*
X824401Y834411D01*
X826389Y836399D01*
X827464Y838995D01*
X827464Y841805D01*
X826389Y844401D01*
X824401Y846389D01*
X821805Y847464D01*
X818995Y847464D01*
X816399Y846389D01*
X814411Y844401D01*
X813336Y841805D01*
X813336Y838995D01*
X814411Y836399D01*
X816399Y834411D01*
X818995Y833336D01*
G37*
G36*
X837720Y815762D02*
X845038Y815762D01*
X845038Y823080D01*
X844193Y823080D01*
X841223Y821850D01*
X838950Y819577D01*
X837720Y816607D01*
X837720Y815762D01*
G37*
G36*
X846562Y815762D02*
X853880Y815762D01*
X853880Y816607D01*
X852650Y819577D01*
X850377Y821850D01*
X847407Y823080D01*
X846562Y823080D01*
X846562Y815762D01*
G37*
G36*
X664395Y807936D02*
X667205Y807936D01*
X669801Y809011D01*
X671789Y810999D01*
X672864Y813595D01*
X672864Y816405D01*
X671789Y819001D01*
X669801Y820989D01*
X667205Y822064D01*
X664395Y822064D01*
X661799Y820989D01*
X659811Y819001D01*
X658736Y816405D01*
X658736Y813595D01*
X659811Y810999D01*
X661799Y809011D01*
X664395Y807936D01*
G37*
G36*
X818995Y807936D02*
X821805Y807936D01*
X824401Y809011D01*
X826389Y810999D01*
X827464Y813595D01*
X827464Y816405D01*
X826389Y819001D01*
X824401Y820989D01*
X821805Y822064D01*
X818995Y822064D01*
X816399Y820989D01*
X814411Y819001D01*
X813336Y816405D01*
X813336Y813595D01*
X814411Y810999D01*
X816399Y809011D01*
X818995Y807936D01*
G37*
G36*
X689795Y807936D02*
X692605Y807936D01*
X695201Y809011D01*
X697189Y810999D01*
X698264Y813595D01*
X698264Y816405D01*
X697189Y819001D01*
X695201Y820989D01*
X692605Y822064D01*
X689795Y822064D01*
X687199Y820989D01*
X685211Y819001D01*
X684136Y816405D01*
X684136Y813595D01*
X685211Y810999D01*
X687199Y809011D01*
X689795Y807936D01*
G37*
G36*
X844193Y806920D02*
X845038Y806920D01*
X845038Y814238D01*
X837720Y814238D01*
X837720Y813393D01*
X838950Y810423D01*
X841223Y808150D01*
X844193Y806920D01*
G37*
G36*
X846562Y806920D02*
X847407Y806920D01*
X850377Y808150D01*
X852650Y810423D01*
X853880Y813393D01*
X853880Y814238D01*
X846562Y814238D01*
X846562Y806920D01*
G37*
G36*
X728995Y757336D02*
X731805Y757336D01*
X734401Y758411D01*
X736389Y760399D01*
X737464Y762995D01*
X737464Y765805D01*
X736389Y768401D01*
X734401Y770389D01*
X731805Y771464D01*
X728995Y771464D01*
X726399Y770389D01*
X724411Y768401D01*
X723336Y765805D01*
X723336Y762995D01*
X724411Y760399D01*
X726399Y758411D01*
X728995Y757336D01*
G37*
G36*
X754395Y757336D02*
X757205Y757336D01*
X759801Y758411D01*
X761789Y760399D01*
X762864Y762995D01*
X762864Y765805D01*
X761789Y768401D01*
X759801Y770389D01*
X757205Y771464D01*
X754395Y771464D01*
X751799Y770389D01*
X749811Y768401D01*
X748736Y765805D01*
X748736Y762995D01*
X749811Y760399D01*
X751799Y758411D01*
X754395Y757336D01*
G37*
G36*
X779795Y757336D02*
X782605Y757336D01*
X785201Y758411D01*
X787189Y760399D01*
X788264Y762995D01*
X788264Y765805D01*
X787189Y768401D01*
X785201Y770389D01*
X782605Y771464D01*
X779795Y771464D01*
X777199Y770389D01*
X775211Y768401D01*
X774136Y765805D01*
X774136Y762995D01*
X775211Y760399D01*
X777199Y758411D01*
X779795Y757336D01*
G37*
G36*
X189640Y740762D02*
X199038Y740762D01*
X199038Y757780D01*
X197779Y757780D01*
X194045Y756233D01*
X191187Y753375D01*
X189640Y749641D01*
X189640Y740762D01*
G37*
G36*
X422340Y613262D02*
X431738Y613262D01*
X431738Y622660D01*
X428292Y622660D01*
X422340Y616708D01*
X422340Y613262D01*
G37*
G36*
X433262Y613262D02*
X442660Y613262D01*
X442660Y616708D01*
X436708Y622660D01*
X433262Y622660D01*
X433262Y613262D01*
G37*
G36*
X433262Y602340D02*
X436708Y602340D01*
X442660Y608292D01*
X442660Y611738D01*
X433262Y611738D01*
X433262Y602340D01*
G37*
G36*
X428292Y602340D02*
X431738Y602340D01*
X431738Y611738D01*
X422340Y611738D01*
X422340Y608292D01*
X428292Y602340D01*
G37*
%LPD*%
D10*
X186100Y1063400D03*
X211500Y1038000D03*
X236900Y1063400D03*
D11*
X610800Y1169700D03*
D12*
X610800Y1144300D03*
X610800Y1118900D03*
X610800Y1093500D03*
X610800Y1068100D03*
X610800Y1042700D03*
X610800Y1017300D03*
X610800Y991900D03*
X610800Y966500D03*
D13*
X665800Y865800D03*
D14*
X665800Y840400D03*
X665800Y815000D03*
X691200Y865800D03*
X691200Y840400D03*
X691200Y815000D03*
X730400Y764400D03*
X755800Y764400D03*
X781200Y764400D03*
X820400Y815000D03*
X820400Y840400D03*
X820400Y865800D03*
X845800Y815000D03*
X845800Y840400D03*
X845800Y865800D03*
D15*
X-61464Y1088943D02*
X-71544Y1088943D01*
X-71544Y999143D02*
X-61464Y999143D01*
X-12044Y1002743D02*
X-1964Y1002743D01*
X-1964Y1085343D02*
X-12044Y1085343D01*
D16*
X405388Y945906D03*
X470412Y945906D03*
X405388Y900694D03*
X470412Y900694D03*
X470512Y1007694D03*
X405488Y1007694D03*
X470512Y1052906D03*
X405488Y1052906D03*
D17*
X87500Y1040000D03*
X-1500Y936500D03*
D18*
X-56700Y939620D02*
X-56700Y924380D01*
X-31300Y924380D02*
X-31300Y939620D01*
D17*
X108000Y922500D03*
X130000Y962500D03*
X480500Y1147500D03*
X120000Y1002500D03*
X92500Y800000D03*
X177500Y857500D03*
D18*
X199800Y747620D02*
X199800Y732380D01*
X225200Y732380D02*
X225200Y747620D01*
D17*
X157500Y745000D03*
X130000Y885000D03*
X500000Y797500D03*
X432500Y612500D03*
X510500Y1147500D03*
D19*
X655000Y515000D03*
D20*
X655000Y555000D03*
X655000Y535000D03*
X655000Y575000D03*
X655000Y595000D03*
D19*
X675000Y632500D03*
D20*
X675000Y672500D03*
X675000Y652500D03*
X675000Y692500D03*
X675000Y712500D03*
D17*
X519500Y878500D03*
D18*
X394700Y1113880D02*
X394700Y1129120D01*
X369300Y1129120D02*
X369300Y1113880D01*
D17*
X275000Y677500D03*
D18*
X431700Y806380D02*
X431700Y821620D01*
X406300Y821620D02*
X406300Y806380D01*
D17*
X940000Y515000D03*
X267500Y860000D03*
X267500Y825000D03*
X233000Y1138000D03*
X174500Y1172000D03*
X175500Y1256500D03*
X226500Y1256500D03*
D16*
X-40700Y1141000D03*
X-15300Y1141000D03*
D21*
X4000Y1201700D03*
X4000Y1176300D03*
D16*
X65700Y1141000D03*
X40300Y1141000D03*
D21*
X4000Y1266700D03*
X4000Y1241300D03*
D16*
X99700Y1174000D03*
X74300Y1174000D03*
X290000Y1229700D03*
X290000Y1204300D03*
D21*
X330000Y1256300D03*
X330000Y1281700D03*
X563000Y1253300D03*
X563000Y1278700D03*
D16*
X516000Y1250300D03*
X516000Y1275700D03*
D21*
X433000Y1255300D03*
X433000Y1280700D03*
X481700Y1205000D03*
X456300Y1205000D03*
D16*
X551700Y1209000D03*
X526300Y1209000D03*
D22*
X826000Y1265300D03*
X851000Y1265300D03*
D18*
X731900Y724620D02*
X731900Y709380D01*
X757300Y709380D02*
X757300Y724620D01*
X782700Y724620D02*
X782700Y709380D01*
X808100Y709380D02*
X808100Y724620D01*
D23*
X87500Y1040000D02*
X87500Y1097500D01*
X-1500Y951000D02*
X-1500Y936500D01*
X-1500Y951000D02*
X25000Y977500D01*
X87500Y1040000D01*
D24*
X181594Y945906D02*
X405388Y945906D01*
X181594Y945906D02*
X143283Y984217D01*
D23*
X177500Y857500D02*
X199800Y835200D01*
X199800Y740000D01*
X126952Y756952D02*
X-3763Y756952D01*
X405000Y640000D02*
X432500Y612500D01*
X405000Y640000D02*
X224997Y640000D01*
X25000Y977500D02*
X-35000Y977500D01*
D24*
X87500Y1040000D02*
X88356Y1039144D01*
X88356Y984217D02*
X143283Y984217D01*
X-7004Y1002743D02*
X-35000Y1002743D01*
X-62904Y1002743D01*
X-66504Y999143D01*
X-66504Y1088943D01*
X-35000Y1002743D02*
X-35000Y977500D01*
X88356Y984217D02*
X88356Y1039144D01*
X-7004Y1085343D02*
X-62904Y1085343D01*
X-66504Y1088943D01*
D23*
X177500Y857500D02*
X177500Y807500D01*
X126952Y756952D01*
X128356Y755548D02*
X128356Y736641D01*
X128356Y755548D02*
X126952Y756952D01*
X128356Y736641D02*
X224997Y640000D01*
X-35000Y977500D02*
X-60323Y977500D01*
X-74840Y962983D01*
X-74840Y828029D01*
X-3763Y756952D01*
D25*
X456300Y1205000D02*
X456300Y1280000D01*
D23*
X478817Y1280000D01*
X491222Y1267595D01*
X491222Y1231778D01*
X526300Y1209000D02*
X526300Y1185000D01*
X526300Y1163300D01*
X510500Y1147500D01*
X514000Y1209000D02*
X526300Y1209000D01*
X514000Y1209000D02*
X491222Y1231778D01*
X87500Y1097500D02*
X70922Y1114078D01*
X42000Y1114078D01*
D25*
X42000Y1139300D02*
X40300Y1141000D01*
X42000Y1139300D02*
X42000Y1114078D01*
X40300Y1141000D02*
X-15300Y1141000D01*
D23*
X745700Y1185000D02*
X826000Y1265300D01*
X745700Y1185000D02*
X526300Y1185000D01*
X-66504Y1089796D02*
X-66504Y1088943D01*
D26*
X470512Y1007694D02*
X510500Y1047682D01*
X510500Y1147500D01*
D23*
X92500Y817500D02*
X92500Y800000D01*
X519500Y817000D02*
X519500Y878500D01*
X519500Y817000D02*
X500000Y797500D01*
X845800Y840400D02*
X857900Y840400D01*
X867500Y850000D01*
X867500Y885000D01*
D24*
X865000Y887500D01*
D23*
X580500Y887500D01*
X528500Y887500D01*
X519500Y878500D01*
X580500Y1169700D02*
X610800Y1169700D01*
X580500Y1169700D02*
X580500Y887500D01*
X210443Y894557D02*
X169557Y894557D01*
X92500Y817500D01*
X287894Y1139606D02*
X287873Y1139627D01*
X287894Y1139606D02*
X337500Y1090000D01*
X940000Y892500D02*
X940000Y515000D01*
X940000Y892500D02*
X662800Y1169700D01*
X610800Y1169700D01*
X287894Y1139606D02*
X150788Y1002500D01*
X120000Y1002500D01*
X225200Y879800D02*
X225200Y740000D01*
X225200Y879800D02*
X210443Y894557D01*
X480500Y1147500D02*
X480500Y1150378D01*
X298624Y1150378D01*
X287873Y1139627D01*
D26*
X480500Y1203800D02*
X481700Y1205000D01*
X480500Y1203800D02*
X480500Y1147500D01*
D23*
X428500Y890289D02*
X418011Y879800D01*
X225200Y879800D01*
X337500Y1090000D02*
X405911Y1090000D01*
X428500Y1067411D01*
X428500Y890289D01*
X226500Y1256500D02*
X175500Y1256500D01*
X174500Y1172000D02*
X214583Y1172000D01*
X233000Y1138000D01*
D27*
X130000Y885000D02*
X130000Y870500D01*
X71500Y812000D01*
X157500Y745000D02*
X190000Y712500D01*
X212500Y712500D01*
X212500Y866000D01*
X114094Y823431D02*
X114094Y792085D01*
X114094Y823431D02*
X169680Y879017D01*
X199483Y879017D01*
X212500Y866000D01*
X71500Y812000D02*
X71500Y789500D01*
X81000Y780000D01*
X102009Y780000D01*
X114094Y792085D01*
X275000Y677500D02*
X297500Y655000D01*
X450000Y655000D01*
X617500Y487500D01*
X707500Y487500D01*
X707500Y640000D01*
X675000Y672500D01*
X267500Y825000D02*
X267500Y860000D01*
X431500Y850000D02*
X431500Y814200D01*
X431700Y814000D01*
X431500Y850000D02*
X372500Y850000D01*
X372500Y680000D01*
X388000Y664500D01*
X488000Y664500D01*
X617500Y535000D01*
X655000Y535000D01*
X406300Y703700D02*
X406300Y814000D01*
X406300Y703700D02*
X435000Y675000D01*
X566000Y675000D01*
X646000Y595000D02*
X655000Y595000D01*
X646000Y595000D02*
X566000Y675000D01*
X-39700Y912000D02*
X-56700Y929000D01*
X-56700Y932000D01*
X97500Y912000D02*
X108000Y922500D01*
X97500Y912000D02*
X-39700Y912000D01*
X-22000Y920500D02*
X-31300Y929800D01*
X-31300Y932000D01*
X-22000Y920500D02*
X84500Y920500D01*
X125750Y961750D01*
X125000Y962500D01*
X130000Y962500D01*
X591000Y1068100D02*
X610800Y1068100D01*
X868123Y895040D02*
X875040Y888123D01*
X591000Y941166D02*
X591000Y1068100D01*
X591000Y941166D02*
X637126Y895040D01*
X868123Y895040D01*
X875040Y888123D02*
X875040Y758569D01*
X855807Y739336D01*
X728248Y739336D01*
X701412Y712500D02*
X675000Y712500D01*
X701412Y712500D02*
X728248Y739336D01*
X880596Y756096D02*
X880596Y889596D01*
X753904Y899596D02*
X610800Y1042700D01*
X753904Y899596D02*
X870596Y899596D01*
X880596Y889596D01*
X689720Y696220D02*
X686000Y692500D01*
X675000Y692500D01*
X857280Y732780D02*
X880596Y756096D01*
X857280Y732780D02*
X840092Y732780D01*
X827860Y707172D02*
X816908Y696220D01*
X827860Y707172D02*
X827860Y720548D01*
X840092Y732780D01*
X816908Y696220D02*
X689720Y696220D01*
X663500Y622500D02*
X646500Y622500D01*
X456000Y813000D01*
X411500Y1121500D02*
X394700Y1121500D01*
X411500Y1121500D02*
X456000Y1077000D01*
X456000Y813000D01*
X663500Y622500D02*
X682000Y604000D01*
X682000Y573000D01*
X664000Y555000D01*
X655000Y555000D01*
X673000Y601000D02*
X659000Y615000D01*
X639500Y615000D01*
X447860Y806640D01*
X447860Y1069111D01*
X416971Y1100000D01*
X382800Y1100000D01*
X369300Y1113500D01*
X369300Y1121500D01*
X655000Y575000D02*
X664971Y575000D01*
X673000Y583029D01*
X673000Y601000D01*
M02*
