G04 EAGLE Gerber RS-274X export*
G75*
%MOMM*%
%FSLAX34Y34*%
%LPD*%
%INTop Copper*%
%IPPOS*%
%AMOC8*
5,1,8,0,0,1.08239X$1,22.5*%
G01*
G04 Define Apertures*
%ADD10R,3.150000X4.780000*%
%ADD11R,0.970200X0.920900*%
%ADD12R,2.392000X1.565300*%
%ADD13R,1.210300X0.875700*%
%ADD14C,1.700000*%
%ADD15R,1.208000X1.208000*%
%ADD16C,1.208000*%
%ADD17R,1.108000X1.108000*%
%ADD18C,1.108000*%
%ADD19R,0.610000X1.600000*%
%ADD20R,3.510000X2.620000*%
%ADD21R,0.360000X1.260000*%
%ADD22R,1.600000X0.700000*%
%ADD23R,1.400000X1.200000*%
%ADD24R,1.400000X1.600000*%
%ADD25R,2.200000X1.200000*%
%ADD26C,0.152400*%
%ADD27R,1.874000X0.532600*%
%ADD28R,1.500000X1.000000*%
%ADD29R,1.500000X3.300000*%
%ADD30R,1.500000X0.900000*%
%ADD31R,0.900000X1.500000*%
%ADD32R,1.050000X1.050000*%
%ADD33R,1.200000X0.800000*%
%ADD34C,1.008000*%
%ADD35R,0.700000X0.300000*%
%ADD36R,1.711800X0.961800*%
%ADD37C,1.879600*%
%ADD38R,0.920900X0.970200*%
%ADD39R,1.565300X2.392000*%
%ADD40R,1.815300X1.164600*%
%ADD41P,1.64956X8X22.5*%
%ADD42C,1.524000*%
%ADD43R,1.524000X1.524000*%
%ADD44C,1.524000*%
%ADD45C,1.450000*%
%ADD46R,1.231200X3.370200*%
%ADD47R,3.370200X1.231200*%
%ADD48R,1.164600X1.815300*%
%ADD49C,1.508000*%
%ADD50C,0.300000*%
%ADD51C,0.600000*%
%ADD52C,0.550000*%
%ADD53C,0.950000*%
%ADD54C,1.000000*%
%ADD55C,0.400000*%
%ADD56C,0.800000*%
%ADD57C,0.750000*%
%ADD58C,0.200000*%
%ADD59C,0.650000*%
%ADD60C,0.350000*%
%ADD61C,0.700000*%
%ADD62C,0.500000*%
%ADD63C,0.203200*%
G36*
X705273Y483957D02*
X703810Y483660D01*
X-79090Y483660D01*
X-80442Y483912D01*
X-81699Y484716D01*
X-82543Y485947D01*
X-82840Y487410D01*
X-82840Y548171D01*
X-82599Y549495D01*
X-81804Y550759D01*
X-80580Y551613D01*
X-79120Y551921D01*
X-77655Y551636D01*
X-77168Y551434D01*
X-61675Y551434D01*
X-61675Y604314D01*
X-77168Y604314D01*
X-77655Y604113D01*
X-78970Y603829D01*
X-80442Y604079D01*
X-81699Y604884D01*
X-82543Y606115D01*
X-82840Y607577D01*
X-82840Y990666D01*
X-82609Y991962D01*
X-81825Y993232D01*
X-80608Y994095D01*
X-79150Y994415D01*
X-77683Y994142D01*
X-76438Y993318D01*
X-75838Y992717D01*
X-73052Y991563D01*
X-67266Y991563D01*
X-67266Y1006723D01*
X-73052Y1006723D01*
X-75838Y1005569D01*
X-76438Y1004969D01*
X-77518Y1004216D01*
X-78970Y1003873D01*
X-80442Y1004123D01*
X-81699Y1004927D01*
X-82543Y1006158D01*
X-82840Y1007621D01*
X-82840Y1080466D01*
X-82609Y1081762D01*
X-81825Y1083032D01*
X-80608Y1083895D01*
X-79150Y1084215D01*
X-77683Y1083942D01*
X-76438Y1083118D01*
X-75838Y1082517D01*
X-73052Y1081363D01*
X-67266Y1081363D01*
X-67266Y1096523D01*
X-73052Y1096523D01*
X-75838Y1095369D01*
X-76438Y1094769D01*
X-77518Y1094016D01*
X-78970Y1093673D01*
X-80442Y1093923D01*
X-81699Y1094727D01*
X-82543Y1095958D01*
X-82840Y1097421D01*
X-82840Y1306090D01*
X-82588Y1307442D01*
X-81784Y1308699D01*
X-80553Y1309543D01*
X-79090Y1309840D01*
X28860Y1309840D01*
X30156Y1309609D01*
X31426Y1308825D01*
X32290Y1307608D01*
X32610Y1306150D01*
X32336Y1304683D01*
X31512Y1303438D01*
X4646Y1276572D01*
X3457Y1275771D01*
X2505Y1275578D01*
X-970Y1274138D01*
X-2036Y1273072D01*
X-3225Y1272271D01*
X-4688Y1271974D01*
X-24049Y1271974D01*
X-25988Y1271171D01*
X-27471Y1269688D01*
X-28274Y1267749D01*
X-28274Y1227651D01*
X-27471Y1225713D01*
X-12610Y1210852D01*
X-11833Y1209718D01*
X-11512Y1208260D01*
X-11786Y1206793D01*
X-12610Y1205548D01*
X-45171Y1172988D01*
X-45974Y1171049D01*
X-45974Y1152725D01*
X-46248Y1151318D01*
X-47072Y1150074D01*
X-49959Y1147187D01*
X-51622Y1143172D01*
X-51622Y1138828D01*
X-49959Y1134813D01*
X-46887Y1131741D01*
X-42872Y1130078D01*
X-38528Y1130078D01*
X-34513Y1131741D01*
X-31321Y1134933D01*
X-30214Y1135699D01*
X-28759Y1136030D01*
X-27289Y1135768D01*
X-26039Y1134954D01*
X-25836Y1134653D01*
X-22062Y1130879D01*
X-17675Y1129062D01*
X-16062Y1129062D01*
X-16062Y1152938D01*
X-17675Y1152938D01*
X-22062Y1151121D01*
X-25760Y1147423D01*
X-25934Y1147153D01*
X-27152Y1146289D01*
X-28609Y1145969D01*
X-30077Y1146243D01*
X-31321Y1147067D01*
X-34328Y1150074D01*
X-35129Y1151263D01*
X-35426Y1152725D01*
X-35426Y1166262D01*
X-35152Y1167670D01*
X-34328Y1168914D01*
X-7914Y1195328D01*
X-6725Y1196129D01*
X-5262Y1196426D01*
X-4688Y1196426D01*
X-3280Y1196152D01*
X-2036Y1195328D01*
X-970Y1194262D01*
X2041Y1193014D01*
X3150Y1192305D01*
X4019Y1191101D01*
X4721Y1192180D01*
X5959Y1193014D01*
X8970Y1194262D01*
X11438Y1196730D01*
X12774Y1199955D01*
X12774Y1203445D01*
X11438Y1206670D01*
X8970Y1209138D01*
X5745Y1210474D01*
X4238Y1210474D01*
X2830Y1210748D01*
X1586Y1211572D01*
X-16628Y1229786D01*
X-17429Y1230975D01*
X-17726Y1232438D01*
X-17726Y1257676D01*
X-17474Y1259028D01*
X-16670Y1260285D01*
X-15439Y1261129D01*
X-13976Y1261426D01*
X-4688Y1261426D01*
X-3280Y1261152D01*
X-2036Y1260328D01*
X-970Y1259262D01*
X2041Y1258014D01*
X3150Y1257305D01*
X4019Y1256101D01*
X4721Y1257180D01*
X5959Y1258014D01*
X9402Y1259441D01*
X10837Y1259726D01*
X114875Y1259726D01*
X116227Y1259474D01*
X117484Y1258670D01*
X118328Y1257439D01*
X118625Y1255976D01*
X118625Y1249908D01*
X119518Y1249015D01*
X154482Y1249015D01*
X155790Y1250323D01*
X156979Y1251124D01*
X158442Y1251421D01*
X166094Y1251421D01*
X167502Y1251147D01*
X168746Y1250323D01*
X171712Y1247356D01*
X179288Y1247356D01*
X184644Y1252712D01*
X184644Y1260288D01*
X179288Y1265644D01*
X171712Y1265644D01*
X169136Y1263067D01*
X167947Y1262266D01*
X166484Y1261969D01*
X158442Y1261969D01*
X157034Y1262243D01*
X155790Y1263067D01*
X154482Y1264375D01*
X138332Y1264375D01*
X136924Y1264649D01*
X135680Y1265473D01*
X131683Y1269471D01*
X129744Y1270274D01*
X25854Y1270274D01*
X24558Y1270505D01*
X23288Y1271289D01*
X22424Y1272507D01*
X22104Y1273964D01*
X22378Y1275431D01*
X23202Y1276676D01*
X37387Y1290861D01*
X38576Y1291662D01*
X40039Y1291959D01*
X318041Y1291959D01*
X319364Y1291718D01*
X320628Y1290923D01*
X321482Y1289699D01*
X321790Y1288239D01*
X321505Y1286774D01*
X320210Y1283647D01*
X320210Y1282462D01*
X339790Y1282462D01*
X339790Y1283647D01*
X338495Y1286774D01*
X338211Y1288089D01*
X338462Y1289561D01*
X339266Y1290818D01*
X340497Y1291662D01*
X341959Y1291959D01*
X364651Y1291959D01*
X366003Y1291707D01*
X367260Y1290903D01*
X368104Y1289672D01*
X368401Y1288209D01*
X368401Y1284912D01*
X390599Y1284912D01*
X390599Y1288209D01*
X390851Y1289561D01*
X391655Y1290818D01*
X392886Y1291662D01*
X394349Y1291959D01*
X421455Y1291959D01*
X422779Y1291718D01*
X424042Y1290923D01*
X424896Y1289699D01*
X425205Y1288239D01*
X424919Y1286774D01*
X423210Y1282647D01*
X423210Y1281462D01*
X442790Y1281462D01*
X442790Y1282647D01*
X441081Y1286774D01*
X440797Y1288089D01*
X441047Y1289561D01*
X441852Y1290818D01*
X443083Y1291662D01*
X444545Y1291959D01*
X506323Y1291959D01*
X507619Y1291728D01*
X508889Y1290944D01*
X509752Y1289727D01*
X510072Y1288269D01*
X509799Y1286802D01*
X508974Y1285557D01*
X505879Y1282462D01*
X504062Y1278075D01*
X504062Y1276462D01*
X527938Y1276462D01*
X527938Y1278075D01*
X526121Y1282462D01*
X523121Y1285462D01*
X522356Y1286569D01*
X522023Y1288024D01*
X522285Y1289493D01*
X523099Y1290744D01*
X524337Y1291578D01*
X525802Y1291864D01*
X553082Y1291651D01*
X554348Y1291420D01*
X555618Y1290636D01*
X556482Y1289418D01*
X556802Y1287961D01*
X556528Y1286493D01*
X555704Y1285249D01*
X554700Y1284246D01*
X553210Y1280647D01*
X553210Y1279462D01*
X572790Y1279462D01*
X572790Y1280647D01*
X571300Y1284246D01*
X570453Y1285092D01*
X569688Y1286199D01*
X569355Y1287654D01*
X569617Y1289123D01*
X570431Y1290374D01*
X571669Y1291208D01*
X573134Y1291494D01*
X603931Y1291253D01*
X605225Y1291012D01*
X606489Y1290218D01*
X607343Y1288994D01*
X607651Y1287533D01*
X607366Y1286068D01*
X606760Y1284605D01*
X606760Y1279862D01*
X626840Y1279862D01*
X626840Y1284605D01*
X626318Y1285866D01*
X626033Y1287211D01*
X626295Y1288680D01*
X627109Y1289931D01*
X628347Y1290766D01*
X629812Y1291051D01*
X835808Y1289442D01*
X837186Y1289168D01*
X838430Y1288344D01*
X843378Y1283396D01*
X844179Y1282207D01*
X844476Y1280744D01*
X844476Y1273148D01*
X844202Y1271740D01*
X843378Y1270496D01*
X843316Y1270434D01*
X842514Y1268499D01*
X841805Y1267391D01*
X840595Y1266517D01*
X839140Y1266185D01*
X837670Y1266447D01*
X836419Y1267262D01*
X835585Y1268499D01*
X834545Y1271010D01*
X831710Y1273845D01*
X828005Y1275380D01*
X826762Y1275380D01*
X826762Y1255220D01*
X828005Y1255220D01*
X831710Y1256755D01*
X834545Y1259590D01*
X835585Y1262101D01*
X836295Y1263209D01*
X837505Y1264083D01*
X838960Y1264415D01*
X840430Y1264153D01*
X841680Y1263338D01*
X842514Y1262101D01*
X843316Y1260166D01*
X845866Y1257616D01*
X849197Y1256236D01*
X852803Y1256236D01*
X856134Y1257616D01*
X858684Y1260166D01*
X860064Y1263497D01*
X860064Y1267103D01*
X858684Y1270434D01*
X858622Y1270496D01*
X857821Y1271685D01*
X857524Y1273148D01*
X857524Y1286298D01*
X856531Y1288696D01*
X844709Y1300517D01*
X844689Y1300538D01*
X843787Y1301453D01*
X842601Y1301945D01*
X842574Y1301956D01*
X840966Y1302637D01*
X839907Y1303315D01*
X839024Y1304518D01*
X838680Y1305970D01*
X838930Y1307442D01*
X839735Y1308699D01*
X840966Y1309543D01*
X842428Y1309840D01*
X966090Y1309840D01*
X967442Y1309588D01*
X968699Y1308784D01*
X969543Y1307553D01*
X969840Y1306090D01*
X969840Y487410D01*
X969588Y486058D01*
X968784Y484801D01*
X967553Y483957D01*
X966090Y483660D01*
X906390Y483660D01*
X905038Y483912D01*
X903781Y484716D01*
X902937Y485947D01*
X902640Y487410D01*
X902640Y492398D01*
X882560Y492398D01*
X882560Y487410D01*
X882308Y486058D01*
X881504Y484801D01*
X880273Y483957D01*
X878810Y483660D01*
X731390Y483660D01*
X730038Y483912D01*
X728781Y484716D01*
X727937Y485947D01*
X727640Y487410D01*
X727640Y492398D01*
X707560Y492398D01*
X707560Y487410D01*
X707308Y486058D01*
X706504Y484801D01*
X705273Y483957D01*
G37*
%LPC*%
G36*
X370436Y1276801D02*
X378738Y1276801D01*
X378738Y1283388D01*
X368401Y1283388D01*
X368401Y1278836D01*
X368788Y1277902D01*
X369502Y1277188D01*
X370436Y1276801D01*
G37*
G36*
X380262Y1276801D02*
X388564Y1276801D01*
X389498Y1277188D01*
X390212Y1277902D01*
X390599Y1278836D01*
X390599Y1283388D01*
X380262Y1283388D01*
X380262Y1276801D01*
G37*
G36*
X329150Y1271205D02*
X330019Y1270002D01*
X330721Y1271081D01*
X331959Y1271915D01*
X335546Y1273400D01*
X338300Y1276154D01*
X339790Y1279753D01*
X339790Y1280938D01*
X320210Y1280938D01*
X320210Y1279753D01*
X321700Y1276154D01*
X324454Y1273400D01*
X328041Y1271915D01*
X329150Y1271205D01*
G37*
G36*
X882560Y493922D02*
X902640Y493922D01*
X902640Y496586D01*
X902892Y497938D01*
X903696Y499195D01*
X904927Y500039D01*
X906390Y500336D01*
X931959Y500336D01*
X933989Y501177D01*
X937570Y504758D01*
X938759Y505559D01*
X940221Y505856D01*
X943788Y505856D01*
X949144Y511212D01*
X949144Y518788D01*
X943788Y524144D01*
X936212Y524144D01*
X930856Y518788D01*
X930856Y515221D01*
X930582Y513814D01*
X929758Y512570D01*
X929670Y512482D01*
X928481Y511681D01*
X927019Y511384D01*
X920421Y511384D01*
X919125Y511615D01*
X917855Y512399D01*
X916992Y513617D01*
X916671Y515074D01*
X916945Y516541D01*
X917769Y517786D01*
X927988Y528004D01*
X928524Y529299D01*
X928524Y883201D01*
X927988Y884496D01*
X897472Y915012D01*
X896177Y915548D01*
X520989Y915548D01*
X519582Y915822D01*
X518337Y916646D01*
X504622Y930361D01*
X503821Y931550D01*
X503524Y933013D01*
X503524Y1045632D01*
X503776Y1046984D01*
X504580Y1048241D01*
X505811Y1049085D01*
X507274Y1049382D01*
X512795Y1049382D01*
X514090Y1049918D01*
X517334Y1053162D01*
X517870Y1054457D01*
X517870Y1083360D01*
X518144Y1084767D01*
X518968Y1086012D01*
X520475Y1087518D01*
X520475Y1090117D01*
X520749Y1091524D01*
X521573Y1092768D01*
X523346Y1094542D01*
X524480Y1095319D01*
X525938Y1095640D01*
X527405Y1095366D01*
X528650Y1094542D01*
X528792Y1094400D01*
X541700Y1094400D01*
X542593Y1095292D01*
X542593Y1114708D01*
X541700Y1115601D01*
X528792Y1115601D01*
X527899Y1114708D01*
X527899Y1113858D01*
X527636Y1112478D01*
X526822Y1111227D01*
X525584Y1110393D01*
X523359Y1109471D01*
X514361Y1100473D01*
X513172Y1099672D01*
X511709Y1099375D01*
X508461Y1099375D01*
X507378Y1099137D01*
X505911Y1099411D01*
X505211Y1099874D01*
X503964Y1100391D01*
X499616Y1100391D01*
X499616Y1085609D01*
X503964Y1085609D01*
X505407Y1086207D01*
X505500Y1086272D01*
X506952Y1086615D01*
X508424Y1086365D01*
X509681Y1085561D01*
X510525Y1084330D01*
X510822Y1082867D01*
X510822Y1060180D01*
X510570Y1058828D01*
X509766Y1057571D01*
X508535Y1056727D01*
X507072Y1056430D01*
X483380Y1056430D01*
X482000Y1056693D01*
X480749Y1057507D01*
X479915Y1058745D01*
X479771Y1059093D01*
X476699Y1062165D01*
X472684Y1063828D01*
X468340Y1063828D01*
X464325Y1062165D01*
X461253Y1059093D01*
X461109Y1058745D01*
X460338Y1057571D01*
X459107Y1056727D01*
X457644Y1056430D01*
X418356Y1056430D01*
X416976Y1056693D01*
X415725Y1057507D01*
X414891Y1058745D01*
X414747Y1059093D01*
X411675Y1062165D01*
X407660Y1063828D01*
X403316Y1063828D01*
X401620Y1063126D01*
X400364Y1062844D01*
X398889Y1063071D01*
X397619Y1063855D01*
X396755Y1065073D01*
X396435Y1066530D01*
X396709Y1067998D01*
X397533Y1069242D01*
X469028Y1140737D01*
X470162Y1141515D01*
X471620Y1141835D01*
X473087Y1141561D01*
X474332Y1140737D01*
X476712Y1138356D01*
X484288Y1138356D01*
X489644Y1143712D01*
X489644Y1147632D01*
X489918Y1149040D01*
X490742Y1150284D01*
X493737Y1153278D01*
X495018Y1154117D01*
X495220Y1154196D01*
X496470Y1154454D01*
X497942Y1154204D01*
X499199Y1153399D01*
X500043Y1152168D01*
X500340Y1150706D01*
X500340Y1148262D01*
X520660Y1148262D01*
X520660Y1151708D01*
X515752Y1156616D01*
X514958Y1157787D01*
X514654Y1159248D01*
X514943Y1160712D01*
X515781Y1161948D01*
X517034Y1162759D01*
X543756Y1173248D01*
X545126Y1173507D01*
X558408Y1173507D01*
X559301Y1174400D01*
X559301Y1176822D01*
X559553Y1178174D01*
X560357Y1179431D01*
X561588Y1180275D01*
X563051Y1180572D01*
X565313Y1180572D01*
X566636Y1180331D01*
X567900Y1179536D01*
X568754Y1178312D01*
X569063Y1176852D01*
X568809Y1175550D01*
X568809Y1171116D01*
X583591Y1171116D01*
X583591Y1175534D01*
X583339Y1176702D01*
X583590Y1178174D01*
X584394Y1179431D01*
X585625Y1180275D01*
X587087Y1180572D01*
X590916Y1180572D01*
X592324Y1180298D01*
X593568Y1179474D01*
X600690Y1172352D01*
X601467Y1171218D01*
X601788Y1169760D01*
X601514Y1168293D01*
X600690Y1167048D01*
X560283Y1126642D01*
X559480Y1124703D01*
X559480Y1118334D01*
X559206Y1116927D01*
X558382Y1115682D01*
X557407Y1114708D01*
X557407Y1095292D01*
X558300Y1094400D01*
X571208Y1094400D01*
X572101Y1095292D01*
X572101Y1114708D01*
X571126Y1115682D01*
X570325Y1116871D01*
X570028Y1118334D01*
X570028Y1119916D01*
X570302Y1121324D01*
X571126Y1122568D01*
X596834Y1148276D01*
X597914Y1149029D01*
X599366Y1149372D01*
X600838Y1149122D01*
X602095Y1148318D01*
X602939Y1147087D01*
X603236Y1145624D01*
X603236Y1142795D01*
X604388Y1140015D01*
X606515Y1137888D01*
X609295Y1136736D01*
X612305Y1136736D01*
X615085Y1137888D01*
X617212Y1140015D01*
X618364Y1142795D01*
X618364Y1145805D01*
X617212Y1148585D01*
X615085Y1150712D01*
X612305Y1151864D01*
X609476Y1151864D01*
X608180Y1152095D01*
X606910Y1152879D01*
X606047Y1154097D01*
X605726Y1155554D01*
X606000Y1157021D01*
X606824Y1158266D01*
X609596Y1161038D01*
X610785Y1161839D01*
X612248Y1162136D01*
X617471Y1162136D01*
X618364Y1163029D01*
X618364Y1168252D01*
X618638Y1169660D01*
X619462Y1170904D01*
X684271Y1235713D01*
X684291Y1235761D01*
X685062Y1236935D01*
X686293Y1237779D01*
X687756Y1238076D01*
X687931Y1238076D01*
X688824Y1238969D01*
X688824Y1273231D01*
X687931Y1274124D01*
X671669Y1274124D01*
X670776Y1273231D01*
X670776Y1265124D01*
X670524Y1263772D01*
X669720Y1262515D01*
X668489Y1261671D01*
X667026Y1261374D01*
X627735Y1261374D01*
X626327Y1261648D01*
X625083Y1262472D01*
X624931Y1262624D01*
X608669Y1262624D01*
X607776Y1261731D01*
X607776Y1250469D01*
X608669Y1249576D01*
X624931Y1249576D01*
X625083Y1249728D01*
X626272Y1250529D01*
X627735Y1250826D01*
X667026Y1250826D01*
X668378Y1250574D01*
X669635Y1249770D01*
X670479Y1248539D01*
X670776Y1247076D01*
X670776Y1238688D01*
X670502Y1237280D01*
X669678Y1236036D01*
X613452Y1179810D01*
X612318Y1179033D01*
X610860Y1178712D01*
X609393Y1178986D01*
X608148Y1179810D01*
X597642Y1190317D01*
X595703Y1191120D01*
X584090Y1191120D01*
X582683Y1191394D01*
X581807Y1191975D01*
X570600Y1191975D01*
X569773Y1191417D01*
X568310Y1191120D01*
X557474Y1191120D01*
X556122Y1191372D01*
X554865Y1192176D01*
X554021Y1193407D01*
X553724Y1194870D01*
X553724Y1195511D01*
X553987Y1196890D01*
X554801Y1198141D01*
X556039Y1198975D01*
X557887Y1199741D01*
X560959Y1202813D01*
X562622Y1206828D01*
X562622Y1211172D01*
X560959Y1215187D01*
X557887Y1218259D01*
X553872Y1219922D01*
X549528Y1219922D01*
X545513Y1218259D01*
X542321Y1215067D01*
X541214Y1214301D01*
X539759Y1213970D01*
X538289Y1214232D01*
X537039Y1215046D01*
X536836Y1215347D01*
X533062Y1219121D01*
X528675Y1220938D01*
X527062Y1220938D01*
X527062Y1197062D01*
X528675Y1197062D01*
X533062Y1198879D01*
X536760Y1202577D01*
X536934Y1202847D01*
X538152Y1203711D01*
X539609Y1204031D01*
X541077Y1203757D01*
X542321Y1202933D01*
X542578Y1202676D01*
X543379Y1201487D01*
X543676Y1200025D01*
X543676Y1191951D01*
X543424Y1190599D01*
X542620Y1189342D01*
X541389Y1188498D01*
X539926Y1188201D01*
X538992Y1188201D01*
X538100Y1187308D01*
X538100Y1184915D01*
X537810Y1183471D01*
X536973Y1182236D01*
X535720Y1181425D01*
X491001Y1163872D01*
X490844Y1163842D01*
X489398Y1163243D01*
X489333Y1163217D01*
X488387Y1162846D01*
X487669Y1162127D01*
X487619Y1162078D01*
X486492Y1160993D01*
X486402Y1160861D01*
X483284Y1157742D01*
X482095Y1156941D01*
X480632Y1156644D01*
X476712Y1156644D01*
X473691Y1153622D01*
X472502Y1152821D01*
X471039Y1152524D01*
X467687Y1152524D01*
X465840Y1151759D01*
X306804Y992722D01*
X305615Y991921D01*
X304152Y991624D01*
X241985Y991624D01*
X240577Y991898D01*
X240236Y992124D01*
X232269Y992124D01*
X230974Y992355D01*
X229704Y993139D01*
X228840Y994357D01*
X228520Y995814D01*
X228794Y997281D01*
X229618Y998526D01*
X229954Y998862D01*
X231143Y999663D01*
X232605Y999960D01*
X300505Y999960D01*
X301439Y1000347D01*
X396853Y1095761D01*
X397240Y1096695D01*
X397240Y1102529D01*
X397503Y1103909D01*
X398317Y1105159D01*
X399555Y1105994D01*
X399880Y1106128D01*
X402452Y1108700D01*
X403844Y1112061D01*
X403844Y1130939D01*
X402452Y1134300D01*
X399880Y1136872D01*
X396519Y1138264D01*
X392881Y1138264D01*
X389520Y1136872D01*
X386948Y1134300D01*
X385465Y1130718D01*
X384755Y1129609D01*
X383545Y1128736D01*
X382090Y1128404D01*
X380620Y1128666D01*
X379370Y1129480D01*
X378535Y1130718D01*
X377052Y1134300D01*
X376919Y1134432D01*
X376142Y1135566D01*
X375822Y1137024D01*
X376095Y1138491D01*
X376919Y1139735D01*
X382035Y1144851D01*
X383101Y1145563D01*
X437471Y1199934D01*
X438274Y1201872D01*
X438274Y1246276D01*
X438526Y1247628D01*
X439330Y1248885D01*
X440561Y1249729D01*
X442024Y1250026D01*
X501786Y1250026D01*
X503166Y1249763D01*
X504416Y1248949D01*
X505251Y1247711D01*
X506741Y1244113D01*
X509813Y1241041D01*
X513828Y1239378D01*
X518172Y1239378D01*
X522187Y1241041D01*
X525259Y1244113D01*
X525921Y1245711D01*
X526692Y1246885D01*
X527923Y1247729D01*
X529386Y1248026D01*
X554312Y1248026D01*
X555720Y1247752D01*
X556964Y1246928D01*
X558030Y1245862D01*
X561255Y1244526D01*
X564745Y1244526D01*
X567970Y1245862D01*
X569036Y1246928D01*
X570225Y1247729D01*
X571688Y1248026D01*
X576862Y1248026D01*
X578270Y1247752D01*
X579514Y1246928D01*
X597813Y1228629D01*
X599751Y1227826D01*
X605865Y1227826D01*
X607273Y1227552D01*
X608517Y1226728D01*
X608669Y1226576D01*
X624931Y1226576D01*
X625824Y1227469D01*
X625824Y1238731D01*
X624931Y1239624D01*
X608669Y1239624D01*
X608517Y1239472D01*
X607328Y1238671D01*
X605865Y1238374D01*
X604538Y1238374D01*
X603130Y1238648D01*
X601886Y1239472D01*
X583588Y1257771D01*
X581649Y1258574D01*
X571688Y1258574D01*
X570280Y1258848D01*
X569036Y1259672D01*
X567970Y1260738D01*
X564959Y1261986D01*
X563850Y1262695D01*
X562981Y1263899D01*
X562279Y1262820D01*
X561041Y1261986D01*
X558030Y1260738D01*
X556964Y1259672D01*
X555775Y1258871D01*
X554312Y1258574D01*
X524725Y1258574D01*
X523318Y1258848D01*
X522074Y1259672D01*
X522067Y1259679D01*
X521301Y1260786D01*
X520970Y1262241D01*
X521232Y1263711D01*
X522046Y1264961D01*
X522347Y1265164D01*
X526121Y1268938D01*
X527938Y1273325D01*
X527938Y1274938D01*
X504062Y1274938D01*
X504062Y1273325D01*
X505879Y1268938D01*
X507841Y1266976D01*
X508594Y1265896D01*
X508938Y1264444D01*
X508688Y1262972D01*
X507883Y1261715D01*
X506652Y1260871D01*
X505190Y1260574D01*
X441688Y1260574D01*
X440280Y1260848D01*
X439036Y1261672D01*
X437970Y1262738D01*
X434959Y1263986D01*
X433850Y1264695D01*
X432981Y1265899D01*
X432279Y1264820D01*
X431041Y1263986D01*
X428030Y1262738D01*
X425562Y1260270D01*
X424226Y1257045D01*
X424226Y1253555D01*
X425562Y1250330D01*
X426628Y1249264D01*
X427429Y1248075D01*
X427726Y1246612D01*
X427726Y1206659D01*
X427452Y1205251D01*
X426628Y1204007D01*
X388203Y1165583D01*
X387123Y1164830D01*
X385671Y1164486D01*
X384200Y1164737D01*
X382942Y1165541D01*
X382099Y1166772D01*
X381802Y1168234D01*
X381802Y1180092D01*
X380909Y1180985D01*
X372201Y1180985D01*
X370849Y1181237D01*
X369591Y1182041D01*
X368748Y1183272D01*
X368451Y1184735D01*
X368451Y1191946D01*
X367686Y1193792D01*
X342865Y1218613D01*
X342112Y1219693D01*
X341768Y1221145D01*
X341887Y1221846D01*
X341361Y1221730D01*
X339894Y1222004D01*
X338650Y1222828D01*
X330674Y1230804D01*
X329873Y1231993D01*
X329849Y1232109D01*
X328122Y1233836D01*
X327321Y1235025D01*
X327024Y1236488D01*
X327024Y1243776D01*
X327276Y1245128D01*
X328080Y1246385D01*
X329311Y1247229D01*
X330774Y1247526D01*
X331745Y1247526D01*
X334970Y1248862D01*
X337438Y1251330D01*
X338774Y1254555D01*
X338774Y1258045D01*
X337438Y1261270D01*
X334970Y1263738D01*
X331959Y1264986D01*
X330850Y1265695D01*
X329981Y1266899D01*
X329279Y1265820D01*
X328041Y1264986D01*
X325030Y1263738D01*
X322562Y1261270D01*
X321226Y1258045D01*
X321226Y1256184D01*
X320952Y1254777D01*
X320128Y1253533D01*
X317741Y1251146D01*
X316976Y1249299D01*
X316976Y1236488D01*
X316702Y1235080D01*
X315878Y1233836D01*
X314425Y1232383D01*
X314425Y1229761D01*
X314193Y1228465D01*
X313409Y1227195D01*
X312192Y1226332D01*
X310734Y1226011D01*
X309267Y1226285D01*
X308023Y1227109D01*
X301107Y1234025D01*
X300066Y1234714D01*
X299311Y1235835D01*
X296187Y1238959D01*
X292172Y1240622D01*
X287736Y1240622D01*
X286329Y1240896D01*
X285085Y1241720D01*
X246820Y1279985D01*
X244973Y1280750D01*
X214727Y1280750D01*
X212880Y1279985D01*
X201741Y1268846D01*
X200976Y1266999D01*
X200976Y1245101D01*
X201741Y1243254D01*
X203813Y1241182D01*
X204566Y1240102D01*
X204910Y1238650D01*
X204660Y1237178D01*
X203855Y1235921D01*
X202624Y1235077D01*
X201162Y1234780D01*
X200922Y1234780D01*
X200922Y1223478D01*
X194570Y1223478D01*
X194570Y1215735D01*
X194957Y1214801D01*
X195671Y1214087D01*
X196784Y1213626D01*
X197738Y1213448D01*
X198995Y1212644D01*
X199839Y1211413D01*
X200136Y1209950D01*
X200136Y1183514D01*
X199884Y1182162D01*
X199080Y1180905D01*
X197849Y1180061D01*
X196502Y1179788D01*
X195586Y1178871D01*
X195586Y1173072D01*
X195301Y1171637D01*
X195136Y1171239D01*
X195136Y1161374D01*
X194862Y1159967D01*
X194038Y1158723D01*
X189087Y1153772D01*
X187898Y1152971D01*
X186436Y1152674D01*
X144737Y1152674D01*
X143329Y1152948D01*
X142685Y1153375D01*
X107474Y1153375D01*
X106122Y1153627D01*
X104865Y1154431D01*
X104021Y1155662D01*
X103724Y1157125D01*
X103724Y1161339D01*
X103987Y1162719D01*
X104801Y1163970D01*
X105766Y1164620D01*
X108959Y1167813D01*
X110622Y1171828D01*
X110622Y1176172D01*
X108959Y1180187D01*
X105887Y1183259D01*
X101872Y1184922D01*
X97528Y1184922D01*
X93513Y1183259D01*
X90405Y1180151D01*
X89755Y1179135D01*
X88545Y1178262D01*
X87090Y1177930D01*
X85620Y1178192D01*
X84370Y1179007D01*
X83605Y1180141D01*
X80672Y1183074D01*
X79871Y1184263D01*
X79574Y1185725D01*
X79574Y1186867D01*
X79848Y1188275D01*
X80672Y1189519D01*
X90192Y1199038D01*
X91326Y1199816D01*
X92783Y1200136D01*
X94251Y1199862D01*
X94609Y1199625D01*
X108482Y1199625D01*
X109375Y1200518D01*
X109375Y1235482D01*
X108482Y1236375D01*
X94908Y1236375D01*
X94015Y1235482D01*
X94015Y1219332D01*
X93741Y1217924D01*
X92917Y1216680D01*
X69829Y1193593D01*
X69026Y1191654D01*
X69026Y1185725D01*
X68752Y1184318D01*
X67928Y1183074D01*
X65041Y1180187D01*
X63378Y1176172D01*
X63378Y1171828D01*
X65041Y1167813D01*
X68113Y1164741D01*
X72128Y1163078D01*
X76472Y1163078D01*
X80487Y1164741D01*
X83595Y1167849D01*
X84245Y1168865D01*
X85455Y1169738D01*
X86910Y1170070D01*
X88380Y1169808D01*
X89630Y1168993D01*
X90395Y1167859D01*
X93621Y1164633D01*
X94535Y1164033D01*
X95379Y1162802D01*
X95676Y1161339D01*
X95676Y1129500D01*
X96289Y1128021D01*
X110399Y1113911D01*
X111152Y1112831D01*
X111495Y1111379D01*
X111245Y1109907D01*
X110441Y1108650D01*
X109210Y1107806D01*
X107747Y1107509D01*
X73474Y1107509D01*
X72122Y1107761D01*
X70865Y1108565D01*
X70021Y1109796D01*
X69724Y1111259D01*
X69724Y1128339D01*
X69987Y1129719D01*
X70801Y1130970D01*
X71766Y1131620D01*
X74959Y1134813D01*
X76622Y1138828D01*
X76622Y1143172D01*
X74959Y1147187D01*
X71887Y1150259D01*
X67872Y1151922D01*
X63528Y1151922D01*
X59513Y1150259D01*
X56321Y1147067D01*
X55214Y1146301D01*
X53759Y1145970D01*
X52289Y1146232D01*
X51039Y1147046D01*
X50836Y1147347D01*
X47062Y1151121D01*
X42675Y1152938D01*
X41062Y1152938D01*
X41062Y1129062D01*
X42675Y1129062D01*
X47062Y1130879D01*
X50760Y1134577D01*
X50934Y1134847D01*
X52152Y1135711D01*
X53609Y1136031D01*
X55077Y1135757D01*
X56321Y1134933D01*
X59621Y1131633D01*
X60535Y1131033D01*
X61379Y1129802D01*
X61676Y1128339D01*
X61676Y1102685D01*
X62289Y1101206D01*
X63421Y1100074D01*
X64900Y1099461D01*
X102687Y1099461D01*
X104011Y1099220D01*
X105274Y1098425D01*
X106128Y1097201D01*
X106437Y1095741D01*
X106152Y1094276D01*
X105609Y1092966D01*
X105609Y1087067D01*
X125762Y1087067D01*
X125762Y1077609D01*
X143101Y1077609D01*
X144453Y1077357D01*
X145710Y1076553D01*
X146554Y1075322D01*
X146851Y1073859D01*
X146851Y1055495D01*
X146620Y1054200D01*
X145836Y1052930D01*
X144619Y1052066D01*
X143161Y1051746D01*
X141694Y1052020D01*
X140449Y1052844D01*
X125167Y1068126D01*
X123964Y1068625D01*
X26416Y1068625D01*
X25212Y1068126D01*
X24537Y1067451D01*
X23458Y1066698D01*
X22005Y1066355D01*
X20534Y1066605D01*
X19277Y1067409D01*
X18433Y1068640D01*
X18136Y1070103D01*
X18136Y1070781D01*
X11334Y1070781D01*
X11334Y1072305D01*
X18136Y1072305D01*
X18136Y1074017D01*
X18037Y1074503D01*
X18322Y1075968D01*
X18906Y1077376D01*
X18906Y1082711D01*
X16864Y1087639D01*
X13092Y1091412D01*
X8163Y1093453D01*
X2828Y1093453D01*
X1981Y1093102D01*
X576Y1092817D01*
X31Y1092923D01*
X-6242Y1092923D01*
X-6242Y1084581D01*
X-19624Y1084581D01*
X-19624Y1083836D01*
X-18470Y1081050D01*
X-16338Y1078917D01*
X-13259Y1077642D01*
X-12085Y1076871D01*
X-11241Y1075640D01*
X-11072Y1074805D01*
X-4142Y1074805D01*
X-4142Y1073281D01*
X-10944Y1073281D01*
X-10944Y1072038D01*
X-10314Y1070516D01*
X-10225Y1070384D01*
X-9928Y1068922D01*
X-9928Y1054184D01*
X-10202Y1052776D01*
X-11027Y1051532D01*
X-52930Y1009628D01*
X-53551Y1008129D01*
X-54302Y1006977D01*
X-55526Y1006123D01*
X-56986Y1005814D01*
X-58451Y1006100D01*
X-59957Y1006723D01*
X-65742Y1006723D01*
X-65742Y991563D01*
X-59957Y991563D01*
X-58502Y992166D01*
X-57187Y992449D01*
X-55715Y992199D01*
X-54458Y991395D01*
X-53614Y990164D01*
X-53317Y988701D01*
X-53317Y952514D01*
X-53569Y951162D01*
X-54374Y949905D01*
X-55605Y949061D01*
X-57067Y948764D01*
X-58519Y948764D01*
X-61880Y947372D01*
X-64452Y944800D01*
X-65844Y941439D01*
X-65844Y922561D01*
X-64452Y919200D01*
X-61880Y916628D01*
X-58519Y915236D01*
X-54881Y915236D01*
X-51520Y916628D01*
X-48948Y919200D01*
X-47465Y922782D01*
X-46755Y923891D01*
X-45545Y924764D01*
X-44090Y925096D01*
X-42620Y924834D01*
X-41370Y924020D01*
X-40535Y922782D01*
X-39052Y919200D01*
X-36480Y916628D01*
X-33119Y915236D01*
X-29481Y915236D01*
X-26120Y916628D01*
X-23548Y919200D01*
X-22156Y922561D01*
X-22156Y941439D01*
X-23548Y944800D01*
X-26120Y947372D01*
X-29481Y948764D01*
X-31010Y948764D01*
X-32362Y949016D01*
X-33619Y949820D01*
X-34463Y951051D01*
X-34760Y952514D01*
X-34760Y953898D01*
X-34529Y955194D01*
X-33745Y956464D01*
X-32528Y957327D01*
X-31070Y957647D01*
X-29603Y957374D01*
X-28358Y956550D01*
X-28208Y956400D01*
X-15300Y956400D01*
X-14407Y957292D01*
X-14407Y976708D01*
X-15373Y977674D01*
X-16332Y977853D01*
X-17589Y978657D01*
X-18433Y979888D01*
X-18730Y981351D01*
X-18730Y991696D01*
X-18489Y993020D01*
X-17694Y994283D01*
X-16470Y995137D01*
X-15010Y995446D01*
X-13560Y995163D01*
X-7766Y995163D01*
X-7766Y1003505D01*
X5616Y1003505D01*
X5616Y1004251D01*
X5279Y1005063D01*
X5018Y1006543D01*
X4996Y1006543D01*
X4996Y1008753D01*
X5248Y1010105D01*
X6052Y1011362D01*
X7283Y1012206D01*
X8746Y1012503D01*
X11334Y1012503D01*
X11334Y1017305D01*
X18288Y1017305D01*
X18367Y1017746D01*
X19151Y1019016D01*
X20368Y1019879D01*
X21826Y1020199D01*
X23293Y1019926D01*
X24537Y1019102D01*
X38628Y1005011D01*
X39429Y1003822D01*
X39726Y1002360D01*
X39726Y998851D01*
X39474Y997499D01*
X38670Y996242D01*
X37439Y995398D01*
X35976Y995101D01*
X33292Y995101D01*
X32400Y994208D01*
X32400Y981300D01*
X33292Y980407D01*
X52708Y980407D01*
X53601Y981300D01*
X53601Y991479D01*
X53832Y992775D01*
X54616Y994045D01*
X55833Y994909D01*
X57291Y995229D01*
X58758Y994955D01*
X60002Y994131D01*
X122092Y932042D01*
X122845Y930962D01*
X123188Y929510D01*
X122938Y928038D01*
X122134Y926781D01*
X120903Y925937D01*
X119440Y925640D01*
X119345Y925640D01*
X117937Y925914D01*
X116693Y926738D01*
X111788Y931644D01*
X104212Y931644D01*
X98856Y926288D01*
X98856Y918712D01*
X104212Y913356D01*
X111788Y913356D01*
X117893Y919462D01*
X119082Y920263D01*
X120545Y920560D01*
X162131Y920560D01*
X163539Y920286D01*
X164783Y919462D01*
X164843Y919402D01*
X165621Y918268D01*
X165941Y916810D01*
X165776Y915925D01*
X165776Y904861D01*
X165941Y904110D01*
X165776Y903225D01*
X165776Y893069D01*
X166669Y892176D01*
X179931Y892176D01*
X180824Y893069D01*
X180824Y903239D01*
X180659Y903990D01*
X180824Y904875D01*
X180824Y915939D01*
X180659Y916690D01*
X180824Y917575D01*
X180824Y928639D01*
X180659Y929390D01*
X180824Y930275D01*
X180824Y941339D01*
X180659Y942090D01*
X180824Y942975D01*
X180824Y954039D01*
X180659Y954790D01*
X180933Y956257D01*
X181757Y957502D01*
X181817Y957562D01*
X183006Y958363D01*
X184469Y958660D01*
X189205Y958660D01*
X190139Y959047D01*
X219374Y988282D01*
X220454Y989035D01*
X221906Y989379D01*
X223378Y989128D01*
X224635Y988324D01*
X225479Y987093D01*
X225776Y985631D01*
X225776Y981061D01*
X225941Y980310D01*
X225776Y979425D01*
X225776Y968361D01*
X225941Y967610D01*
X225776Y966725D01*
X225776Y955661D01*
X225941Y954910D01*
X225776Y954025D01*
X225776Y942961D01*
X225941Y942210D01*
X225776Y941325D01*
X225776Y930261D01*
X225941Y929510D01*
X225776Y928625D01*
X225776Y917561D01*
X225941Y916810D01*
X225776Y915925D01*
X225776Y904861D01*
X225941Y904110D01*
X225776Y903225D01*
X225776Y893069D01*
X226669Y892176D01*
X239931Y892176D01*
X240824Y893069D01*
X240824Y903239D01*
X240659Y903990D01*
X240824Y904875D01*
X240824Y915939D01*
X240659Y916690D01*
X240824Y917575D01*
X240824Y928639D01*
X240659Y929390D01*
X240824Y930275D01*
X240824Y941226D01*
X241076Y942578D01*
X241880Y943835D01*
X243111Y944679D01*
X244574Y944976D01*
X247975Y944976D01*
X249382Y944702D01*
X250626Y943878D01*
X263939Y930565D01*
X264740Y929376D01*
X265037Y927914D01*
X265037Y916642D01*
X265930Y915750D01*
X291112Y915750D01*
X292005Y916642D01*
X292005Y933558D01*
X291112Y934451D01*
X271574Y934451D01*
X270167Y934725D01*
X268922Y935549D01*
X262623Y941848D01*
X261870Y942928D01*
X261527Y944380D01*
X261597Y944793D01*
X261347Y944738D01*
X259880Y945012D01*
X258635Y945836D01*
X254297Y950174D01*
X253544Y951254D01*
X253200Y952706D01*
X253451Y954178D01*
X254255Y955435D01*
X255486Y956279D01*
X256948Y956576D01*
X261287Y956576D01*
X262639Y956324D01*
X263896Y955520D01*
X264740Y954289D01*
X265037Y952826D01*
X265037Y948487D01*
X264984Y948190D01*
X265275Y948250D01*
X291112Y948250D01*
X292005Y949142D01*
X292005Y966058D01*
X291112Y966951D01*
X265930Y966951D01*
X264400Y965421D01*
X263981Y964765D01*
X262750Y963921D01*
X261287Y963624D01*
X244574Y963624D01*
X243222Y963876D01*
X241965Y964680D01*
X241926Y964737D01*
X241922Y964733D01*
X241757Y964898D01*
X240979Y966033D01*
X240659Y967490D01*
X240824Y968375D01*
X240824Y977826D01*
X241076Y979178D01*
X241880Y980435D01*
X243111Y981279D01*
X244574Y981576D01*
X308786Y981576D01*
X310632Y982341D01*
X389152Y1060861D01*
X390205Y1061601D01*
X391654Y1061956D01*
X393128Y1061718D01*
X394391Y1060924D01*
X395245Y1059699D01*
X395554Y1058239D01*
X395268Y1056774D01*
X394566Y1055078D01*
X394566Y1050734D01*
X394710Y1050386D01*
X394995Y1049010D01*
X394721Y1047543D01*
X393897Y1046299D01*
X365766Y1018168D01*
X365230Y1016873D01*
X365230Y966340D01*
X364956Y964933D01*
X364132Y963688D01*
X361766Y961322D01*
X360577Y960521D01*
X359114Y960224D01*
X337913Y960224D01*
X336561Y960476D01*
X335304Y961280D01*
X334460Y962511D01*
X334163Y963974D01*
X334163Y966058D01*
X333270Y966951D01*
X308088Y966951D01*
X307195Y966058D01*
X307195Y949142D01*
X308088Y948250D01*
X333270Y948250D01*
X334163Y949142D01*
X334163Y949426D01*
X334415Y950778D01*
X335219Y952035D01*
X336450Y952879D01*
X337913Y953176D01*
X359114Y953176D01*
X360521Y952902D01*
X361766Y952078D01*
X363518Y950325D01*
X374638Y950325D01*
X375722Y950563D01*
X377189Y950289D01*
X377889Y949826D01*
X379136Y949309D01*
X383484Y949309D01*
X383484Y964091D01*
X379136Y964091D01*
X377693Y963493D01*
X377600Y963428D01*
X376148Y963085D01*
X374676Y963335D01*
X373419Y964139D01*
X372575Y965370D01*
X372278Y966833D01*
X372278Y1013159D01*
X372552Y1014566D01*
X373376Y1015811D01*
X398881Y1041315D01*
X400042Y1042105D01*
X401503Y1042413D01*
X402968Y1042128D01*
X403316Y1041984D01*
X407660Y1041984D01*
X411675Y1043647D01*
X414747Y1046719D01*
X414891Y1047067D01*
X415662Y1048241D01*
X416893Y1049085D01*
X418356Y1049382D01*
X457644Y1049382D01*
X459024Y1049119D01*
X460275Y1048305D01*
X461109Y1047067D01*
X461253Y1046719D01*
X464325Y1043647D01*
X468340Y1041984D01*
X472684Y1041984D01*
X476699Y1043647D01*
X479771Y1046719D01*
X479915Y1047067D01*
X480686Y1048241D01*
X481917Y1049085D01*
X483380Y1049382D01*
X492726Y1049382D01*
X494078Y1049130D01*
X495335Y1048326D01*
X496179Y1047095D01*
X496476Y1045632D01*
X496476Y929299D01*
X497012Y928004D01*
X515980Y909036D01*
X517275Y908500D01*
X892463Y908500D01*
X893870Y908226D01*
X895115Y907402D01*
X920378Y882139D01*
X921179Y880950D01*
X921476Y879487D01*
X921476Y533013D01*
X921202Y531606D01*
X920378Y530361D01*
X913199Y523182D01*
X912010Y522381D01*
X910547Y522084D01*
X905374Y522084D01*
X904022Y522336D01*
X902765Y523140D01*
X901921Y524371D01*
X901624Y525834D01*
X901624Y639710D01*
X901887Y641090D01*
X902701Y642341D01*
X903939Y643175D01*
X904499Y643407D01*
X908903Y647811D01*
X909290Y648745D01*
X909290Y677044D01*
X908903Y677977D01*
X796727Y790153D01*
X795794Y790540D01*
X774605Y790540D01*
X773198Y790814D01*
X771954Y791638D01*
X708439Y855153D01*
X707505Y855540D01*
X699983Y855540D01*
X698687Y855771D01*
X697418Y856555D01*
X696554Y857773D01*
X696234Y859230D01*
X696507Y860697D01*
X697108Y861604D01*
X698264Y864395D01*
X698264Y867205D01*
X697189Y869801D01*
X695201Y871789D01*
X692605Y872864D01*
X689795Y872864D01*
X687199Y871789D01*
X685211Y869801D01*
X684136Y867205D01*
X684136Y864395D01*
X685275Y861646D01*
X685821Y860862D01*
X686165Y859410D01*
X685915Y857938D01*
X685110Y856681D01*
X683879Y855837D01*
X682417Y855540D01*
X677753Y855540D01*
X676734Y855320D01*
X675262Y855571D01*
X675102Y855673D01*
X675240Y855046D01*
X674966Y853579D01*
X674142Y852334D01*
X670370Y848562D01*
X669181Y847761D01*
X667719Y847464D01*
X664395Y847464D01*
X661799Y846389D01*
X659811Y844401D01*
X658736Y841805D01*
X658736Y838995D01*
X659811Y836399D01*
X661799Y834411D01*
X664395Y833336D01*
X667205Y833336D01*
X669801Y834411D01*
X671789Y836399D01*
X672864Y838995D01*
X672864Y842319D01*
X673138Y843726D01*
X673962Y844970D01*
X678354Y849362D01*
X679543Y850163D01*
X681005Y850460D01*
X682217Y850460D01*
X683513Y850229D01*
X684783Y849445D01*
X685646Y848228D01*
X685966Y846770D01*
X685693Y845303D01*
X685405Y844868D01*
X684136Y841805D01*
X684136Y838995D01*
X685211Y836399D01*
X687199Y834411D01*
X689795Y833336D01*
X692605Y833336D01*
X695201Y834411D01*
X697189Y836399D01*
X698264Y838995D01*
X698264Y841805D01*
X697037Y844768D01*
X696779Y845138D01*
X696435Y846590D01*
X696685Y848062D01*
X697490Y849319D01*
X698721Y850163D01*
X700183Y850460D01*
X704395Y850460D01*
X705802Y850186D01*
X707046Y849362D01*
X770561Y785847D01*
X771495Y785460D01*
X792683Y785460D01*
X794090Y785186D01*
X795335Y784362D01*
X873110Y706586D01*
X873863Y705506D01*
X874207Y704054D01*
X873957Y702582D01*
X873152Y701325D01*
X871921Y700481D01*
X870459Y700184D01*
X830061Y700184D01*
X828654Y700458D01*
X827410Y701283D01*
X818342Y710350D01*
X817541Y711539D01*
X817244Y713001D01*
X817244Y726439D01*
X815852Y729800D01*
X813280Y732372D01*
X809919Y733764D01*
X806281Y733764D01*
X802920Y732372D01*
X800348Y729800D01*
X798865Y726218D01*
X798155Y725109D01*
X796945Y724236D01*
X795490Y723904D01*
X794020Y724166D01*
X792770Y724980D01*
X791935Y726218D01*
X790452Y729800D01*
X787880Y732372D01*
X784519Y733764D01*
X780381Y733764D01*
X778974Y734038D01*
X777730Y734862D01*
X765439Y747153D01*
X764505Y747540D01*
X722605Y747540D01*
X721198Y747814D01*
X719954Y748638D01*
X694838Y773754D01*
X694037Y774943D01*
X693740Y776405D01*
X693740Y805997D01*
X694014Y807404D01*
X694838Y808648D01*
X697189Y810999D01*
X698264Y813595D01*
X698264Y816405D01*
X697189Y819001D01*
X695201Y820989D01*
X692605Y822064D01*
X689795Y822064D01*
X687199Y820989D01*
X685211Y819001D01*
X684136Y816405D01*
X684136Y813595D01*
X685211Y810999D01*
X687562Y808648D01*
X688363Y807459D01*
X688660Y805997D01*
X688660Y777785D01*
X688429Y776490D01*
X687645Y775220D01*
X686428Y774356D01*
X684970Y774036D01*
X683503Y774310D01*
X682258Y775134D01*
X669438Y787954D01*
X668637Y789143D01*
X668340Y790605D01*
X668340Y805997D01*
X668614Y807404D01*
X669438Y808648D01*
X671789Y810999D01*
X672864Y813595D01*
X672864Y816405D01*
X671789Y819001D01*
X669801Y820989D01*
X667205Y822064D01*
X664395Y822064D01*
X661799Y820989D01*
X659811Y819001D01*
X658736Y816405D01*
X658736Y813595D01*
X659811Y810999D01*
X662162Y808648D01*
X662963Y807459D01*
X663260Y805997D01*
X663260Y791885D01*
X663029Y790590D01*
X662245Y789320D01*
X661028Y788456D01*
X659570Y788136D01*
X658103Y788410D01*
X656858Y789234D01*
X651138Y794954D01*
X650337Y796143D01*
X650040Y797605D01*
X650040Y859510D01*
X650292Y860862D01*
X651096Y862119D01*
X652327Y862963D01*
X653790Y863260D01*
X654986Y863260D01*
X656338Y863008D01*
X657595Y862204D01*
X658439Y860973D01*
X658706Y859659D01*
X659629Y858736D01*
X671491Y858736D01*
X672786Y858505D01*
X673006Y858369D01*
X672864Y859068D01*
X672864Y871971D01*
X671971Y872864D01*
X659629Y872864D01*
X658709Y871944D01*
X658484Y870738D01*
X657680Y869481D01*
X656449Y868637D01*
X654986Y868340D01*
X611851Y868340D01*
X610499Y868592D01*
X609242Y869396D01*
X608398Y870627D01*
X608101Y872090D01*
X608101Y873708D01*
X607208Y874601D01*
X594300Y874601D01*
X593407Y873708D01*
X593407Y854292D01*
X594300Y853400D01*
X607208Y853400D01*
X608101Y854292D01*
X608101Y859510D01*
X608353Y860862D01*
X609157Y862119D01*
X610388Y862963D01*
X611851Y863260D01*
X641210Y863260D01*
X642562Y863008D01*
X643819Y862204D01*
X644663Y860973D01*
X644960Y859510D01*
X644960Y794495D01*
X645347Y793561D01*
X721658Y717250D01*
X722459Y716061D01*
X722756Y714599D01*
X722756Y707561D01*
X724008Y704539D01*
X724289Y703283D01*
X724183Y702593D01*
X725600Y702329D01*
X726552Y701698D01*
X730081Y700236D01*
X733719Y700236D01*
X734906Y700728D01*
X736282Y701013D01*
X737749Y700739D01*
X738993Y699915D01*
X753122Y685786D01*
X753875Y684706D01*
X754219Y683254D01*
X753968Y681782D01*
X753164Y680525D01*
X751933Y679681D01*
X750471Y679384D01*
X742769Y679384D01*
X741876Y678491D01*
X741876Y662229D01*
X742769Y661336D01*
X854079Y661336D01*
X855486Y661062D01*
X855623Y660971D01*
X857195Y660320D01*
X861438Y660320D01*
X861438Y680400D01*
X857195Y680400D01*
X855693Y679778D01*
X855618Y679726D01*
X854160Y679406D01*
X852693Y679680D01*
X851448Y680504D01*
X847850Y684103D01*
X847097Y685182D01*
X846753Y686635D01*
X847003Y688106D01*
X847808Y689363D01*
X849039Y690207D01*
X850501Y690504D01*
X865439Y690504D01*
X866846Y690230D01*
X868090Y689406D01*
X870760Y686737D01*
X871500Y685684D01*
X871855Y684234D01*
X871617Y682761D01*
X871603Y682740D01*
X872865Y683018D01*
X874332Y682744D01*
X875577Y681920D01*
X886811Y670686D01*
X887564Y669606D01*
X887907Y668154D01*
X887657Y666682D01*
X886853Y665425D01*
X885622Y664581D01*
X884548Y664363D01*
X883576Y663391D01*
X883576Y501281D01*
X883302Y499874D01*
X883211Y499737D01*
X882560Y498165D01*
X882560Y493922D01*
G37*
G36*
X432150Y1270205D02*
X433019Y1269002D01*
X433721Y1270081D01*
X434959Y1270915D01*
X438546Y1272400D01*
X441300Y1275154D01*
X442790Y1278753D01*
X442790Y1279938D01*
X423210Y1279938D01*
X423210Y1278753D01*
X424700Y1275154D01*
X427454Y1272400D01*
X431041Y1270915D01*
X432150Y1270205D01*
G37*
G36*
X608795Y1271560D02*
X616038Y1271560D01*
X616038Y1278338D01*
X606760Y1278338D01*
X606760Y1273595D01*
X607147Y1272661D01*
X607861Y1271947D01*
X608795Y1271560D01*
G37*
G36*
X617562Y1271560D02*
X624805Y1271560D01*
X625739Y1271947D01*
X626453Y1272661D01*
X626840Y1273595D01*
X626840Y1278338D01*
X617562Y1278338D01*
X617562Y1271560D01*
G37*
G36*
X562150Y1268205D02*
X563019Y1267002D01*
X563721Y1268081D01*
X564959Y1268915D01*
X568546Y1270400D01*
X571300Y1273154D01*
X572790Y1276753D01*
X572790Y1277938D01*
X553210Y1277938D01*
X553210Y1276753D01*
X554700Y1273154D01*
X557454Y1270400D01*
X561041Y1268915D01*
X562150Y1268205D01*
G37*
G36*
X815920Y1266062D02*
X825238Y1266062D01*
X825238Y1275380D01*
X823995Y1275380D01*
X820290Y1273845D01*
X817455Y1271010D01*
X815920Y1267305D01*
X815920Y1266062D01*
G37*
G36*
X823995Y1255220D02*
X825238Y1255220D01*
X825238Y1264538D01*
X815920Y1264538D01*
X815920Y1263295D01*
X817455Y1259590D01*
X820290Y1256755D01*
X823995Y1255220D01*
G37*
G36*
X345052Y1225480D02*
X344948Y1224900D01*
X345516Y1225015D01*
X380909Y1225015D01*
X381802Y1225908D01*
X381802Y1239670D01*
X381434Y1240206D01*
X381114Y1241664D01*
X381388Y1243131D01*
X382212Y1244375D01*
X384055Y1246219D01*
X385244Y1247020D01*
X386707Y1247317D01*
X388690Y1247317D01*
X389583Y1248210D01*
X389583Y1259090D01*
X388690Y1259983D01*
X370310Y1259983D01*
X369417Y1259090D01*
X369417Y1247344D01*
X369143Y1245936D01*
X368319Y1244692D01*
X365100Y1241473D01*
X363911Y1240672D01*
X362448Y1240375D01*
X345944Y1240375D01*
X345052Y1239482D01*
X345052Y1225480D01*
G37*
G36*
X-5790Y1242062D02*
X13790Y1242062D01*
X13790Y1243247D01*
X12300Y1246846D01*
X9546Y1249600D01*
X5959Y1251085D01*
X4850Y1251795D01*
X3981Y1252999D01*
X3279Y1251919D01*
X2041Y1251085D01*
X-1546Y1249600D01*
X-4300Y1246846D01*
X-5790Y1243247D01*
X-5790Y1242062D01*
G37*
G36*
X4762Y1231510D02*
X5947Y1231510D01*
X9546Y1233000D01*
X12300Y1235754D01*
X13790Y1239353D01*
X13790Y1240538D01*
X4762Y1240538D01*
X4762Y1231510D01*
G37*
G36*
X2053Y1231510D02*
X3238Y1231510D01*
X3238Y1240538D01*
X-5790Y1240538D01*
X-5790Y1239353D01*
X-4300Y1235754D01*
X-1546Y1233000D01*
X2053Y1231510D01*
G37*
G36*
X33609Y1218762D02*
X41543Y1218762D01*
X41543Y1237391D01*
X35644Y1237391D01*
X34710Y1237004D01*
X33996Y1236290D01*
X33609Y1235356D01*
X33609Y1218762D01*
G37*
G36*
X43067Y1218762D02*
X51001Y1218762D01*
X51001Y1235356D01*
X50614Y1236290D01*
X49900Y1237004D01*
X48966Y1237391D01*
X43067Y1237391D01*
X43067Y1218762D01*
G37*
G36*
X194570Y1225002D02*
X199398Y1225002D01*
X199398Y1234780D01*
X196605Y1234780D01*
X195671Y1234393D01*
X194957Y1233679D01*
X194570Y1232745D01*
X194570Y1225002D01*
G37*
G36*
X514362Y1209762D02*
X525538Y1209762D01*
X525538Y1220938D01*
X523925Y1220938D01*
X519538Y1219121D01*
X516179Y1215762D01*
X514362Y1211375D01*
X514362Y1209762D01*
G37*
G36*
X43067Y1198609D02*
X48966Y1198609D01*
X49900Y1198996D01*
X50614Y1199710D01*
X51001Y1200644D01*
X51001Y1217238D01*
X43067Y1217238D01*
X43067Y1198609D01*
G37*
G36*
X35644Y1198609D02*
X41543Y1198609D01*
X41543Y1217238D01*
X33609Y1217238D01*
X33609Y1200644D01*
X33996Y1199710D01*
X34710Y1198996D01*
X35644Y1198609D01*
G37*
G36*
X446510Y1205762D02*
X455538Y1205762D01*
X455538Y1214790D01*
X454353Y1214790D01*
X450754Y1213300D01*
X448000Y1210546D01*
X446510Y1206947D01*
X446510Y1205762D01*
G37*
G36*
X457062Y1195210D02*
X458247Y1195210D01*
X461846Y1196700D01*
X464600Y1199454D01*
X466085Y1203041D01*
X466795Y1204150D01*
X467999Y1205019D01*
X466919Y1205721D01*
X466085Y1206959D01*
X464600Y1210546D01*
X461846Y1213300D01*
X458247Y1214790D01*
X457062Y1214790D01*
X457062Y1195210D01*
G37*
G36*
X479955Y1196226D02*
X483445Y1196226D01*
X486670Y1197562D01*
X489138Y1200030D01*
X490474Y1203255D01*
X490474Y1206745D01*
X489138Y1209970D01*
X486670Y1212438D01*
X483445Y1213774D01*
X479955Y1213774D01*
X476730Y1212438D01*
X474262Y1209970D01*
X473014Y1206959D01*
X472305Y1205850D01*
X471101Y1204981D01*
X472180Y1204279D01*
X473014Y1203041D01*
X474262Y1200030D01*
X476730Y1197562D01*
X479955Y1196226D01*
G37*
G36*
X523925Y1197062D02*
X525538Y1197062D01*
X525538Y1208238D01*
X514362Y1208238D01*
X514362Y1206625D01*
X516179Y1202238D01*
X519538Y1198879D01*
X523925Y1197062D01*
G37*
G36*
X170712Y1162856D02*
X178288Y1162856D01*
X183644Y1168212D01*
X183644Y1175788D01*
X178288Y1181144D01*
X170712Y1181144D01*
X168318Y1178749D01*
X167184Y1177972D01*
X165726Y1177651D01*
X164259Y1177925D01*
X163014Y1178749D01*
X155962Y1185802D01*
X155184Y1186936D01*
X154864Y1188393D01*
X155138Y1189861D01*
X155375Y1190219D01*
X155375Y1204092D01*
X154482Y1204985D01*
X119518Y1204985D01*
X118625Y1204092D01*
X118625Y1190518D01*
X119518Y1189625D01*
X135668Y1189625D01*
X137076Y1189351D01*
X138320Y1188527D01*
X159318Y1167529D01*
X161256Y1166726D01*
X165289Y1166726D01*
X166697Y1166452D01*
X167941Y1165628D01*
X170712Y1162856D01*
G37*
G36*
X454353Y1195210D02*
X455538Y1195210D01*
X455538Y1204238D01*
X446510Y1204238D01*
X446510Y1203053D01*
X448000Y1199454D01*
X450754Y1196700D01*
X454353Y1195210D01*
G37*
G36*
X-5790Y1177062D02*
X13790Y1177062D01*
X13790Y1178247D01*
X12300Y1181846D01*
X9546Y1184600D01*
X5959Y1186085D01*
X4850Y1186795D01*
X3981Y1187999D01*
X3279Y1186919D01*
X2041Y1186085D01*
X-1546Y1184600D01*
X-4300Y1181846D01*
X-5790Y1178247D01*
X-5790Y1177062D01*
G37*
G36*
X2053Y1166510D02*
X3238Y1166510D01*
X3238Y1175538D01*
X-5790Y1175538D01*
X-5790Y1174353D01*
X-4300Y1170754D01*
X-1546Y1168000D01*
X2053Y1166510D01*
G37*
G36*
X4762Y1166510D02*
X5947Y1166510D01*
X9546Y1168000D01*
X12300Y1170754D01*
X13790Y1174353D01*
X13790Y1175538D01*
X4762Y1175538D01*
X4762Y1166510D01*
G37*
G36*
X576962Y1163210D02*
X581556Y1163210D01*
X582490Y1163596D01*
X583204Y1164311D01*
X583591Y1165244D01*
X583591Y1169592D01*
X576962Y1169592D01*
X576962Y1163210D01*
G37*
G36*
X570844Y1163210D02*
X575438Y1163210D01*
X575438Y1169592D01*
X568809Y1169592D01*
X568809Y1165244D01*
X569196Y1164311D01*
X569910Y1163596D01*
X570844Y1163210D01*
G37*
G36*
X549462Y1152108D02*
X560317Y1152108D01*
X560317Y1157674D01*
X559930Y1158608D01*
X559215Y1159322D01*
X558282Y1159709D01*
X549462Y1159709D01*
X549462Y1152108D01*
G37*
G36*
X537084Y1152108D02*
X547938Y1152108D01*
X547938Y1159709D01*
X539118Y1159709D01*
X538185Y1159322D01*
X537470Y1158608D01*
X537084Y1157674D01*
X537084Y1152108D01*
G37*
G36*
X28362Y1141762D02*
X39538Y1141762D01*
X39538Y1152938D01*
X37925Y1152938D01*
X33538Y1151121D01*
X30179Y1147762D01*
X28362Y1143375D01*
X28362Y1141762D01*
G37*
G36*
X-14538Y1141762D02*
X-3362Y1141762D01*
X-3362Y1143375D01*
X-5179Y1147762D01*
X-8538Y1151121D01*
X-12925Y1152938D01*
X-14538Y1152938D01*
X-14538Y1141762D01*
G37*
G36*
X549462Y1142983D02*
X558282Y1142983D01*
X559215Y1143370D01*
X559930Y1144084D01*
X560317Y1145018D01*
X560317Y1150584D01*
X549462Y1150584D01*
X549462Y1142983D01*
G37*
G36*
X539118Y1142983D02*
X547938Y1142983D01*
X547938Y1150584D01*
X537084Y1150584D01*
X537084Y1145018D01*
X537470Y1144084D01*
X538185Y1143370D01*
X539118Y1142983D01*
G37*
G36*
X511262Y1137340D02*
X514708Y1137340D01*
X520660Y1143292D01*
X520660Y1146738D01*
X511262Y1146738D01*
X511262Y1137340D01*
G37*
G36*
X506292Y1137340D02*
X509738Y1137340D01*
X509738Y1146738D01*
X500340Y1146738D01*
X500340Y1143292D01*
X506292Y1137340D01*
G37*
G36*
X-14538Y1129062D02*
X-12925Y1129062D01*
X-8538Y1130879D01*
X-5179Y1134238D01*
X-3362Y1138625D01*
X-3362Y1140238D01*
X-14538Y1140238D01*
X-14538Y1129062D01*
G37*
G36*
X37925Y1129062D02*
X39538Y1129062D01*
X39538Y1140238D01*
X28362Y1140238D01*
X28362Y1138625D01*
X30179Y1134238D01*
X33538Y1130879D01*
X37925Y1129062D01*
G37*
G36*
X609295Y1111336D02*
X612305Y1111336D01*
X615085Y1112488D01*
X617212Y1114615D01*
X618364Y1117395D01*
X618364Y1120405D01*
X617212Y1123185D01*
X615085Y1125312D01*
X612305Y1126464D01*
X609295Y1126464D01*
X606515Y1125312D01*
X604388Y1123185D01*
X603236Y1120405D01*
X603236Y1117395D01*
X604388Y1114615D01*
X606515Y1112488D01*
X609295Y1111336D01*
G37*
G36*
X609295Y1085936D02*
X612305Y1085936D01*
X615085Y1087088D01*
X617212Y1089215D01*
X618364Y1091995D01*
X618364Y1095005D01*
X617212Y1097785D01*
X615085Y1099912D01*
X612305Y1101064D01*
X609295Y1101064D01*
X606515Y1099912D01*
X604388Y1097785D01*
X603236Y1095005D01*
X603236Y1091995D01*
X604388Y1089215D01*
X606515Y1087088D01*
X609295Y1085936D01*
G37*
G36*
X491710Y1093762D02*
X498092Y1093762D01*
X498092Y1100391D01*
X493744Y1100391D01*
X492811Y1100004D01*
X492096Y1099290D01*
X491710Y1098356D01*
X491710Y1093762D01*
G37*
G36*
X-65742Y1089705D02*
X-53884Y1089705D01*
X-53884Y1090451D01*
X-55038Y1093237D01*
X-57171Y1095369D01*
X-59957Y1096523D01*
X-65742Y1096523D01*
X-65742Y1089705D01*
G37*
G36*
X-19624Y1086105D02*
X-7766Y1086105D01*
X-7766Y1092923D01*
X-13552Y1092923D01*
X-16338Y1091769D01*
X-18470Y1089637D01*
X-19624Y1086851D01*
X-19624Y1086105D01*
G37*
G36*
X493744Y1085609D02*
X498092Y1085609D01*
X498092Y1092238D01*
X491710Y1092238D01*
X491710Y1087644D01*
X492096Y1086710D01*
X492811Y1085996D01*
X493744Y1085609D01*
G37*
G36*
X-65742Y1081363D02*
X-59957Y1081363D01*
X-57171Y1082517D01*
X-55038Y1084650D01*
X-53884Y1087436D01*
X-53884Y1088181D01*
X-65742Y1088181D01*
X-65742Y1081363D01*
G37*
G36*
X107644Y1077609D02*
X124238Y1077609D01*
X124238Y1085543D01*
X105609Y1085543D01*
X105609Y1079644D01*
X105996Y1078710D01*
X106710Y1077996D01*
X107644Y1077609D01*
G37*
G36*
X609295Y1060536D02*
X612305Y1060536D01*
X615085Y1061688D01*
X617212Y1063815D01*
X618364Y1066595D01*
X618364Y1069605D01*
X617212Y1072385D01*
X615085Y1074512D01*
X612305Y1075664D01*
X609295Y1075664D01*
X606515Y1074512D01*
X604388Y1072385D01*
X603236Y1069605D01*
X603236Y1066595D01*
X604388Y1063815D01*
X606515Y1061688D01*
X609295Y1060536D01*
G37*
G36*
X609295Y1035136D02*
X612305Y1035136D01*
X615085Y1036288D01*
X617212Y1038415D01*
X618364Y1041195D01*
X618364Y1044205D01*
X617212Y1046985D01*
X615085Y1049112D01*
X612305Y1050264D01*
X609295Y1050264D01*
X606515Y1049112D01*
X604388Y1046985D01*
X603236Y1044205D01*
X603236Y1041195D01*
X604388Y1038415D01*
X606515Y1036288D01*
X609295Y1035136D01*
G37*
G36*
X611562Y1018062D02*
X619380Y1018062D01*
X619380Y1019007D01*
X618074Y1022160D01*
X615660Y1024574D01*
X612507Y1025880D01*
X611562Y1025880D01*
X611562Y1018062D01*
G37*
G36*
X602220Y1018062D02*
X610038Y1018062D01*
X610038Y1025880D01*
X609093Y1025880D01*
X605940Y1024574D01*
X603526Y1022160D01*
X602220Y1019007D01*
X602220Y1018062D01*
G37*
G36*
X393550Y1008456D02*
X404726Y1008456D01*
X404726Y1019632D01*
X403113Y1019632D01*
X398726Y1017815D01*
X395367Y1014456D01*
X393550Y1010069D01*
X393550Y1008456D01*
G37*
G36*
X458574Y1008456D02*
X469750Y1008456D01*
X469750Y1019632D01*
X468137Y1019632D01*
X463750Y1017815D01*
X460391Y1014456D01*
X458574Y1010069D01*
X458574Y1008456D01*
G37*
G36*
X471274Y1008456D02*
X482450Y1008456D01*
X482450Y1010069D01*
X480633Y1014456D01*
X477274Y1017815D01*
X472887Y1019632D01*
X471274Y1019632D01*
X471274Y1008456D01*
G37*
G36*
X406250Y1008456D02*
X417426Y1008456D01*
X417426Y1010069D01*
X415609Y1014456D01*
X412250Y1017815D01*
X407863Y1019632D01*
X406250Y1019632D01*
X406250Y1008456D01*
G37*
G36*
X609093Y1008720D02*
X610038Y1008720D01*
X610038Y1016538D01*
X602220Y1016538D01*
X602220Y1015593D01*
X603526Y1012440D01*
X605940Y1010026D01*
X609093Y1008720D01*
G37*
G36*
X611562Y1008720D02*
X612507Y1008720D01*
X615660Y1010026D01*
X618074Y1012440D01*
X619380Y1015593D01*
X619380Y1016538D01*
X611562Y1016538D01*
X611562Y1008720D01*
G37*
G36*
X12858Y1012503D02*
X16101Y1012503D01*
X17035Y1012890D01*
X17749Y1013604D01*
X18136Y1014538D01*
X18136Y1015781D01*
X12858Y1015781D01*
X12858Y1012503D01*
G37*
G36*
X403113Y995756D02*
X404726Y995756D01*
X404726Y1006932D01*
X393550Y1006932D01*
X393550Y1005319D01*
X395367Y1000932D01*
X398726Y997573D01*
X403113Y995756D01*
G37*
G36*
X406250Y995756D02*
X407863Y995756D01*
X412250Y997573D01*
X415609Y1000932D01*
X417426Y1005319D01*
X417426Y1006932D01*
X406250Y1006932D01*
X406250Y995756D01*
G37*
G36*
X468137Y995756D02*
X469750Y995756D01*
X469750Y1006932D01*
X458574Y1006932D01*
X458574Y1005319D01*
X460391Y1000932D01*
X463750Y997573D01*
X468137Y995756D01*
G37*
G36*
X471274Y995756D02*
X472887Y995756D01*
X477274Y997573D01*
X480633Y1000932D01*
X482450Y1005319D01*
X482450Y1006932D01*
X471274Y1006932D01*
X471274Y995756D01*
G37*
G36*
X-6242Y995163D02*
X-457Y995163D01*
X2329Y996317D01*
X4462Y998450D01*
X5616Y1001236D01*
X5616Y1001981D01*
X-6242Y1001981D01*
X-6242Y995163D01*
G37*
G36*
X609295Y984336D02*
X612305Y984336D01*
X615085Y985488D01*
X617212Y987615D01*
X618364Y990395D01*
X618364Y993405D01*
X617212Y996185D01*
X615085Y998312D01*
X612305Y999464D01*
X609295Y999464D01*
X606515Y998312D01*
X604388Y996185D01*
X603236Y993405D01*
X603236Y990395D01*
X604388Y987615D01*
X606515Y985488D01*
X609295Y984336D01*
G37*
G36*
X8516Y967762D02*
X16117Y967762D01*
X16117Y976582D01*
X15730Y977515D01*
X15016Y978230D01*
X14082Y978617D01*
X8516Y978617D01*
X8516Y967762D01*
G37*
G36*
X-609Y967762D02*
X6992Y967762D01*
X6992Y978617D01*
X1426Y978617D01*
X492Y978230D01*
X-222Y977515D01*
X-609Y976582D01*
X-609Y967762D01*
G37*
G36*
X609295Y958936D02*
X612305Y958936D01*
X615085Y960088D01*
X617212Y962215D01*
X618364Y964995D01*
X618364Y968005D01*
X617212Y970785D01*
X615085Y972912D01*
X612305Y974064D01*
X609295Y974064D01*
X606515Y972912D01*
X604388Y970785D01*
X603236Y968005D01*
X603236Y964995D01*
X604388Y962215D01*
X606515Y960088D01*
X609295Y958936D01*
G37*
G36*
X8516Y955384D02*
X14082Y955384D01*
X15016Y955770D01*
X15730Y956485D01*
X16117Y957418D01*
X16117Y966238D01*
X8516Y966238D01*
X8516Y955384D01*
G37*
G36*
X1426Y955384D02*
X6992Y955384D01*
X6992Y966238D01*
X-609Y966238D01*
X-609Y957418D01*
X-222Y956485D01*
X492Y955770D01*
X1426Y955384D01*
G37*
G36*
X34010Y936317D02*
X52390Y936317D01*
X53283Y937210D01*
X53283Y949093D01*
X53145Y949722D01*
X53418Y951190D01*
X53601Y951465D01*
X53601Y964700D01*
X52708Y965593D01*
X33292Y965593D01*
X32400Y964700D01*
X32400Y951608D01*
X32820Y950984D01*
X33117Y949521D01*
X33117Y937210D01*
X34010Y936317D01*
G37*
G36*
X385008Y957462D02*
X391468Y957462D01*
X391391Y957845D01*
X391391Y962056D01*
X391004Y962990D01*
X390289Y963704D01*
X389356Y964091D01*
X385008Y964091D01*
X385008Y957462D01*
G37*
G36*
X406150Y946668D02*
X417326Y946668D01*
X417326Y948281D01*
X415509Y952668D01*
X412150Y956027D01*
X407763Y957844D01*
X406150Y957844D01*
X406150Y946668D01*
G37*
G36*
X471174Y946668D02*
X482350Y946668D01*
X482350Y948281D01*
X480533Y952668D01*
X477174Y956027D01*
X472787Y957844D01*
X471174Y957844D01*
X471174Y946668D01*
G37*
G36*
X458474Y946668D02*
X469650Y946668D01*
X469650Y957844D01*
X468037Y957844D01*
X463650Y956027D01*
X460291Y952668D01*
X458474Y948281D01*
X458474Y946668D01*
G37*
G36*
X393225Y946668D02*
X404626Y946668D01*
X404626Y957844D01*
X403013Y957844D01*
X398626Y956027D01*
X397792Y955193D01*
X396712Y954440D01*
X395260Y954097D01*
X393789Y954347D01*
X392531Y955151D01*
X391772Y956260D01*
X391772Y955938D01*
X385008Y955938D01*
X385008Y949309D01*
X389700Y949309D01*
X391052Y949057D01*
X392309Y948253D01*
X393153Y947022D01*
X393225Y946668D01*
G37*
G36*
X-11660Y937262D02*
X-2262Y937262D01*
X-2262Y946660D01*
X-5708Y946660D01*
X-11660Y940708D01*
X-11660Y937262D01*
G37*
G36*
X-738Y937262D02*
X8660Y937262D01*
X8660Y940708D01*
X2708Y946660D01*
X-738Y946660D01*
X-738Y937262D01*
G37*
G36*
X403013Y933968D02*
X404626Y933968D01*
X404626Y945144D01*
X393450Y945144D01*
X393450Y943531D01*
X395267Y939144D01*
X398626Y935785D01*
X403013Y933968D01*
G37*
G36*
X406150Y933968D02*
X407763Y933968D01*
X412150Y935785D01*
X415509Y939144D01*
X417326Y943531D01*
X417326Y945144D01*
X406150Y945144D01*
X406150Y933968D01*
G37*
G36*
X468037Y933968D02*
X469650Y933968D01*
X469650Y945144D01*
X458474Y945144D01*
X458474Y943531D01*
X460291Y939144D01*
X463650Y935785D01*
X468037Y933968D01*
G37*
G36*
X471174Y933968D02*
X472787Y933968D01*
X477174Y935785D01*
X480533Y939144D01*
X482350Y943531D01*
X482350Y945144D01*
X471174Y945144D01*
X471174Y933968D01*
G37*
G36*
X-5708Y926340D02*
X-2262Y926340D01*
X-2262Y935738D01*
X-11660Y935738D01*
X-11660Y932292D01*
X-5708Y926340D01*
G37*
G36*
X-738Y926340D02*
X2708Y926340D01*
X8660Y932292D01*
X8660Y935738D01*
X-738Y935738D01*
X-738Y926340D01*
G37*
G36*
X707560Y493922D02*
X727640Y493922D01*
X727640Y498165D01*
X727009Y499688D01*
X726921Y499819D01*
X726624Y501281D01*
X726624Y663391D01*
X725731Y664284D01*
X724874Y664284D01*
X723522Y664536D01*
X722265Y665340D01*
X721421Y666571D01*
X721124Y668034D01*
X721124Y696461D01*
X720728Y697418D01*
X720446Y698674D01*
X720552Y699363D01*
X719136Y699628D01*
X717892Y700452D01*
X686050Y732294D01*
X684755Y732830D01*
X644813Y732830D01*
X643406Y733104D01*
X642161Y733928D01*
X513135Y862954D01*
X512382Y864034D01*
X512039Y865486D01*
X512289Y866958D01*
X513093Y868215D01*
X514324Y869059D01*
X515787Y869356D01*
X523288Y869356D01*
X526059Y872128D01*
X527248Y872929D01*
X528711Y873226D01*
X553008Y873226D01*
X554416Y872952D01*
X555660Y872128D01*
X562801Y864987D01*
X563602Y863798D01*
X563899Y862335D01*
X563899Y854292D01*
X564792Y853400D01*
X577700Y853400D01*
X578593Y854292D01*
X578593Y873708D01*
X577700Y874601D01*
X569657Y874601D01*
X568250Y874875D01*
X567006Y875699D01*
X559734Y882971D01*
X557795Y883774D01*
X528711Y883774D01*
X527303Y884048D01*
X526059Y884872D01*
X523288Y887644D01*
X515712Y887644D01*
X510356Y882288D01*
X510356Y874787D01*
X510125Y873491D01*
X509341Y872221D01*
X508124Y871358D01*
X506666Y871037D01*
X505199Y871311D01*
X503954Y872135D01*
X482003Y894087D01*
X481213Y895248D01*
X480905Y896709D01*
X481190Y898174D01*
X481334Y898522D01*
X481334Y902866D01*
X479671Y906881D01*
X476599Y909953D01*
X472584Y911616D01*
X468240Y911616D01*
X464225Y909953D01*
X461153Y906881D01*
X461009Y906533D01*
X460238Y905359D01*
X459007Y904515D01*
X457544Y904218D01*
X418256Y904218D01*
X416876Y904481D01*
X415625Y905295D01*
X414791Y906533D01*
X414647Y906881D01*
X411575Y909953D01*
X407560Y911616D01*
X403216Y911616D01*
X399201Y909953D01*
X395845Y906597D01*
X395579Y906185D01*
X394362Y905322D01*
X392904Y905001D01*
X391437Y905275D01*
X390193Y906099D01*
X385085Y911207D01*
X384332Y912287D01*
X383988Y913739D01*
X384239Y915211D01*
X385043Y916468D01*
X386274Y917312D01*
X387736Y917609D01*
X389356Y917609D01*
X390289Y917996D01*
X391004Y918710D01*
X391391Y919644D01*
X391391Y924238D01*
X383484Y924238D01*
X383484Y932391D01*
X379136Y932391D01*
X377936Y931894D01*
X377299Y931457D01*
X375842Y931137D01*
X374565Y931375D01*
X363518Y931375D01*
X361766Y929622D01*
X360577Y928821D01*
X359114Y928524D01*
X337913Y928524D01*
X336561Y928776D01*
X335304Y929580D01*
X334460Y930811D01*
X334163Y932274D01*
X334163Y933558D01*
X333270Y934451D01*
X308088Y934451D01*
X307195Y933558D01*
X307195Y916642D01*
X308088Y915750D01*
X333270Y915750D01*
X334163Y916642D01*
X334163Y917726D01*
X334415Y919078D01*
X335219Y920335D01*
X336450Y921179D01*
X337913Y921476D01*
X359114Y921476D01*
X360521Y921202D01*
X361766Y920378D01*
X363518Y918625D01*
X365998Y918625D01*
X367036Y918479D01*
X368359Y917788D01*
X369140Y917156D01*
X369431Y916894D01*
X388618Y897706D01*
X389914Y897170D01*
X392520Y897170D01*
X393900Y896907D01*
X395151Y896093D01*
X395985Y894855D01*
X396129Y894507D01*
X399201Y891435D01*
X403216Y889772D01*
X407560Y889772D01*
X411575Y891435D01*
X414647Y894507D01*
X414791Y894855D01*
X415562Y896029D01*
X416793Y896873D01*
X418256Y897170D01*
X457544Y897170D01*
X458924Y896907D01*
X460175Y896093D01*
X461009Y894855D01*
X461153Y894507D01*
X464225Y891435D01*
X468240Y889772D01*
X472585Y889772D01*
X472932Y889916D01*
X474308Y890201D01*
X475775Y889927D01*
X477019Y889103D01*
X639804Y726318D01*
X641099Y725782D01*
X666297Y725782D01*
X667593Y725551D01*
X668863Y724767D01*
X669726Y723550D01*
X670047Y722092D01*
X669773Y720625D01*
X668949Y719380D01*
X667248Y717680D01*
X665856Y714319D01*
X665856Y710681D01*
X667248Y707320D01*
X669417Y705152D01*
X670194Y704018D01*
X670515Y702560D01*
X670241Y701093D01*
X669417Y699848D01*
X667248Y697680D01*
X665856Y694319D01*
X665856Y690681D01*
X667248Y687320D01*
X669417Y685152D01*
X670194Y684018D01*
X670515Y682560D01*
X670241Y681093D01*
X669417Y679848D01*
X667248Y677680D01*
X665856Y674319D01*
X665856Y670681D01*
X667248Y667320D01*
X669417Y665152D01*
X670194Y664018D01*
X670515Y662560D01*
X670241Y661093D01*
X669417Y659848D01*
X667248Y657680D01*
X667114Y657355D01*
X666343Y656181D01*
X665112Y655337D01*
X663649Y655040D01*
X661105Y655040D01*
X659698Y655314D01*
X658454Y656138D01*
X652638Y661954D01*
X651837Y663143D01*
X651540Y664605D01*
X651540Y700921D01*
X651153Y701854D01*
X473694Y879313D01*
X472761Y879700D01*
X253786Y879700D01*
X252853Y879313D01*
X248415Y874875D01*
X247280Y874097D01*
X245823Y873777D01*
X244356Y874051D01*
X243111Y874875D01*
X241208Y876778D01*
X228300Y876778D01*
X227407Y875885D01*
X227407Y856470D01*
X228300Y855577D01*
X241208Y855577D01*
X242101Y856470D01*
X242101Y860422D01*
X242364Y861802D01*
X243178Y863053D01*
X244416Y863887D01*
X244748Y864024D01*
X254245Y873522D01*
X255434Y874323D01*
X256897Y874620D01*
X260135Y874620D01*
X261431Y874389D01*
X262701Y873605D01*
X263564Y872388D01*
X263885Y870930D01*
X263611Y869463D01*
X262787Y868218D01*
X258356Y863788D01*
X258356Y856212D01*
X263327Y851242D01*
X264080Y850162D01*
X264423Y848710D01*
X264173Y847238D01*
X263369Y845981D01*
X262138Y845137D01*
X260675Y844840D01*
X244522Y844840D01*
X243115Y845114D01*
X241870Y845938D01*
X241208Y846601D01*
X228300Y846601D01*
X227407Y845708D01*
X227407Y826292D01*
X228300Y825400D01*
X241208Y825400D01*
X242101Y826292D01*
X242101Y836010D01*
X242353Y837362D01*
X243157Y838619D01*
X244388Y839463D01*
X245851Y839760D01*
X260275Y839760D01*
X261571Y839529D01*
X262841Y838745D01*
X263704Y837528D01*
X264025Y836070D01*
X263751Y834603D01*
X262927Y833358D01*
X258356Y828788D01*
X258356Y821001D01*
X258082Y819594D01*
X257258Y818350D01*
X256546Y817638D01*
X255357Y816837D01*
X253895Y816540D01*
X185617Y816540D01*
X184684Y816153D01*
X151847Y783316D01*
X151490Y782455D01*
X150719Y781281D01*
X149488Y780437D01*
X148262Y780188D01*
X148262Y762460D01*
X149805Y762460D01*
X151328Y763091D01*
X151459Y763179D01*
X152921Y763476D01*
X154210Y763476D01*
X155562Y763224D01*
X156819Y762420D01*
X157663Y761189D01*
X157960Y759726D01*
X157960Y757894D01*
X157708Y756542D01*
X156904Y755285D01*
X155673Y754441D01*
X154210Y754144D01*
X153712Y754144D01*
X148356Y748788D01*
X148356Y741212D01*
X153712Y735856D01*
X161288Y735856D01*
X166644Y741212D01*
X166644Y748788D01*
X164138Y751293D01*
X163337Y752482D01*
X163040Y753945D01*
X163040Y758710D01*
X163292Y760062D01*
X164096Y761319D01*
X165327Y762163D01*
X166238Y762348D01*
X166238Y780140D01*
X164908Y780140D01*
X163612Y780371D01*
X162342Y781155D01*
X161479Y782373D01*
X161158Y783830D01*
X161432Y785297D01*
X162256Y786542D01*
X186076Y810362D01*
X187265Y811163D01*
X188728Y811460D01*
X257005Y811460D01*
X257939Y811847D01*
X260850Y814758D01*
X262039Y815559D01*
X263501Y815856D01*
X271288Y815856D01*
X276644Y821212D01*
X276644Y828788D01*
X272073Y833358D01*
X271320Y834438D01*
X270977Y835890D01*
X271227Y837362D01*
X272031Y838619D01*
X273262Y839463D01*
X274725Y839760D01*
X480452Y839760D01*
X481860Y839486D01*
X483104Y838662D01*
X628336Y693430D01*
X629137Y692241D01*
X629434Y690778D01*
X629434Y532292D01*
X629821Y531358D01*
X644758Y516421D01*
X645559Y515232D01*
X645856Y513769D01*
X645856Y506749D01*
X646749Y505856D01*
X658999Y505856D01*
X660406Y505582D01*
X661650Y504758D01*
X662701Y503707D01*
X663635Y503320D01*
X704083Y503320D01*
X705407Y503079D01*
X706670Y502284D01*
X707524Y501060D01*
X707833Y499600D01*
X707560Y498199D01*
X707560Y493922D01*
G37*
G36*
X385008Y925762D02*
X391391Y925762D01*
X391391Y930356D01*
X391004Y931290D01*
X390289Y932004D01*
X389356Y932391D01*
X385008Y932391D01*
X385008Y925762D01*
G37*
G36*
X32101Y912912D02*
X42438Y912912D01*
X42438Y919499D01*
X34136Y919499D01*
X33202Y919112D01*
X32488Y918398D01*
X32101Y917464D01*
X32101Y912912D01*
G37*
G36*
X43962Y912912D02*
X54299Y912912D01*
X54299Y917464D01*
X53912Y918398D01*
X53198Y919112D01*
X52264Y919499D01*
X43962Y919499D01*
X43962Y912912D01*
G37*
G36*
X34136Y904801D02*
X42438Y904801D01*
X42438Y911388D01*
X32101Y911388D01*
X32101Y906836D01*
X32488Y905902D01*
X33202Y905188D01*
X34136Y904801D01*
G37*
G36*
X43962Y904801D02*
X52264Y904801D01*
X53198Y905188D01*
X53912Y905902D01*
X54299Y906836D01*
X54299Y911388D01*
X43962Y911388D01*
X43962Y904801D01*
G37*
G36*
X80292Y874407D02*
X99708Y874407D01*
X100601Y875300D01*
X100601Y878710D01*
X100853Y880062D01*
X101657Y881319D01*
X102888Y882163D01*
X104351Y882460D01*
X118055Y882460D01*
X119463Y882186D01*
X120707Y881362D01*
X126212Y875856D01*
X133788Y875856D01*
X139144Y881212D01*
X139144Y888788D01*
X133788Y894144D01*
X126212Y894144D01*
X120707Y888638D01*
X119518Y887837D01*
X118055Y887540D01*
X102822Y887540D01*
X101415Y887814D01*
X100170Y888638D01*
X99708Y889101D01*
X80292Y889101D01*
X79400Y888208D01*
X79400Y875300D01*
X80292Y874407D01*
G37*
G36*
X44262Y872162D02*
X53040Y872162D01*
X53040Y877905D01*
X52653Y878839D01*
X51939Y879553D01*
X51005Y879940D01*
X44262Y879940D01*
X44262Y872162D01*
G37*
G36*
X33960Y872162D02*
X42738Y872162D01*
X42738Y879940D01*
X35995Y879940D01*
X35061Y879553D01*
X34347Y878839D01*
X33960Y877905D01*
X33960Y872162D01*
G37*
G36*
X-66040Y871662D02*
X-53262Y871662D01*
X-53262Y879440D01*
X-64005Y879440D01*
X-64939Y879053D01*
X-65653Y878339D01*
X-66040Y877405D01*
X-66040Y871662D01*
G37*
G36*
X-51738Y871662D02*
X-38960Y871662D01*
X-38960Y877405D01*
X-39347Y878339D01*
X-40061Y879053D01*
X-40995Y879440D01*
X-51738Y879440D01*
X-51738Y871662D01*
G37*
G36*
X200792Y681400D02*
X213700Y681400D01*
X214593Y682292D01*
X214593Y701708D01*
X213700Y702601D01*
X200792Y702601D01*
X199899Y701708D01*
X199899Y698290D01*
X199647Y696938D01*
X198843Y695681D01*
X197612Y694837D01*
X196149Y694540D01*
X174828Y694540D01*
X173420Y694814D01*
X172176Y695638D01*
X139098Y728716D01*
X138297Y729905D01*
X138000Y731368D01*
X138000Y751775D01*
X138274Y753183D01*
X139098Y754427D01*
X143153Y758482D01*
X143779Y759993D01*
X143792Y760062D01*
X144596Y761319D01*
X145827Y762163D01*
X146738Y762348D01*
X146738Y780140D01*
X145195Y780140D01*
X143672Y779509D01*
X143541Y779421D01*
X142079Y779124D01*
X132802Y779124D01*
X131506Y779355D01*
X130237Y780139D01*
X129373Y781357D01*
X129053Y782814D01*
X129326Y784281D01*
X130151Y785526D01*
X162739Y818114D01*
X163173Y819161D01*
X163944Y820335D01*
X165175Y821179D01*
X166637Y821476D01*
X168079Y821476D01*
X169486Y821202D01*
X169623Y821111D01*
X171195Y820460D01*
X172738Y820460D01*
X172738Y830062D01*
X177840Y830062D01*
X177840Y835050D01*
X178092Y836402D01*
X178896Y837659D01*
X180127Y838503D01*
X181590Y838800D01*
X194149Y838800D01*
X195501Y838548D01*
X196758Y837744D01*
X197602Y836513D01*
X197899Y835050D01*
X197899Y826292D01*
X198792Y825400D01*
X211700Y825400D01*
X212593Y826292D01*
X212593Y845708D01*
X211700Y846601D01*
X198792Y846601D01*
X197170Y844978D01*
X195981Y844177D01*
X194518Y843880D01*
X187302Y843880D01*
X186006Y844111D01*
X184736Y844895D01*
X183872Y846113D01*
X183552Y847570D01*
X183826Y849037D01*
X184650Y850282D01*
X187660Y853292D01*
X187660Y856738D01*
X167340Y856738D01*
X167340Y853292D01*
X171255Y849376D01*
X172020Y848270D01*
X172352Y846815D01*
X172091Y845345D01*
X171276Y844095D01*
X171050Y843942D01*
X165330Y838222D01*
X164141Y837421D01*
X162679Y837124D01*
X159421Y837124D01*
X158014Y837398D01*
X157877Y837489D01*
X156305Y838140D01*
X154762Y838140D01*
X154762Y828538D01*
X153238Y828538D01*
X153238Y838243D01*
X152438Y838392D01*
X151181Y839196D01*
X150337Y840427D01*
X150040Y841890D01*
X150040Y848272D01*
X150314Y849680D01*
X151138Y850924D01*
X160938Y860724D01*
X162018Y861477D01*
X163470Y861820D01*
X164942Y861570D01*
X166199Y860766D01*
X167043Y859535D01*
X167301Y858262D01*
X187660Y858262D01*
X187660Y861708D01*
X184510Y864858D01*
X183757Y865938D01*
X183414Y867390D01*
X183664Y868862D01*
X184468Y870119D01*
X185699Y870963D01*
X187162Y871260D01*
X194149Y871260D01*
X195501Y871008D01*
X196758Y870204D01*
X197602Y868973D01*
X197899Y867510D01*
X197899Y856470D01*
X198792Y855577D01*
X211700Y855577D01*
X212593Y856470D01*
X212593Y875885D01*
X211700Y876778D01*
X198472Y876778D01*
X198263Y876637D01*
X196800Y876340D01*
X169917Y876340D01*
X168984Y875953D01*
X145347Y852316D01*
X144960Y851383D01*
X144960Y840874D01*
X144708Y839522D01*
X143904Y838265D01*
X142673Y837421D01*
X141210Y837124D01*
X139921Y837124D01*
X138514Y837398D01*
X138377Y837489D01*
X136805Y838140D01*
X135262Y838140D01*
X135262Y828538D01*
X130160Y828538D01*
X130160Y824190D01*
X129908Y822838D01*
X129104Y821581D01*
X127873Y820737D01*
X126410Y820440D01*
X65495Y820440D01*
X64225Y819914D01*
X62910Y819631D01*
X61438Y819881D01*
X60181Y820685D01*
X59337Y821916D01*
X59040Y823379D01*
X59040Y825638D01*
X37960Y825638D01*
X37960Y822395D01*
X38591Y820872D01*
X38679Y820741D01*
X38976Y819279D01*
X38976Y767269D01*
X39869Y766376D01*
X57131Y766376D01*
X58024Y767269D01*
X58024Y775224D01*
X58276Y776576D01*
X59080Y777833D01*
X60311Y778677D01*
X61774Y778974D01*
X65895Y778974D01*
X67302Y778700D01*
X68546Y777876D01*
X74775Y771647D01*
X75709Y771260D01*
X127426Y771260D01*
X128778Y771008D01*
X130035Y770204D01*
X130879Y768973D01*
X131176Y767510D01*
X131176Y764369D01*
X132103Y763442D01*
X133206Y763245D01*
X134476Y762461D01*
X135339Y761244D01*
X135660Y759786D01*
X135386Y758319D01*
X134562Y757074D01*
X133307Y755819D01*
X132920Y754886D01*
X132920Y728257D01*
X133307Y727324D01*
X170784Y689847D01*
X171717Y689460D01*
X196149Y689460D01*
X197501Y689208D01*
X198758Y688404D01*
X199602Y687173D01*
X199899Y685710D01*
X199899Y682292D01*
X200792Y681400D01*
G37*
G36*
X844395Y858736D02*
X847205Y858736D01*
X849801Y859811D01*
X851789Y861799D01*
X852864Y864395D01*
X852864Y867205D01*
X851789Y869801D01*
X849801Y871789D01*
X847205Y872864D01*
X844395Y872864D01*
X841799Y871789D01*
X839811Y869801D01*
X838736Y867205D01*
X838736Y864395D01*
X839811Y861799D01*
X841799Y859811D01*
X844395Y858736D01*
G37*
G36*
X818995Y858736D02*
X821805Y858736D01*
X824401Y859811D01*
X826389Y861799D01*
X827464Y864395D01*
X827464Y867205D01*
X826389Y869801D01*
X824401Y871789D01*
X821805Y872864D01*
X818995Y872864D01*
X816399Y871789D01*
X814411Y869801D01*
X813336Y867205D01*
X813336Y864395D01*
X814411Y861799D01*
X816399Y859811D01*
X818995Y858736D01*
G37*
G36*
X37960Y827162D02*
X59040Y827162D01*
X59040Y831110D01*
X59292Y832462D01*
X60096Y833719D01*
X61327Y834563D01*
X62790Y834860D01*
X75659Y834860D01*
X76593Y835247D01*
X85147Y843801D01*
X86336Y844602D01*
X87798Y844899D01*
X99708Y844899D01*
X100601Y845792D01*
X100601Y858700D01*
X99708Y859593D01*
X80292Y859593D01*
X79400Y858700D01*
X79400Y846791D01*
X79125Y845384D01*
X78301Y844139D01*
X75200Y841038D01*
X74011Y840237D01*
X72549Y839940D01*
X61774Y839940D01*
X60422Y840192D01*
X59165Y840996D01*
X58321Y842227D01*
X58024Y843690D01*
X58024Y863531D01*
X57131Y864424D01*
X56790Y864424D01*
X55438Y864676D01*
X54181Y865480D01*
X53337Y866711D01*
X53040Y868174D01*
X53040Y870638D01*
X33960Y870638D01*
X33960Y864895D01*
X34347Y863961D01*
X35061Y863247D01*
X36661Y862584D01*
X37835Y861813D01*
X38679Y860582D01*
X38976Y859119D01*
X38976Y833521D01*
X38702Y832114D01*
X38611Y831977D01*
X37960Y830405D01*
X37960Y827162D01*
G37*
G36*
X-64005Y862360D02*
X-53262Y862360D01*
X-53262Y870138D01*
X-66040Y870138D01*
X-66040Y864395D01*
X-65653Y863461D01*
X-64939Y862747D01*
X-64005Y862360D01*
G37*
G36*
X-51738Y862360D02*
X-40995Y862360D01*
X-40061Y862747D01*
X-39347Y863461D01*
X-38960Y864395D01*
X-38960Y870138D01*
X-51738Y870138D01*
X-51738Y862360D01*
G37*
G36*
X-58452Y835614D02*
X-54548Y835614D01*
X-51166Y837566D01*
X-49214Y840948D01*
X-49214Y844852D01*
X-51166Y848234D01*
X-54548Y850186D01*
X-58452Y850186D01*
X-61834Y848234D01*
X-63786Y844852D01*
X-63786Y840948D01*
X-61834Y837566D01*
X-58452Y835614D01*
G37*
G36*
X818995Y833336D02*
X821805Y833336D01*
X824401Y834411D01*
X826389Y836399D01*
X827464Y838995D01*
X827464Y841805D01*
X826389Y844401D01*
X824401Y846389D01*
X821805Y847464D01*
X818995Y847464D01*
X816399Y846389D01*
X814411Y844401D01*
X813336Y841805D01*
X813336Y838995D01*
X814411Y836399D01*
X816399Y834411D01*
X818995Y833336D01*
G37*
G36*
X844395Y833336D02*
X847205Y833336D01*
X849801Y834411D01*
X851789Y836399D01*
X852864Y838995D01*
X852864Y841805D01*
X851789Y844401D01*
X849801Y846389D01*
X847205Y847464D01*
X844395Y847464D01*
X841799Y846389D01*
X839811Y844401D01*
X838736Y841805D01*
X838736Y838995D01*
X839811Y836399D01*
X841799Y834411D01*
X844395Y833336D01*
G37*
G36*
X130160Y830062D02*
X133738Y830062D01*
X133738Y838140D01*
X132195Y838140D01*
X131261Y837753D01*
X130547Y837039D01*
X130160Y836105D01*
X130160Y830062D01*
G37*
G36*
X233106Y552450D02*
X265868Y552450D01*
X266761Y553343D01*
X266761Y570103D01*
X267013Y571455D01*
X267817Y572712D01*
X269048Y573556D01*
X270511Y573853D01*
X323678Y573853D01*
X325157Y574466D01*
X393411Y642721D01*
X394024Y644200D01*
X394024Y714280D01*
X394298Y715687D01*
X395122Y716932D01*
X404168Y725978D01*
X405357Y726779D01*
X406820Y727076D01*
X426889Y727076D01*
X428213Y726835D01*
X429477Y726040D01*
X430330Y724816D01*
X430639Y723356D01*
X430354Y721891D01*
X430220Y721568D01*
X430220Y719162D01*
X442892Y719162D01*
X442892Y717638D01*
X430220Y717638D01*
X430220Y715232D01*
X430800Y713831D01*
X430981Y713568D01*
X431301Y712110D01*
X431027Y710643D01*
X430834Y710351D01*
X430220Y708868D01*
X430220Y706462D01*
X442892Y706462D01*
X442892Y704938D01*
X430220Y704938D01*
X430220Y702532D01*
X430800Y701131D01*
X430981Y700868D01*
X431301Y699410D01*
X431027Y697943D01*
X430834Y697651D01*
X430220Y696168D01*
X430220Y693762D01*
X442892Y693762D01*
X442892Y692238D01*
X430220Y692238D01*
X430220Y689832D01*
X430800Y688431D01*
X430981Y688168D01*
X431301Y686710D01*
X431027Y685243D01*
X430834Y684951D01*
X430220Y683468D01*
X430220Y681062D01*
X454040Y681062D01*
X454040Y683468D01*
X453460Y684869D01*
X453279Y685133D01*
X452959Y686590D01*
X453233Y688057D01*
X453426Y688349D01*
X454246Y690328D01*
X454292Y690578D01*
X455096Y691835D01*
X456327Y692679D01*
X457790Y692976D01*
X465487Y692976D01*
X466839Y692724D01*
X468096Y691920D01*
X468940Y690689D01*
X469237Y689226D01*
X469237Y688642D01*
X470130Y687750D01*
X495312Y687750D01*
X496205Y688642D01*
X496205Y705558D01*
X495312Y706451D01*
X470130Y706451D01*
X469426Y705746D01*
X468346Y704993D01*
X466894Y704650D01*
X465422Y704900D01*
X464165Y705704D01*
X463321Y706935D01*
X463024Y708398D01*
X463024Y722650D01*
X463276Y724001D01*
X464080Y725259D01*
X465311Y726103D01*
X466774Y726400D01*
X478700Y726400D01*
X479593Y727292D01*
X479593Y746708D01*
X478700Y747601D01*
X465792Y747601D01*
X465630Y747438D01*
X464441Y746637D01*
X462978Y746340D01*
X455332Y746340D01*
X453924Y746614D01*
X452680Y747438D01*
X452620Y747498D01*
X451842Y748633D01*
X451522Y750090D01*
X451796Y751557D01*
X452620Y752802D01*
X453024Y753206D01*
X453024Y759710D01*
X453276Y761062D01*
X454080Y762319D01*
X455311Y763163D01*
X456774Y763460D01*
X461149Y763460D01*
X462501Y763208D01*
X463758Y762404D01*
X464602Y761173D01*
X464899Y759710D01*
X464899Y756292D01*
X465792Y755400D01*
X478700Y755400D01*
X479593Y756292D01*
X479593Y775708D01*
X478700Y776601D01*
X465792Y776601D01*
X464899Y775708D01*
X464899Y772290D01*
X464647Y770938D01*
X463843Y769681D01*
X462612Y768837D01*
X461149Y768540D01*
X452125Y768540D01*
X451191Y768153D01*
X445282Y762244D01*
X444148Y761466D01*
X442690Y761146D01*
X441223Y761420D01*
X439978Y762244D01*
X435338Y766884D01*
X434537Y768073D01*
X434240Y769535D01*
X434240Y795029D01*
X434503Y796409D01*
X435317Y797659D01*
X436555Y798494D01*
X436880Y798628D01*
X439452Y801200D01*
X440844Y804561D01*
X440844Y823439D01*
X439452Y826800D01*
X436880Y829372D01*
X433519Y830764D01*
X429881Y830764D01*
X426520Y829372D01*
X423948Y826800D01*
X422465Y823218D01*
X421755Y822109D01*
X420545Y821236D01*
X419090Y820904D01*
X417620Y821166D01*
X416370Y821980D01*
X415535Y823218D01*
X414052Y826800D01*
X411480Y829372D01*
X408119Y830764D01*
X404481Y830764D01*
X401120Y829372D01*
X398548Y826800D01*
X397156Y823439D01*
X397156Y804561D01*
X398548Y801200D01*
X401120Y798628D01*
X401445Y798494D01*
X402619Y797723D01*
X403463Y796492D01*
X403760Y795029D01*
X403760Y760967D01*
X404147Y760033D01*
X422654Y741526D01*
X423407Y740446D01*
X423751Y738994D01*
X423500Y737522D01*
X422696Y736265D01*
X421465Y735421D01*
X420003Y735124D01*
X402800Y735124D01*
X401321Y734511D01*
X386589Y719779D01*
X385976Y718300D01*
X385976Y648220D01*
X385702Y646813D01*
X384878Y645568D01*
X322309Y583000D01*
X321120Y582198D01*
X319657Y581901D01*
X270511Y581901D01*
X269159Y582153D01*
X267902Y582958D01*
X267058Y584189D01*
X266761Y585651D01*
X266761Y602406D01*
X265868Y603298D01*
X233106Y603298D01*
X232213Y602406D01*
X232213Y553343D01*
X233106Y552450D01*
G37*
G36*
X174262Y820460D02*
X175805Y820460D01*
X176739Y820847D01*
X177453Y821561D01*
X177840Y822495D01*
X177840Y828538D01*
X174262Y828538D01*
X174262Y820460D01*
G37*
G36*
X846562Y815762D02*
X853880Y815762D01*
X853880Y816607D01*
X852650Y819577D01*
X850377Y821850D01*
X847407Y823080D01*
X846562Y823080D01*
X846562Y815762D01*
G37*
G36*
X837720Y815762D02*
X845038Y815762D01*
X845038Y823080D01*
X844193Y823080D01*
X841223Y821850D01*
X838950Y819577D01*
X837720Y816607D01*
X837720Y815762D01*
G37*
G36*
X818995Y807936D02*
X821805Y807936D01*
X824401Y809011D01*
X826389Y810999D01*
X827464Y813595D01*
X827464Y816405D01*
X826389Y819001D01*
X824401Y820989D01*
X821805Y822064D01*
X818995Y822064D01*
X816399Y820989D01*
X814411Y819001D01*
X813336Y816405D01*
X813336Y813595D01*
X814411Y810999D01*
X816399Y809011D01*
X818995Y807936D01*
G37*
G36*
X844193Y806920D02*
X845038Y806920D01*
X845038Y814238D01*
X837720Y814238D01*
X837720Y813393D01*
X838950Y810423D01*
X841223Y808150D01*
X844193Y806920D01*
G37*
G36*
X846562Y806920D02*
X847407Y806920D01*
X850377Y808150D01*
X852650Y810423D01*
X853880Y813393D01*
X853880Y814238D01*
X846562Y814238D01*
X846562Y806920D01*
G37*
G36*
X552292Y719407D02*
X571708Y719407D01*
X572601Y720300D01*
X572601Y733208D01*
X571708Y734101D01*
X561897Y734101D01*
X560490Y734375D01*
X559245Y735199D01*
X554033Y740411D01*
X552554Y741024D01*
X512851Y741024D01*
X511499Y741276D01*
X510242Y742080D01*
X509398Y743311D01*
X509101Y744774D01*
X509101Y746708D01*
X508020Y747788D01*
X507676Y747853D01*
X506419Y748657D01*
X505575Y749888D01*
X505278Y751351D01*
X505278Y751650D01*
X505530Y753001D01*
X506334Y754259D01*
X507565Y755103D01*
X507999Y755191D01*
X509101Y756292D01*
X509101Y775708D01*
X508020Y776788D01*
X507676Y776853D01*
X506419Y777657D01*
X505575Y778888D01*
X505278Y780351D01*
X505278Y788293D01*
X505552Y789701D01*
X506376Y790945D01*
X509144Y793712D01*
X509144Y801288D01*
X503788Y806644D01*
X496212Y806644D01*
X490856Y801288D01*
X490856Y793712D01*
X497132Y787437D01*
X497933Y786248D01*
X498230Y784785D01*
X498230Y780351D01*
X497978Y778999D01*
X497174Y777741D01*
X495943Y776898D01*
X495509Y776809D01*
X494407Y775708D01*
X494407Y756292D01*
X495488Y755212D01*
X495832Y755147D01*
X497089Y754343D01*
X497933Y753112D01*
X498230Y751650D01*
X498230Y751351D01*
X497978Y749999D01*
X497174Y748741D01*
X495943Y747898D01*
X495509Y747809D01*
X494407Y746708D01*
X494407Y727292D01*
X495300Y726400D01*
X508208Y726400D01*
X509101Y727292D01*
X509101Y729226D01*
X509353Y730578D01*
X510157Y731835D01*
X511388Y732679D01*
X512851Y732976D01*
X547650Y732976D01*
X549001Y732724D01*
X550259Y731920D01*
X551103Y730689D01*
X551400Y729226D01*
X551400Y720300D01*
X552292Y719407D01*
G37*
G36*
X336490Y706462D02*
X360310Y706462D01*
X360310Y708868D01*
X359923Y709802D01*
X359608Y710117D01*
X358831Y711251D01*
X358510Y712709D01*
X358784Y714176D01*
X359294Y714946D01*
X359294Y721694D01*
X358890Y722098D01*
X358112Y723233D01*
X357792Y724690D01*
X358066Y726157D01*
X358890Y727402D01*
X359294Y727806D01*
X359294Y734394D01*
X358890Y734798D01*
X358112Y735933D01*
X357792Y737390D01*
X358066Y738857D01*
X358890Y740102D01*
X359294Y740506D01*
X359294Y747094D01*
X358890Y747498D01*
X358112Y748633D01*
X357792Y750090D01*
X358066Y751557D01*
X358890Y752802D01*
X359294Y753206D01*
X359294Y759794D01*
X358401Y760687D01*
X351457Y760687D01*
X350050Y760961D01*
X348805Y761785D01*
X339179Y771411D01*
X337700Y772024D01*
X335851Y772024D01*
X334499Y772276D01*
X333242Y773080D01*
X332398Y774311D01*
X332101Y775774D01*
X332101Y777708D01*
X331208Y778601D01*
X318300Y778601D01*
X317407Y777708D01*
X317407Y758292D01*
X318300Y757400D01*
X331253Y757400D01*
X332184Y758049D01*
X333636Y758392D01*
X335108Y758142D01*
X336365Y757338D01*
X337209Y756107D01*
X337506Y754644D01*
X337506Y752017D01*
X337583Y751694D01*
X337332Y750222D01*
X336528Y748965D01*
X335297Y748121D01*
X333834Y747824D01*
X291582Y747824D01*
X290286Y748055D01*
X289016Y748839D01*
X288153Y750057D01*
X287832Y751514D01*
X288106Y752981D01*
X288930Y754226D01*
X291006Y756301D01*
X292195Y757103D01*
X293657Y757400D01*
X301700Y757400D01*
X302593Y758292D01*
X302593Y777708D01*
X301700Y778601D01*
X288792Y778601D01*
X287899Y777708D01*
X287899Y769665D01*
X287625Y768257D01*
X286801Y767013D01*
X269229Y749442D01*
X268268Y747121D01*
X268174Y746618D01*
X267370Y745361D01*
X266139Y744517D01*
X264676Y744220D01*
X259890Y744220D01*
X258483Y744494D01*
X257607Y745075D01*
X246400Y745075D01*
X245573Y744517D01*
X244110Y744220D01*
X238094Y744220D01*
X236742Y744472D01*
X235485Y745276D01*
X234641Y746507D01*
X234344Y747970D01*
X234344Y749439D01*
X232952Y752800D01*
X230572Y755179D01*
X229771Y756368D01*
X229474Y757831D01*
X229474Y775650D01*
X228823Y777221D01*
X224921Y781123D01*
X223350Y781774D01*
X178850Y781774D01*
X177279Y781123D01*
X176378Y780222D01*
X175189Y779421D01*
X173726Y779124D01*
X172421Y779124D01*
X171014Y779398D01*
X170877Y779489D01*
X169305Y780140D01*
X167762Y780140D01*
X167762Y762460D01*
X169305Y762460D01*
X170828Y763091D01*
X170959Y763179D01*
X172421Y763476D01*
X175931Y763476D01*
X176824Y764369D01*
X176824Y767026D01*
X177098Y768434D01*
X177922Y769678D01*
X180372Y772128D01*
X181561Y772929D01*
X183024Y773226D01*
X217176Y773226D01*
X218528Y772974D01*
X219785Y772170D01*
X220629Y770939D01*
X220926Y769476D01*
X220926Y757831D01*
X220652Y756423D01*
X219828Y755179D01*
X217448Y752800D01*
X216514Y750546D01*
X215805Y749437D01*
X214595Y748564D01*
X213139Y748232D01*
X211670Y748494D01*
X210419Y749308D01*
X209585Y750546D01*
X208413Y753375D01*
X205555Y756233D01*
X201821Y757780D01*
X200562Y757780D01*
X200562Y722220D01*
X201821Y722220D01*
X205555Y723767D01*
X208413Y726625D01*
X209585Y729454D01*
X210295Y730563D01*
X211505Y731436D01*
X212960Y731768D01*
X214430Y731506D01*
X215680Y730692D01*
X216514Y729454D01*
X217448Y727200D01*
X220020Y724628D01*
X223381Y723236D01*
X227019Y723236D01*
X230380Y724628D01*
X232952Y727200D01*
X234561Y731085D01*
X234596Y731274D01*
X235400Y732531D01*
X236631Y733375D01*
X238094Y733672D01*
X241113Y733672D01*
X242436Y733431D01*
X243700Y732636D01*
X244554Y731412D01*
X244863Y729952D01*
X244609Y728650D01*
X244609Y724216D01*
X252762Y724216D01*
X252762Y716310D01*
X257356Y716310D01*
X258290Y716696D01*
X259004Y717411D01*
X259385Y718331D01*
X260095Y719440D01*
X261305Y720313D01*
X262760Y720645D01*
X264230Y720383D01*
X265480Y719569D01*
X266315Y718331D01*
X266696Y717411D01*
X267410Y716696D01*
X268344Y716310D01*
X272938Y716310D01*
X272938Y724216D01*
X274462Y724216D01*
X274462Y716310D01*
X279056Y716310D01*
X279990Y716696D01*
X280704Y717411D01*
X280922Y717936D01*
X281652Y719067D01*
X282869Y719931D01*
X284327Y720251D01*
X285794Y719977D01*
X287038Y719153D01*
X288792Y717400D01*
X301700Y717400D01*
X302593Y718292D01*
X302593Y736026D01*
X302845Y737378D01*
X303649Y738635D01*
X304880Y739479D01*
X306343Y739776D01*
X313657Y739776D01*
X315009Y739524D01*
X316266Y738720D01*
X317110Y737489D01*
X317407Y736026D01*
X317407Y718292D01*
X318300Y717400D01*
X331253Y717400D01*
X332184Y718049D01*
X333636Y718392D01*
X335108Y718142D01*
X336365Y717338D01*
X337209Y716107D01*
X337414Y715095D01*
X337969Y714286D01*
X338290Y712828D01*
X338016Y711361D01*
X337192Y710117D01*
X336877Y709802D01*
X336490Y708868D01*
X336490Y706462D01*
G37*
G36*
X728995Y757336D02*
X731805Y757336D01*
X734401Y758411D01*
X736389Y760399D01*
X737464Y762995D01*
X737464Y765805D01*
X736389Y768401D01*
X734401Y770389D01*
X731805Y771464D01*
X728995Y771464D01*
X726399Y770389D01*
X724411Y768401D01*
X723336Y765805D01*
X723336Y762995D01*
X724411Y760399D01*
X726399Y758411D01*
X728995Y757336D01*
G37*
G36*
X779795Y757336D02*
X782605Y757336D01*
X785201Y758411D01*
X787189Y760399D01*
X788264Y762995D01*
X788264Y765805D01*
X787189Y768401D01*
X785201Y770389D01*
X782605Y771464D01*
X779795Y771464D01*
X777199Y770389D01*
X775211Y768401D01*
X774136Y765805D01*
X774136Y762995D01*
X775211Y760399D01*
X777199Y758411D01*
X779795Y757336D01*
G37*
G36*
X754395Y757336D02*
X757205Y757336D01*
X759801Y758411D01*
X761789Y760399D01*
X762864Y762995D01*
X762864Y765805D01*
X761789Y768401D01*
X759801Y770389D01*
X757205Y771464D01*
X754395Y771464D01*
X751799Y770389D01*
X749811Y768401D01*
X748736Y765805D01*
X748736Y762995D01*
X749811Y760399D01*
X751799Y758411D01*
X754395Y757336D01*
G37*
G36*
X-58452Y755614D02*
X-54548Y755614D01*
X-51166Y757566D01*
X-49214Y760948D01*
X-49214Y764852D01*
X-51166Y768234D01*
X-54548Y770186D01*
X-58452Y770186D01*
X-61834Y768234D01*
X-63786Y764852D01*
X-63786Y760948D01*
X-61834Y757566D01*
X-58452Y755614D01*
G37*
G36*
X189640Y740762D02*
X199038Y740762D01*
X199038Y757780D01*
X197779Y757780D01*
X194045Y756233D01*
X191187Y753375D01*
X189640Y749641D01*
X189640Y740762D01*
G37*
G36*
X197779Y722220D02*
X199038Y722220D01*
X199038Y739238D01*
X189640Y739238D01*
X189640Y730359D01*
X191187Y726625D01*
X194045Y723767D01*
X197779Y722220D01*
G37*
G36*
X33960Y725662D02*
X42738Y725662D01*
X42738Y735440D01*
X35995Y735440D01*
X35061Y735053D01*
X34347Y734339D01*
X33960Y733405D01*
X33960Y725662D01*
G37*
G36*
X44262Y725662D02*
X53040Y725662D01*
X53040Y733405D01*
X52653Y734339D01*
X51939Y735053D01*
X51005Y735440D01*
X44262Y735440D01*
X44262Y725662D01*
G37*
G36*
X-51738Y716662D02*
X-38960Y716662D01*
X-38960Y722405D01*
X-39347Y723339D01*
X-40061Y724053D01*
X-40995Y724440D01*
X-51738Y724440D01*
X-51738Y716662D01*
G37*
G36*
X-66040Y716662D02*
X-53262Y716662D01*
X-53262Y724440D01*
X-64005Y724440D01*
X-64939Y724053D01*
X-65653Y723339D01*
X-66040Y722405D01*
X-66040Y716662D01*
G37*
G36*
X35995Y714360D02*
X42738Y714360D01*
X42738Y724138D01*
X33960Y724138D01*
X33960Y716395D01*
X34347Y715461D01*
X35061Y714747D01*
X35995Y714360D01*
G37*
G36*
X44262Y714360D02*
X51005Y714360D01*
X51939Y714747D01*
X52653Y715461D01*
X53040Y716395D01*
X53040Y724138D01*
X44262Y724138D01*
X44262Y714360D01*
G37*
G36*
X246644Y716310D02*
X251238Y716310D01*
X251238Y722692D01*
X244609Y722692D01*
X244609Y718344D01*
X244996Y717411D01*
X245710Y716696D01*
X246644Y716310D01*
G37*
G36*
X-64005Y707360D02*
X-53262Y707360D01*
X-53262Y715138D01*
X-66040Y715138D01*
X-66040Y709395D01*
X-65653Y708461D01*
X-64939Y707747D01*
X-64005Y707360D01*
G37*
G36*
X-51738Y707360D02*
X-40995Y707360D01*
X-40061Y707747D01*
X-39347Y708461D01*
X-38960Y709395D01*
X-38960Y715138D01*
X-51738Y715138D01*
X-51738Y707360D01*
G37*
G36*
X512288Y687750D02*
X537470Y687750D01*
X538363Y688642D01*
X538363Y689326D01*
X538615Y690678D01*
X539419Y691935D01*
X540650Y692779D01*
X542113Y693076D01*
X547650Y693076D01*
X549001Y692824D01*
X550259Y692020D01*
X550448Y691743D01*
X552292Y689899D01*
X571708Y689899D01*
X572601Y690792D01*
X572601Y703700D01*
X571708Y704593D01*
X552292Y704593D01*
X551016Y703317D01*
X550343Y702265D01*
X549112Y701421D01*
X547650Y701124D01*
X542113Y701124D01*
X540761Y701376D01*
X539504Y702180D01*
X538660Y703411D01*
X538363Y704874D01*
X538363Y705558D01*
X537470Y706451D01*
X512288Y706451D01*
X511395Y705558D01*
X511395Y688642D01*
X512288Y687750D01*
G37*
G36*
X336490Y693762D02*
X360310Y693762D01*
X360310Y696168D01*
X359730Y697569D01*
X359549Y697833D01*
X359229Y699290D01*
X359503Y700757D01*
X359696Y701049D01*
X360310Y702532D01*
X360310Y704938D01*
X336490Y704938D01*
X336490Y702532D01*
X337070Y701131D01*
X337251Y700868D01*
X337571Y699410D01*
X337297Y697943D01*
X337104Y697651D01*
X336490Y696168D01*
X336490Y693762D01*
G37*
G36*
X271212Y668356D02*
X278788Y668356D01*
X284144Y673712D01*
X284144Y681288D01*
X278788Y686644D01*
X271001Y686644D01*
X269594Y686918D01*
X268350Y687742D01*
X261939Y694153D01*
X261005Y694540D01*
X247851Y694540D01*
X246499Y694792D01*
X245242Y695596D01*
X244398Y696827D01*
X244101Y698290D01*
X244101Y701708D01*
X243208Y702601D01*
X230300Y702601D01*
X229407Y701708D01*
X229407Y682292D01*
X230300Y681400D01*
X243208Y681400D01*
X244101Y682292D01*
X244101Y685710D01*
X244353Y687062D01*
X245157Y688319D01*
X246388Y689163D01*
X247851Y689460D01*
X257895Y689460D01*
X259302Y689186D01*
X260546Y688362D01*
X264758Y684150D01*
X265559Y682961D01*
X265856Y681499D01*
X265856Y673712D01*
X271212Y668356D01*
G37*
G36*
X336490Y681062D02*
X360310Y681062D01*
X360310Y683468D01*
X359730Y684869D01*
X359549Y685133D01*
X359229Y686590D01*
X359503Y688057D01*
X359696Y688349D01*
X360310Y689832D01*
X360310Y692238D01*
X336490Y692238D01*
X336490Y689832D01*
X337070Y688431D01*
X337251Y688168D01*
X337571Y686710D01*
X337297Y685243D01*
X337104Y684951D01*
X336490Y683468D01*
X336490Y681062D01*
G37*
G36*
X862962Y671122D02*
X869240Y671122D01*
X869240Y678818D01*
X869179Y679089D01*
X869406Y680564D01*
X869434Y680609D01*
X868138Y680335D01*
X867805Y680400D01*
X862962Y680400D01*
X862962Y671122D01*
G37*
G36*
X430220Y668362D02*
X454040Y668362D01*
X454040Y670768D01*
X453460Y672169D01*
X453279Y672433D01*
X452959Y673890D01*
X453233Y675357D01*
X453426Y675649D01*
X454040Y677132D01*
X454040Y679538D01*
X430220Y679538D01*
X430220Y677132D01*
X430800Y675731D01*
X430981Y675468D01*
X431301Y674010D01*
X431027Y672543D01*
X430834Y672251D01*
X430220Y670768D01*
X430220Y668362D01*
G37*
G36*
X336490Y668362D02*
X360310Y668362D01*
X360310Y670768D01*
X359730Y672169D01*
X359549Y672433D01*
X359229Y673890D01*
X359503Y675357D01*
X359696Y675649D01*
X360310Y677132D01*
X360310Y679538D01*
X336490Y679538D01*
X336490Y677132D01*
X337070Y675731D01*
X337251Y675468D01*
X337571Y674010D01*
X337297Y672543D01*
X337104Y672251D01*
X336490Y670768D01*
X336490Y668362D01*
G37*
G36*
X862962Y660320D02*
X867205Y660320D01*
X868139Y660707D01*
X868853Y661421D01*
X869240Y662355D01*
X869240Y669598D01*
X862962Y669598D01*
X862962Y660320D01*
G37*
G36*
X442892Y662397D02*
X452005Y662397D01*
X452939Y662784D01*
X453653Y663498D01*
X454040Y664432D01*
X454040Y666838D01*
X442892Y666838D01*
X442892Y662397D01*
G37*
G36*
X432255Y662397D02*
X441368Y662397D01*
X441368Y666838D01*
X430220Y666838D01*
X430220Y664432D01*
X430607Y663498D01*
X431321Y662784D01*
X432255Y662397D01*
G37*
G36*
X349162Y662397D02*
X358275Y662397D01*
X359209Y662784D01*
X359923Y663498D01*
X360310Y664432D01*
X360310Y666838D01*
X349162Y666838D01*
X349162Y662397D01*
G37*
G36*
X338525Y662397D02*
X347638Y662397D01*
X347638Y666838D01*
X336490Y666838D01*
X336490Y664432D01*
X336877Y663498D01*
X337591Y662784D01*
X338525Y662397D01*
G37*
G36*
X422340Y613262D02*
X431738Y613262D01*
X431738Y622660D01*
X428292Y622660D01*
X422340Y616708D01*
X422340Y613262D01*
G37*
G36*
X433262Y613262D02*
X442660Y613262D01*
X442660Y616708D01*
X436708Y622660D01*
X433262Y622660D01*
X433262Y613262D01*
G37*
G36*
X433262Y602340D02*
X436708Y602340D01*
X442660Y608292D01*
X442660Y611738D01*
X433262Y611738D01*
X433262Y602340D01*
G37*
G36*
X428292Y602340D02*
X431738Y602340D01*
X431738Y611738D01*
X422340Y611738D01*
X422340Y608292D01*
X428292Y602340D01*
G37*
G36*
X-60151Y578636D02*
X-42623Y578636D01*
X-42623Y602280D01*
X-43010Y603213D01*
X-43724Y603928D01*
X-44658Y604314D01*
X-60151Y604314D01*
X-60151Y578636D01*
G37*
G36*
X797412Y543120D02*
X802405Y543120D01*
X802840Y543300D01*
X804245Y543585D01*
X805710Y543300D01*
X806145Y543120D01*
X811138Y543120D01*
X811138Y551672D01*
X812662Y551672D01*
X812662Y543120D01*
X817655Y543120D01*
X818090Y543300D01*
X819495Y543585D01*
X820960Y543300D01*
X821395Y543120D01*
X826388Y543120D01*
X826388Y551672D01*
X834940Y551672D01*
X834940Y556665D01*
X834760Y557100D01*
X834475Y558505D01*
X834760Y559970D01*
X834940Y560405D01*
X834940Y565398D01*
X826388Y565398D01*
X826388Y566922D01*
X834940Y566922D01*
X834940Y571915D01*
X834760Y572350D01*
X834475Y573755D01*
X834760Y575220D01*
X834940Y575655D01*
X834940Y580648D01*
X826388Y580648D01*
X826388Y589200D01*
X821395Y589200D01*
X820960Y589020D01*
X819555Y588735D01*
X818090Y589020D01*
X817655Y589200D01*
X812662Y589200D01*
X812662Y580648D01*
X811138Y580648D01*
X811138Y589200D01*
X806145Y589200D01*
X805710Y589020D01*
X804305Y588735D01*
X802840Y589020D01*
X802405Y589200D01*
X797412Y589200D01*
X797412Y580648D01*
X788860Y580648D01*
X788860Y575655D01*
X789040Y575220D01*
X789325Y573815D01*
X789040Y572350D01*
X788860Y571915D01*
X788860Y566922D01*
X797412Y566922D01*
X797412Y565398D01*
X788860Y565398D01*
X788860Y560405D01*
X789040Y559970D01*
X789325Y558565D01*
X789040Y557100D01*
X788860Y556665D01*
X788860Y551672D01*
X797412Y551672D01*
X797412Y543120D01*
G37*
G36*
X788860Y582172D02*
X795888Y582172D01*
X795888Y589200D01*
X790895Y589200D01*
X789961Y588813D01*
X789247Y588099D01*
X788860Y587165D01*
X788860Y582172D01*
G37*
G36*
X827912Y582172D02*
X834940Y582172D01*
X834940Y587165D01*
X834553Y588099D01*
X833839Y588813D01*
X832905Y589200D01*
X827912Y589200D01*
X827912Y582172D01*
G37*
G36*
X-60151Y551434D02*
X-44658Y551434D01*
X-43724Y551821D01*
X-43010Y552536D01*
X-42623Y553469D01*
X-42623Y577112D01*
X-60151Y577112D01*
X-60151Y551434D01*
G37*
G36*
X827912Y543120D02*
X832905Y543120D01*
X833839Y543507D01*
X834553Y544221D01*
X834940Y545155D01*
X834940Y550148D01*
X827912Y550148D01*
X827912Y543120D01*
G37*
G36*
X790895Y543120D02*
X795888Y543120D01*
X795888Y550148D01*
X788860Y550148D01*
X788860Y545155D01*
X789247Y544221D01*
X789961Y543507D01*
X790895Y543120D01*
G37*
%LPD*%
G36*
X151611Y938637D02*
X150148Y938340D01*
X136290Y938340D01*
X134938Y938592D01*
X133681Y939396D01*
X132837Y940627D01*
X132540Y942090D01*
X132540Y950555D01*
X132814Y951963D01*
X133638Y953207D01*
X139144Y958712D01*
X139144Y966288D01*
X133788Y971644D01*
X126212Y971644D01*
X120856Y966288D01*
X120856Y958544D01*
X120625Y957248D01*
X119841Y955978D01*
X118624Y955115D01*
X117166Y954794D01*
X115699Y955068D01*
X114454Y955892D01*
X37349Y1032998D01*
X36596Y1034078D01*
X36252Y1035530D01*
X36502Y1037001D01*
X37307Y1038259D01*
X38538Y1039103D01*
X40000Y1039400D01*
X43700Y1039400D01*
X44593Y1040292D01*
X44593Y1058327D01*
X44845Y1059678D01*
X45649Y1060936D01*
X46880Y1061780D01*
X48343Y1062077D01*
X54641Y1062077D01*
X55993Y1061824D01*
X57250Y1061020D01*
X58094Y1059789D01*
X58391Y1058327D01*
X58391Y1050762D01*
X75173Y1050762D01*
X75117Y1051039D01*
X75117Y1058327D01*
X75369Y1059678D01*
X76173Y1060936D01*
X77404Y1061780D01*
X78867Y1062077D01*
X120403Y1062077D01*
X121810Y1061802D01*
X123055Y1060978D01*
X164594Y1019438D01*
X165798Y1018940D01*
X218795Y1018940D01*
X220090Y1018709D01*
X221360Y1017925D01*
X222224Y1016708D01*
X222544Y1015250D01*
X222270Y1013783D01*
X221446Y1012538D01*
X188242Y979334D01*
X187162Y978581D01*
X185710Y978237D01*
X184238Y978488D01*
X182981Y979292D01*
X182137Y980523D01*
X181840Y981985D01*
X181840Y985838D01*
X172538Y985838D01*
X172538Y993140D01*
X166795Y993140D01*
X165861Y992753D01*
X165380Y992272D01*
X164273Y991507D01*
X162818Y991175D01*
X161348Y991437D01*
X160098Y992251D01*
X159870Y992588D01*
X145488Y1006971D01*
X143549Y1007774D01*
X129211Y1007774D01*
X127803Y1008048D01*
X126559Y1008872D01*
X123788Y1011644D01*
X116212Y1011644D01*
X110856Y1006288D01*
X110856Y998712D01*
X116212Y993356D01*
X123788Y993356D01*
X126559Y996128D01*
X127748Y996929D01*
X129211Y997226D01*
X138762Y997226D01*
X140170Y996952D01*
X141414Y996128D01*
X148628Y988914D01*
X149429Y987725D01*
X149726Y986262D01*
X149726Y948951D01*
X150529Y947013D01*
X152800Y944742D01*
X153553Y943662D01*
X153896Y942210D01*
X153646Y940738D01*
X152842Y939481D01*
X151611Y938637D01*
G37*
%LPC*%
G36*
X88262Y1040762D02*
X97660Y1040762D01*
X97660Y1044208D01*
X91708Y1050160D01*
X88262Y1050160D01*
X88262Y1040762D01*
G37*
G36*
X83292Y1029840D02*
X86738Y1029840D01*
X86738Y1050160D01*
X83292Y1050160D01*
X81519Y1048387D01*
X80439Y1047634D01*
X78987Y1047291D01*
X77515Y1047541D01*
X76258Y1048345D01*
X75498Y1049454D01*
X75498Y1049238D01*
X67516Y1049238D01*
X67516Y1038384D01*
X73590Y1038384D01*
X74942Y1038131D01*
X76199Y1037327D01*
X77043Y1036096D01*
X77045Y1036087D01*
X83292Y1029840D01*
G37*
G36*
X60426Y1038384D02*
X65992Y1038384D01*
X65992Y1049238D01*
X58391Y1049238D01*
X58391Y1040418D01*
X58778Y1039485D01*
X59492Y1038770D01*
X60426Y1038384D01*
G37*
G36*
X88262Y1029840D02*
X91708Y1029840D01*
X97660Y1035792D01*
X97660Y1039238D01*
X88262Y1039238D01*
X88262Y1029840D01*
G37*
G36*
X174062Y987362D02*
X181840Y987362D01*
X181840Y991105D01*
X181453Y992039D01*
X180739Y992753D01*
X179805Y993140D01*
X174062Y993140D01*
X174062Y987362D01*
G37*
%LPD*%
G36*
X-16161Y1009242D02*
X-17477Y1008959D01*
X-18948Y1009209D01*
X-20205Y1010013D01*
X-21049Y1011244D01*
X-21346Y1012707D01*
X-21346Y1021048D01*
X-21072Y1022455D01*
X-20248Y1023700D01*
X-16330Y1027618D01*
X-15250Y1028371D01*
X-13798Y1028714D01*
X-12327Y1028464D01*
X-11069Y1027660D01*
X-10225Y1026429D01*
X-9928Y1024966D01*
X-9928Y1024165D01*
X-10202Y1022757D01*
X-10293Y1022620D01*
X-10944Y1021048D01*
X-10944Y1019805D01*
X-4142Y1019805D01*
X-4142Y1018281D01*
X-10944Y1018281D01*
X-10944Y1017038D01*
X-10311Y1015508D01*
X-10027Y1014193D01*
X-10277Y1012721D01*
X-11082Y1011464D01*
X-12313Y1010620D01*
X-13337Y1010412D01*
X-16161Y1009242D01*
G37*
D10*
X249487Y577874D03*
X-60913Y577874D03*
D11*
X252000Y738946D03*
X252000Y723454D03*
X273700Y738946D03*
X273700Y723454D03*
D12*
X482721Y697100D03*
X524879Y697100D03*
D13*
X322000Y1206027D03*
X322000Y1227373D03*
D14*
X186100Y1063400D03*
X211500Y1038000D03*
X236900Y1063400D03*
D15*
X610800Y1169700D03*
D16*
X610800Y1144300D03*
X610800Y1118900D03*
X610800Y1093500D03*
X610800Y1068100D03*
X610800Y1042700D03*
X610800Y1017300D03*
X610800Y991900D03*
X610800Y966500D03*
D17*
X665800Y865800D03*
D18*
X665800Y840400D03*
X665800Y815000D03*
X691200Y865800D03*
X691200Y840400D03*
X691200Y815000D03*
X730400Y764400D03*
X755800Y764400D03*
X781200Y764400D03*
X820400Y815000D03*
X820400Y840400D03*
X820400Y865800D03*
X845800Y815000D03*
X845800Y840400D03*
X845800Y865800D03*
D19*
X238260Y1224240D03*
X225560Y1224240D03*
X212860Y1224240D03*
X200160Y1224240D03*
X200160Y1170240D03*
X212860Y1170240D03*
X225560Y1170240D03*
X238260Y1170240D03*
D20*
X219210Y1197240D03*
D21*
X173500Y829300D03*
X167000Y829300D03*
X160500Y829300D03*
X154000Y829300D03*
X147500Y829300D03*
X141000Y829300D03*
X134500Y829300D03*
X134500Y771300D03*
X141000Y771300D03*
X147500Y771300D03*
X154000Y771300D03*
X160500Y771300D03*
X167000Y771300D03*
X173500Y771300D03*
D22*
X48500Y859400D03*
X48500Y848400D03*
X48500Y837400D03*
X48500Y826400D03*
X48500Y815400D03*
X48500Y804400D03*
X48500Y793400D03*
X48500Y782400D03*
X48500Y771400D03*
D23*
X43500Y871400D03*
D24*
X43500Y724900D03*
D25*
X-52500Y870900D03*
X-52500Y715900D03*
D26*
X-61500Y842900D02*
X-61498Y843041D01*
X-61492Y843182D01*
X-61482Y843322D01*
X-61468Y843462D01*
X-61450Y843602D01*
X-61429Y843741D01*
X-61403Y843880D01*
X-61374Y844018D01*
X-61340Y844154D01*
X-61303Y844290D01*
X-61262Y844425D01*
X-61217Y844559D01*
X-61168Y844691D01*
X-61116Y844822D01*
X-61060Y844951D01*
X-61000Y845078D01*
X-60937Y845204D01*
X-60871Y845328D01*
X-60800Y845451D01*
X-60727Y845571D01*
X-60650Y845689D01*
X-60570Y845805D01*
X-60486Y845918D01*
X-60400Y846029D01*
X-60310Y846138D01*
X-60217Y846244D01*
X-60122Y846347D01*
X-60023Y846448D01*
X-59922Y846546D01*
X-59818Y846641D01*
X-59711Y846733D01*
X-59602Y846822D01*
X-59490Y846907D01*
X-59376Y846990D01*
X-59260Y847070D01*
X-59141Y847146D01*
X-59020Y847218D01*
X-58898Y847288D01*
X-58773Y847353D01*
X-58647Y847416D01*
X-58519Y847474D01*
X-58389Y847529D01*
X-58258Y847581D01*
X-58125Y847628D01*
X-57991Y847672D01*
X-57856Y847713D01*
X-57720Y847749D01*
X-57583Y847781D01*
X-57445Y847810D01*
X-57307Y847835D01*
X-57167Y847855D01*
X-57027Y847872D01*
X-56887Y847885D01*
X-56746Y847894D01*
X-56606Y847899D01*
X-56465Y847900D01*
X-56324Y847897D01*
X-56183Y847890D01*
X-56043Y847879D01*
X-55903Y847864D01*
X-55763Y847845D01*
X-55624Y847823D01*
X-55486Y847796D01*
X-55348Y847766D01*
X-55212Y847731D01*
X-55076Y847693D01*
X-54942Y847651D01*
X-54808Y847605D01*
X-54676Y847556D01*
X-54546Y847502D01*
X-54417Y847445D01*
X-54290Y847385D01*
X-54164Y847321D01*
X-54041Y847253D01*
X-53919Y847182D01*
X-53799Y847108D01*
X-53682Y847030D01*
X-53567Y846949D01*
X-53454Y846865D01*
X-53343Y846778D01*
X-53235Y846687D01*
X-53130Y846594D01*
X-53027Y846497D01*
X-52927Y846398D01*
X-52830Y846296D01*
X-52736Y846191D01*
X-52645Y846084D01*
X-52557Y845974D01*
X-52472Y845862D01*
X-52390Y845747D01*
X-52311Y845630D01*
X-52236Y845511D01*
X-52164Y845390D01*
X-52096Y845267D01*
X-52031Y845142D01*
X-51969Y845015D01*
X-51912Y844886D01*
X-51857Y844756D01*
X-51807Y844625D01*
X-51760Y844492D01*
X-51717Y844358D01*
X-51678Y844222D01*
X-51643Y844086D01*
X-51611Y843949D01*
X-51584Y843811D01*
X-51560Y843672D01*
X-51540Y843532D01*
X-51524Y843392D01*
X-51512Y843252D01*
X-51504Y843111D01*
X-51500Y842970D01*
X-51500Y842830D01*
X-51504Y842689D01*
X-51512Y842548D01*
X-51524Y842408D01*
X-51540Y842268D01*
X-51560Y842128D01*
X-51584Y841989D01*
X-51611Y841851D01*
X-51643Y841714D01*
X-51678Y841578D01*
X-51717Y841442D01*
X-51760Y841308D01*
X-51807Y841175D01*
X-51857Y841044D01*
X-51912Y840914D01*
X-51969Y840785D01*
X-52031Y840658D01*
X-52096Y840533D01*
X-52164Y840410D01*
X-52236Y840289D01*
X-52311Y840170D01*
X-52390Y840053D01*
X-52472Y839938D01*
X-52557Y839826D01*
X-52645Y839716D01*
X-52736Y839609D01*
X-52830Y839504D01*
X-52927Y839402D01*
X-53027Y839303D01*
X-53130Y839206D01*
X-53235Y839113D01*
X-53343Y839022D01*
X-53454Y838935D01*
X-53567Y838851D01*
X-53682Y838770D01*
X-53799Y838692D01*
X-53919Y838618D01*
X-54041Y838547D01*
X-54164Y838479D01*
X-54290Y838415D01*
X-54417Y838355D01*
X-54546Y838298D01*
X-54676Y838244D01*
X-54808Y838195D01*
X-54942Y838149D01*
X-55076Y838107D01*
X-55212Y838069D01*
X-55348Y838034D01*
X-55486Y838004D01*
X-55624Y837977D01*
X-55763Y837955D01*
X-55903Y837936D01*
X-56043Y837921D01*
X-56183Y837910D01*
X-56324Y837903D01*
X-56465Y837900D01*
X-56606Y837901D01*
X-56746Y837906D01*
X-56887Y837915D01*
X-57027Y837928D01*
X-57167Y837945D01*
X-57307Y837965D01*
X-57445Y837990D01*
X-57583Y838019D01*
X-57720Y838051D01*
X-57856Y838087D01*
X-57991Y838128D01*
X-58125Y838172D01*
X-58258Y838219D01*
X-58389Y838271D01*
X-58519Y838326D01*
X-58647Y838384D01*
X-58773Y838447D01*
X-58898Y838512D01*
X-59020Y838582D01*
X-59141Y838654D01*
X-59260Y838730D01*
X-59376Y838810D01*
X-59490Y838893D01*
X-59602Y838978D01*
X-59711Y839067D01*
X-59818Y839159D01*
X-59922Y839254D01*
X-60023Y839352D01*
X-60122Y839453D01*
X-60217Y839556D01*
X-60310Y839662D01*
X-60400Y839771D01*
X-60486Y839882D01*
X-60570Y839995D01*
X-60650Y840111D01*
X-60727Y840229D01*
X-60800Y840349D01*
X-60871Y840472D01*
X-60937Y840596D01*
X-61000Y840722D01*
X-61060Y840849D01*
X-61116Y840978D01*
X-61168Y841109D01*
X-61217Y841241D01*
X-61262Y841375D01*
X-61303Y841510D01*
X-61340Y841646D01*
X-61374Y841782D01*
X-61403Y841920D01*
X-61429Y842059D01*
X-61450Y842198D01*
X-61468Y842338D01*
X-61482Y842478D01*
X-61492Y842618D01*
X-61498Y842759D01*
X-61500Y842900D01*
X-61500Y762900D02*
X-61498Y763041D01*
X-61492Y763182D01*
X-61482Y763322D01*
X-61468Y763462D01*
X-61450Y763602D01*
X-61429Y763741D01*
X-61403Y763880D01*
X-61374Y764018D01*
X-61340Y764154D01*
X-61303Y764290D01*
X-61262Y764425D01*
X-61217Y764559D01*
X-61168Y764691D01*
X-61116Y764822D01*
X-61060Y764951D01*
X-61000Y765078D01*
X-60937Y765204D01*
X-60871Y765328D01*
X-60800Y765451D01*
X-60727Y765571D01*
X-60650Y765689D01*
X-60570Y765805D01*
X-60486Y765918D01*
X-60400Y766029D01*
X-60310Y766138D01*
X-60217Y766244D01*
X-60122Y766347D01*
X-60023Y766448D01*
X-59922Y766546D01*
X-59818Y766641D01*
X-59711Y766733D01*
X-59602Y766822D01*
X-59490Y766907D01*
X-59376Y766990D01*
X-59260Y767070D01*
X-59141Y767146D01*
X-59020Y767218D01*
X-58898Y767288D01*
X-58773Y767353D01*
X-58647Y767416D01*
X-58519Y767474D01*
X-58389Y767529D01*
X-58258Y767581D01*
X-58125Y767628D01*
X-57991Y767672D01*
X-57856Y767713D01*
X-57720Y767749D01*
X-57583Y767781D01*
X-57445Y767810D01*
X-57307Y767835D01*
X-57167Y767855D01*
X-57027Y767872D01*
X-56887Y767885D01*
X-56746Y767894D01*
X-56606Y767899D01*
X-56465Y767900D01*
X-56324Y767897D01*
X-56183Y767890D01*
X-56043Y767879D01*
X-55903Y767864D01*
X-55763Y767845D01*
X-55624Y767823D01*
X-55486Y767796D01*
X-55348Y767766D01*
X-55212Y767731D01*
X-55076Y767693D01*
X-54942Y767651D01*
X-54808Y767605D01*
X-54676Y767556D01*
X-54546Y767502D01*
X-54417Y767445D01*
X-54290Y767385D01*
X-54164Y767321D01*
X-54041Y767253D01*
X-53919Y767182D01*
X-53799Y767108D01*
X-53682Y767030D01*
X-53567Y766949D01*
X-53454Y766865D01*
X-53343Y766778D01*
X-53235Y766687D01*
X-53130Y766594D01*
X-53027Y766497D01*
X-52927Y766398D01*
X-52830Y766296D01*
X-52736Y766191D01*
X-52645Y766084D01*
X-52557Y765974D01*
X-52472Y765862D01*
X-52390Y765747D01*
X-52311Y765630D01*
X-52236Y765511D01*
X-52164Y765390D01*
X-52096Y765267D01*
X-52031Y765142D01*
X-51969Y765015D01*
X-51912Y764886D01*
X-51857Y764756D01*
X-51807Y764625D01*
X-51760Y764492D01*
X-51717Y764358D01*
X-51678Y764222D01*
X-51643Y764086D01*
X-51611Y763949D01*
X-51584Y763811D01*
X-51560Y763672D01*
X-51540Y763532D01*
X-51524Y763392D01*
X-51512Y763252D01*
X-51504Y763111D01*
X-51500Y762970D01*
X-51500Y762830D01*
X-51504Y762689D01*
X-51512Y762548D01*
X-51524Y762408D01*
X-51540Y762268D01*
X-51560Y762128D01*
X-51584Y761989D01*
X-51611Y761851D01*
X-51643Y761714D01*
X-51678Y761578D01*
X-51717Y761442D01*
X-51760Y761308D01*
X-51807Y761175D01*
X-51857Y761044D01*
X-51912Y760914D01*
X-51969Y760785D01*
X-52031Y760658D01*
X-52096Y760533D01*
X-52164Y760410D01*
X-52236Y760289D01*
X-52311Y760170D01*
X-52390Y760053D01*
X-52472Y759938D01*
X-52557Y759826D01*
X-52645Y759716D01*
X-52736Y759609D01*
X-52830Y759504D01*
X-52927Y759402D01*
X-53027Y759303D01*
X-53130Y759206D01*
X-53235Y759113D01*
X-53343Y759022D01*
X-53454Y758935D01*
X-53567Y758851D01*
X-53682Y758770D01*
X-53799Y758692D01*
X-53919Y758618D01*
X-54041Y758547D01*
X-54164Y758479D01*
X-54290Y758415D01*
X-54417Y758355D01*
X-54546Y758298D01*
X-54676Y758244D01*
X-54808Y758195D01*
X-54942Y758149D01*
X-55076Y758107D01*
X-55212Y758069D01*
X-55348Y758034D01*
X-55486Y758004D01*
X-55624Y757977D01*
X-55763Y757955D01*
X-55903Y757936D01*
X-56043Y757921D01*
X-56183Y757910D01*
X-56324Y757903D01*
X-56465Y757900D01*
X-56606Y757901D01*
X-56746Y757906D01*
X-56887Y757915D01*
X-57027Y757928D01*
X-57167Y757945D01*
X-57307Y757965D01*
X-57445Y757990D01*
X-57583Y758019D01*
X-57720Y758051D01*
X-57856Y758087D01*
X-57991Y758128D01*
X-58125Y758172D01*
X-58258Y758219D01*
X-58389Y758271D01*
X-58519Y758326D01*
X-58647Y758384D01*
X-58773Y758447D01*
X-58898Y758512D01*
X-59020Y758582D01*
X-59141Y758654D01*
X-59260Y758730D01*
X-59376Y758810D01*
X-59490Y758893D01*
X-59602Y758978D01*
X-59711Y759067D01*
X-59818Y759159D01*
X-59922Y759254D01*
X-60023Y759352D01*
X-60122Y759453D01*
X-60217Y759556D01*
X-60310Y759662D01*
X-60400Y759771D01*
X-60486Y759882D01*
X-60570Y759995D01*
X-60650Y760111D01*
X-60727Y760229D01*
X-60800Y760349D01*
X-60871Y760472D01*
X-60937Y760596D01*
X-61000Y760722D01*
X-61060Y760849D01*
X-61116Y760978D01*
X-61168Y761109D01*
X-61217Y761241D01*
X-61262Y761375D01*
X-61303Y761510D01*
X-61340Y761646D01*
X-61374Y761782D01*
X-61403Y761920D01*
X-61429Y762059D01*
X-61450Y762198D01*
X-61468Y762338D01*
X-61482Y762478D01*
X-61492Y762618D01*
X-61498Y762759D01*
X-61500Y762900D01*
D27*
X348400Y756500D03*
X348400Y743800D03*
X348400Y731100D03*
X348400Y718400D03*
X348400Y705700D03*
X348400Y693000D03*
X348400Y680300D03*
X348400Y667600D03*
X442130Y667600D03*
X442130Y680300D03*
X442130Y693000D03*
X442130Y705700D03*
X442130Y718400D03*
X442130Y731100D03*
X442130Y743800D03*
X442130Y756500D03*
D28*
X616800Y1279100D03*
X616800Y1256100D03*
X616800Y1233100D03*
D29*
X679800Y1256100D03*
D30*
X892600Y493160D03*
X892600Y505860D03*
X892600Y518560D03*
X892600Y531260D03*
X892600Y543960D03*
X892600Y556660D03*
X892600Y569360D03*
X892600Y582060D03*
X892600Y594760D03*
X892600Y607460D03*
X892600Y620160D03*
X892600Y632860D03*
X892600Y645560D03*
X892600Y658260D03*
D31*
X862200Y670360D03*
X849500Y670360D03*
X836800Y670360D03*
X824100Y670360D03*
X811400Y670360D03*
X798700Y670360D03*
X786000Y670360D03*
X773300Y670360D03*
X760600Y670360D03*
X747900Y670360D03*
D30*
X717600Y658260D03*
X717600Y645560D03*
X717600Y632860D03*
X717600Y620160D03*
X717600Y607460D03*
X717600Y594760D03*
X717600Y582060D03*
X717600Y569360D03*
X717600Y556660D03*
X717600Y543960D03*
X717600Y531260D03*
X717600Y518560D03*
X717600Y505860D03*
X717600Y493160D03*
D32*
X811900Y581410D03*
X811900Y566160D03*
X811900Y550910D03*
X796650Y581410D03*
X796650Y566160D03*
X796650Y550910D03*
X827150Y581410D03*
X827150Y566160D03*
X827150Y550910D03*
D33*
X173300Y986600D03*
X173300Y973900D03*
X173300Y961200D03*
X173300Y948500D03*
X173300Y935800D03*
X173300Y923100D03*
X173300Y910400D03*
X173300Y897700D03*
X233300Y897700D03*
X233300Y910400D03*
X233300Y923100D03*
X233300Y935800D03*
X233300Y948500D03*
X233300Y961200D03*
X233300Y973900D03*
X233300Y986600D03*
D34*
X-61464Y1088943D02*
X-71544Y1088943D01*
X-71544Y999143D02*
X-61464Y999143D01*
X-12044Y1002743D02*
X-1964Y1002743D01*
X-1964Y1085343D02*
X-12044Y1085343D01*
D35*
X12096Y1071543D03*
X-4904Y1019043D03*
X-4904Y1024043D03*
X-4904Y1029043D03*
X-4904Y1034043D03*
X-4904Y1039043D03*
X-4904Y1044043D03*
X-4904Y1049043D03*
X-4904Y1054043D03*
X-4904Y1059043D03*
X-4904Y1064043D03*
X-4904Y1069043D03*
X-4904Y1074043D03*
X12096Y1066543D03*
X12096Y1061543D03*
X12096Y1056543D03*
X12096Y1051543D03*
X12096Y1046543D03*
X12096Y1041543D03*
X12096Y1036543D03*
X12096Y1031543D03*
X12096Y1026543D03*
X12096Y1021543D03*
X12096Y1016543D03*
D36*
X43200Y912150D03*
X43200Y942650D03*
D12*
X278521Y925100D03*
X320679Y925100D03*
X278521Y957600D03*
X320679Y957600D03*
X334179Y1144100D03*
X292021Y1144100D03*
D37*
X405388Y945906D03*
X470412Y945906D03*
X405388Y900694D03*
X470412Y900694D03*
X470512Y1007694D03*
X405488Y1007694D03*
X470512Y1052906D03*
X405488Y1052906D03*
D38*
X384246Y925000D03*
X368754Y925000D03*
X384246Y956700D03*
X368754Y956700D03*
D39*
X305100Y1090879D03*
X305100Y1048721D03*
D36*
X379500Y1284150D03*
X379500Y1253650D03*
D40*
X548700Y1180854D03*
X548700Y1151346D03*
D11*
X576200Y1185846D03*
X576200Y1170354D03*
D38*
X514346Y1093000D03*
X498854Y1093000D03*
D41*
X87500Y1040000D03*
X-1500Y936500D03*
D42*
X-56700Y939620D02*
X-56700Y924380D01*
X-31300Y924380D02*
X-31300Y939620D01*
D41*
X108000Y922500D03*
X130000Y962500D03*
X480500Y1147500D03*
X120000Y1002500D03*
X92500Y800000D03*
X177500Y857500D03*
D42*
X199800Y747620D02*
X199800Y732380D01*
X225200Y732380D02*
X225200Y747620D01*
D41*
X157500Y745000D03*
X130000Y885000D03*
X500000Y797500D03*
X432500Y612500D03*
X510500Y1147500D03*
D43*
X655000Y515000D03*
D44*
X655000Y555000D03*
X655000Y535000D03*
X655000Y575000D03*
X655000Y595000D03*
D43*
X675000Y632500D03*
D44*
X675000Y672500D03*
X675000Y652500D03*
X675000Y692500D03*
X675000Y712500D03*
D41*
X519500Y878500D03*
D42*
X394700Y1113880D02*
X394700Y1129120D01*
X369300Y1129120D02*
X369300Y1113880D01*
D41*
X275000Y677500D03*
D42*
X431700Y806380D02*
X431700Y821620D01*
X406300Y821620D02*
X406300Y806380D01*
D41*
X940000Y515000D03*
X267500Y860000D03*
X267500Y825000D03*
X233000Y1138000D03*
X174500Y1172000D03*
X175500Y1256500D03*
X226500Y1256500D03*
D37*
X-40700Y1141000D03*
X-15300Y1141000D03*
D45*
X4000Y1201700D03*
X4000Y1176300D03*
D37*
X65700Y1141000D03*
X40300Y1141000D03*
D45*
X4000Y1266700D03*
X4000Y1241300D03*
D37*
X99700Y1174000D03*
X74300Y1174000D03*
X290000Y1229700D03*
X290000Y1204300D03*
D46*
X42305Y1218000D03*
X101695Y1218000D03*
D47*
X137000Y1256695D03*
X137000Y1197305D03*
X125000Y1145695D03*
X125000Y1086305D03*
D45*
X330000Y1256300D03*
X330000Y1281700D03*
D47*
X363427Y1173305D03*
X363427Y1232695D03*
D45*
X563000Y1253300D03*
X563000Y1278700D03*
D37*
X516000Y1250300D03*
X516000Y1275700D03*
D45*
X433000Y1255300D03*
X433000Y1280700D03*
X481700Y1205000D03*
X456300Y1205000D03*
D37*
X551700Y1209000D03*
X526300Y1209000D03*
D40*
X43000Y958246D03*
X43000Y987754D03*
D48*
X-21754Y967000D03*
X7754Y967000D03*
X66754Y1050000D03*
X37246Y1050000D03*
X600754Y864000D03*
X571246Y864000D03*
X564754Y1105000D03*
X535246Y1105000D03*
X234754Y836000D03*
X205246Y836000D03*
X234754Y866178D03*
X205246Y866178D03*
D40*
X90000Y881754D03*
X90000Y852246D03*
D48*
X207246Y692000D03*
X236754Y692000D03*
X295246Y768000D03*
X324754Y768000D03*
X295246Y728000D03*
X324754Y728000D03*
X472246Y766000D03*
X501754Y766000D03*
X472246Y737000D03*
X501754Y737000D03*
D40*
X562000Y726754D03*
X562000Y697246D03*
D49*
X826000Y1265300D03*
X851000Y1265300D03*
D42*
X731900Y724620D02*
X731900Y709380D01*
X757300Y709380D02*
X757300Y724620D01*
X782700Y724620D02*
X782700Y709380D01*
X808100Y709380D02*
X808100Y724620D01*
D50*
X957Y1019043D02*
X-4904Y1019043D01*
X957Y1019043D02*
X3457Y1016543D01*
X12096Y1016543D01*
X12096Y988165D01*
D51*
X-1725Y936725D02*
X-1500Y936500D01*
D52*
X173300Y986600D02*
X173300Y996600D01*
X129900Y1040000D01*
X87500Y1040000D01*
D51*
X394594Y956700D02*
X405388Y945906D01*
X394594Y956700D02*
X384246Y956700D01*
X384246Y925000D02*
X384482Y925000D01*
X405388Y945906D01*
X384246Y956700D02*
X384246Y981452D01*
X405488Y1002694D02*
X405488Y1007694D01*
X405488Y1002694D02*
X384246Y981452D01*
X405488Y1007694D02*
X470512Y1007694D01*
X470512Y946006D01*
X470512Y943006D01*
D26*
X470412Y945906D02*
X470512Y946006D01*
D53*
X-1500Y936500D02*
X-1500Y904400D01*
X31500Y871400D01*
D54*
X43500Y724900D02*
X-38500Y724900D01*
X-47500Y715900D01*
D26*
X-52500Y715900D01*
X42750Y825150D02*
X44000Y826400D01*
X42750Y825150D02*
X41500Y826400D01*
D51*
X66000Y831400D02*
X132400Y831400D01*
X66000Y831400D02*
X61000Y826400D01*
X48500Y826400D01*
D26*
X132400Y831400D02*
X134500Y829300D01*
X134500Y829300D01*
X48500Y826400D02*
X48500Y826400D01*
D55*
X147500Y795000D02*
X147500Y771300D01*
X147500Y795000D02*
X173500Y821000D01*
X173500Y829300D01*
D56*
X348400Y705700D02*
X348400Y693000D01*
X348400Y680300D01*
X348400Y667600D01*
X442130Y667600D02*
X442130Y680300D01*
X442130Y693000D01*
X442130Y705700D01*
X442130Y718400D01*
X348400Y705700D02*
X291700Y705700D01*
D26*
X442130Y667600D02*
X448837Y667600D01*
D56*
X199800Y719880D02*
X199800Y740000D01*
X199800Y719880D02*
X207206Y712474D01*
X241020Y712474D01*
D26*
X442130Y667600D02*
X442500Y667230D01*
D56*
X442500Y622500D01*
X432500Y612500D01*
X796650Y581410D02*
X796650Y566160D01*
X796650Y550910D01*
X796650Y566160D02*
X811900Y566160D01*
X827150Y566160D01*
X827150Y581410D01*
X827150Y566160D02*
X827150Y550910D01*
X811900Y550910D01*
X811900Y581410D02*
X796650Y581410D01*
X827150Y540910D02*
X874900Y493160D01*
X827150Y540910D02*
X827150Y550910D01*
X874900Y493160D02*
X892600Y493160D01*
X862200Y616460D02*
X862200Y670360D01*
X862200Y616460D02*
X827150Y581410D01*
X796650Y550910D02*
X738900Y493160D01*
X717600Y493160D01*
X712600Y488160D01*
X556840Y488160D01*
X432500Y612500D01*
X950133Y493160D02*
X962500Y505527D01*
X950133Y493160D02*
X892600Y493160D01*
X962500Y505527D02*
X962500Y874000D01*
X819200Y1017300D01*
X610800Y1017300D01*
D51*
X845800Y815000D02*
X845800Y800800D01*
X837500Y792500D01*
X807500Y792500D01*
X697500Y902500D01*
X511018Y902500D01*
X470512Y943006D01*
D50*
X154000Y844000D02*
X154000Y829300D01*
X154000Y844000D02*
X167500Y857500D01*
X177500Y857500D01*
D57*
X-19043Y1074043D02*
X-27500Y1082500D01*
X30000Y1072500D02*
X30000Y1102655D01*
X-24845Y1102655D01*
X-27500Y1100000D01*
X-27500Y1082500D01*
D58*
X12096Y1071543D02*
X29043Y1071543D01*
X30000Y1072500D01*
X-4904Y1074043D02*
X-19043Y1074043D01*
D54*
X25000Y871400D02*
X43500Y871400D01*
X25000Y871400D02*
X-52000Y871400D01*
D58*
X-52500Y870900D01*
D54*
X31500Y871400D02*
X43500Y871400D01*
D58*
X44000Y826400D02*
X48500Y826400D01*
D51*
X44000Y826400D02*
X36500Y826400D01*
D59*
X25476Y815376D01*
D54*
X25476Y742924D01*
X43500Y724900D01*
X25000Y835000D02*
X25000Y871400D01*
D59*
X25000Y835000D02*
X33600Y826400D01*
X48500Y826400D01*
D54*
X-52500Y715900D02*
X-52500Y586287D01*
X-60913Y577874D01*
D55*
X147500Y760000D02*
X147500Y771300D01*
X147500Y760000D02*
X140000Y752500D01*
X140000Y735000D01*
X147500Y727500D01*
X167500Y727500D01*
X177500Y737500D01*
D50*
X197300Y737500D02*
X199800Y740000D01*
D55*
X197300Y737500D02*
X177500Y737500D01*
X167000Y763000D02*
X167000Y771300D01*
X167000Y763000D02*
X177500Y752500D01*
X177500Y737500D01*
D57*
X125000Y1086305D02*
X46350Y1086305D01*
X30000Y1102655D01*
X562854Y1278846D02*
X563000Y1278700D01*
D50*
X7754Y983824D02*
X7754Y967000D01*
X7754Y983824D02*
X12096Y988165D01*
D57*
X66754Y1050000D02*
X77500Y1050000D01*
X87500Y1040000D01*
X498854Y1135854D02*
X510500Y1147500D01*
X498854Y1135854D02*
X498854Y1093000D01*
X560801Y1154955D02*
X576200Y1170354D01*
X560801Y1154955D02*
X548700Y1151346D01*
D56*
X252000Y723454D02*
X241020Y712474D01*
X252000Y723454D02*
X273700Y723454D01*
X273946Y723454D01*
X291700Y705700D01*
D60*
X-4904Y1004843D02*
X-4904Y1019043D01*
X-4904Y1004843D02*
X-7004Y1002743D01*
D57*
X330000Y1281700D02*
X332450Y1284150D01*
X379500Y1284150D01*
X429550Y1284150D01*
X433000Y1280700D01*
X43200Y912150D02*
X43200Y871700D01*
X43500Y871400D01*
X563000Y1278700D02*
X616400Y1278700D01*
X616800Y1279100D01*
D61*
X519000Y1278700D02*
X516000Y1275700D01*
X519000Y1278700D02*
X563000Y1278700D01*
X438000Y1275700D02*
X433000Y1280700D01*
X438000Y1275700D02*
X516000Y1275700D01*
D57*
X330000Y1281700D02*
X327200Y1284500D01*
X202500Y1284500D01*
D61*
X196000Y1228400D02*
X200160Y1224240D01*
D57*
X196000Y1228400D02*
X196000Y1278000D01*
X202500Y1284500D01*
X27300Y1218000D02*
X4000Y1241300D01*
X27300Y1218000D02*
X42305Y1218000D01*
X42305Y1214605D02*
X4000Y1176300D01*
X42305Y1214605D02*
X42305Y1218000D01*
X4000Y1160300D02*
X-15300Y1141000D01*
X4000Y1160300D02*
X4000Y1176300D01*
D54*
X762700Y1265300D02*
X826000Y1265300D01*
X762700Y1265300D02*
X746000Y1282000D01*
X619700Y1282000D01*
X616800Y1279100D01*
D57*
X-52793Y1102655D02*
X-66504Y1088943D01*
X-52793Y1102655D02*
X-24845Y1102655D01*
X510500Y1147500D02*
X514346Y1151346D01*
X548700Y1151346D01*
D61*
X307786Y986600D02*
X233300Y986600D01*
D59*
X88100Y804400D02*
X92500Y800000D01*
X88100Y804400D02*
X48500Y804400D01*
D52*
X222500Y777500D02*
X225000Y775000D01*
X222500Y777500D02*
X179700Y777500D01*
X173500Y771300D01*
D56*
X930860Y505860D02*
X940000Y515000D01*
X930860Y505860D02*
X892600Y505860D01*
D57*
X142500Y1002500D02*
X120000Y1002500D01*
X142500Y1002500D02*
X155000Y990000D01*
X155000Y950000D01*
D50*
X156500Y948500D01*
D57*
X173300Y948500D01*
X519500Y878500D02*
X556746Y878500D01*
X571246Y864000D01*
X273700Y738946D02*
X252000Y738946D01*
D62*
X292000Y743800D02*
X348400Y743800D01*
X292000Y743800D02*
X278554Y743800D01*
X273700Y738946D01*
D57*
X273700Y746454D01*
X295246Y768000D01*
D62*
X292000Y731246D02*
X295246Y728000D01*
X292000Y731246D02*
X292000Y743800D01*
D55*
X501754Y766000D02*
X501754Y795746D01*
X500000Y797500D01*
X501754Y766000D02*
X501754Y737000D01*
D62*
X551754Y737000D01*
X562000Y726754D01*
D57*
X550189Y1185846D02*
X576200Y1185846D01*
X550189Y1185846D02*
X548700Y1180854D01*
X576200Y1185846D02*
X594654Y1185846D01*
X610800Y1169700D01*
X564754Y1123654D02*
X564754Y1105000D01*
X564754Y1123654D02*
X610800Y1169700D01*
X616800Y1256100D02*
X679800Y1256100D01*
X679800Y1238700D01*
X610800Y1169700D01*
X491339Y1158339D02*
X480500Y1147500D01*
X491339Y1158339D02*
X548700Y1180854D01*
D61*
X480500Y1147500D02*
X468686Y1147500D01*
X307786Y986600D01*
X548700Y1206000D02*
X551700Y1209000D01*
X548700Y1206000D02*
X548700Y1180854D01*
D57*
X252000Y738946D02*
X226254Y738946D01*
X225200Y740000D01*
D52*
X225200Y774800D02*
X225000Y775000D01*
X225200Y774800D02*
X225200Y740000D01*
D51*
X225560Y1255560D02*
X226500Y1256500D01*
X225560Y1255560D02*
X225560Y1224240D01*
D57*
X175500Y1256500D02*
X175305Y1256695D01*
X137000Y1256695D01*
X128695Y1265000D02*
X5700Y1265000D01*
X4000Y1266700D01*
X128695Y1265000D02*
X137000Y1256695D01*
X4000Y1266700D02*
X-23000Y1266700D01*
X-23000Y1228700D02*
X4000Y1201700D01*
X-23000Y1228700D02*
X-23000Y1266700D01*
X-40700Y1170000D02*
X-40700Y1141000D01*
X-9000Y1201700D02*
X4000Y1201700D01*
X-9000Y1201700D02*
X-40700Y1170000D01*
D54*
X851000Y1265300D02*
X851000Y1285000D01*
X35783Y1298483D02*
X4000Y1266700D01*
X840067Y1295933D02*
X851000Y1285000D01*
X840067Y1295933D02*
X513637Y1298483D01*
X35783Y1298483D01*
D62*
X238260Y1170240D02*
X258260Y1150240D01*
X142518Y1103485D02*
X65700Y1103485D01*
X258260Y1106034D02*
X258260Y1150240D01*
X258260Y1106034D02*
X192078Y1039852D01*
X165557Y1039852D01*
X65700Y1103485D02*
X65700Y1141000D01*
X142518Y1103485D02*
X150875Y1095128D01*
X150875Y1054534D02*
X165557Y1039852D01*
X150875Y1054534D02*
X150875Y1095128D01*
D57*
X162305Y1172000D02*
X174500Y1172000D01*
X162305Y1172000D02*
X137000Y1197305D01*
D61*
X225560Y1145440D02*
X233000Y1138000D01*
X225560Y1145440D02*
X225560Y1170240D01*
D57*
X74300Y1174000D02*
X74300Y1190605D01*
X101695Y1218000D01*
D62*
X212860Y1170240D02*
X213000Y1170100D01*
X213000Y1070000D01*
X189376Y1046376D01*
X170270Y1046376D01*
X159399Y1100830D02*
X148220Y1112009D01*
X159399Y1057247D02*
X170270Y1046376D01*
X159399Y1057247D02*
X159399Y1100830D01*
X99700Y1130300D02*
X99700Y1174000D01*
X99700Y1130300D02*
X117991Y1112009D01*
X148220Y1112009D01*
D51*
X200160Y1157740D02*
X200160Y1170240D01*
D61*
X200160Y1157740D02*
X189820Y1147400D01*
D57*
X125000Y1147400D01*
D61*
X200160Y1170240D02*
X200160Y1077460D01*
X186100Y1063400D01*
D57*
X125000Y1145695D02*
X125000Y1147400D01*
D51*
X211500Y1038000D02*
X236900Y1063400D01*
D61*
X275521Y1102021D02*
X275521Y1132600D01*
X275521Y1102021D02*
X236900Y1063400D01*
X321226Y1173305D02*
X363427Y1173305D01*
X322000Y1227373D02*
X322000Y1248300D01*
X330000Y1256300D01*
X327000Y1227373D02*
X363427Y1190947D01*
X327000Y1227373D02*
X322000Y1227373D01*
X363427Y1190947D02*
X363427Y1173305D01*
X321226Y1173305D02*
X292021Y1144100D01*
X287021Y1144100D02*
X275521Y1132600D01*
X287021Y1144100D02*
X292021Y1144100D01*
X206000Y1246100D02*
X206000Y1266000D01*
X212860Y1239240D02*
X212860Y1224240D01*
X212860Y1239240D02*
X206000Y1246100D01*
X206000Y1266000D02*
X215726Y1275726D01*
X243974Y1275726D01*
X290000Y1229700D01*
X298327Y1229700D01*
X322000Y1206027D01*
X270060Y1224240D02*
X238260Y1224240D01*
X270060Y1224240D02*
X290000Y1204300D01*
D63*
X167000Y836300D02*
X167000Y829300D01*
X167000Y836300D02*
X172040Y841340D01*
X199906Y841340D02*
X205246Y836000D01*
X199906Y841340D02*
X172040Y841340D01*
X147500Y850878D02*
X170422Y873800D01*
X147500Y850878D02*
X147500Y829300D01*
X170422Y873800D02*
X199624Y873800D01*
X205246Y868178D02*
X205246Y866178D01*
X205246Y868178D02*
X199624Y873800D01*
X160500Y771300D02*
X160500Y748000D01*
X157500Y745000D01*
X90000Y881754D02*
X93246Y885000D01*
X130000Y885000D01*
X141000Y759921D02*
X135460Y754381D01*
X141000Y759921D02*
X141000Y771300D01*
X135460Y728762D02*
X172222Y692000D01*
X135460Y728762D02*
X135460Y754381D01*
X172222Y692000D02*
X207246Y692000D01*
X76214Y773800D02*
X68500Y781514D01*
X54386Y781514D01*
D26*
X53500Y782400D01*
X48500Y782400D01*
D63*
X134500Y772300D02*
X134500Y771300D01*
X134500Y772300D02*
X133000Y773800D01*
X76214Y773800D01*
X78500Y780900D02*
X121933Y780900D01*
X78500Y780900D02*
X66000Y793400D01*
X48500Y793400D01*
X121933Y780900D02*
X160586Y819553D01*
D26*
X160586Y829214D02*
X160500Y829300D01*
D63*
X160586Y829214D02*
X160586Y819553D01*
X66000Y817900D02*
X63500Y815400D01*
X48500Y815400D01*
X66000Y817900D02*
X139433Y817900D01*
X141000Y819467D02*
X141000Y829300D01*
X141000Y819467D02*
X139433Y817900D01*
X90000Y852246D02*
X75154Y837400D01*
X48500Y837400D01*
X631974Y693384D02*
X631974Y532797D01*
X631974Y693384D02*
X483058Y842300D01*
X241054Y842300D02*
X234754Y836000D01*
X241054Y842300D02*
X483058Y842300D01*
X655000Y515000D02*
X664140Y505860D01*
X717600Y505860D01*
X655000Y515000D02*
X649771Y515000D01*
X631974Y532797D01*
X243309Y866178D02*
X234754Y866178D01*
X243309Y866178D02*
X254292Y877160D01*
X472256Y877160D01*
X649000Y700416D01*
X708708Y594760D02*
X717600Y594760D01*
X708708Y594760D02*
X688160Y615308D01*
X688160Y644172D01*
X649000Y662000D02*
X649000Y700416D01*
X649000Y662000D02*
X658500Y652500D01*
X675000Y652500D01*
X679832Y652500D02*
X688160Y644172D01*
X679832Y652500D02*
X675000Y652500D01*
X260500Y692000D02*
X236754Y692000D01*
X260500Y692000D02*
X275000Y677500D01*
X679368Y672500D02*
X694160Y657708D01*
X679368Y672500D02*
X675000Y672500D01*
X717600Y607460D02*
X717260Y607120D01*
X705351Y607120D01*
X694160Y618311D01*
X694160Y657708D01*
X154000Y771300D02*
X154000Y781878D01*
X256500Y814000D02*
X267500Y825000D01*
X256500Y814000D02*
X186122Y814000D01*
X154000Y781878D01*
X477387Y860000D02*
X639007Y698380D01*
X477387Y860000D02*
X267500Y860000D01*
X708708Y582060D02*
X717600Y582060D01*
X708708Y582060D02*
X675000Y615768D01*
X675000Y632500D01*
X639007Y644007D02*
X639007Y698380D01*
X639007Y644007D02*
X639000Y644000D01*
X650500Y632500D01*
X675000Y632500D01*
D62*
X336900Y768000D02*
X324754Y768000D01*
X336900Y768000D02*
X348400Y756500D01*
X327854Y731100D02*
X324754Y728000D01*
X327854Y731100D02*
X348400Y731100D01*
D63*
X431700Y766930D02*
X431700Y814000D01*
X431700Y766930D02*
X442130Y756500D01*
X443130Y756500D02*
X452630Y766000D01*
X443130Y756500D02*
X442130Y756500D01*
X452630Y766000D02*
X472246Y766000D01*
X665000Y535000D02*
X682020Y517980D01*
X665000Y535000D02*
X655000Y535000D01*
X682020Y517980D02*
X717020Y517980D01*
D26*
X717600Y518560D01*
D63*
X442130Y743800D02*
X423972Y743800D01*
X406300Y761472D01*
X406300Y814000D01*
X465446Y743800D02*
X472246Y737000D01*
X465446Y743800D02*
X442130Y743800D01*
X702340Y556660D02*
X717600Y556660D01*
X702340Y556660D02*
X664000Y595000D01*
X655000Y595000D01*
D62*
X390000Y645000D02*
X322877Y577877D01*
X390000Y645000D02*
X390000Y717500D01*
X403600Y731100D01*
X442130Y731100D01*
X322877Y577877D02*
X249490Y577877D01*
D26*
X249487Y577874D01*
D62*
X442130Y731100D02*
X458900Y731100D01*
X459000Y731000D01*
X459000Y697000D01*
X482621Y697000D01*
X482721Y697100D01*
X524879Y697100D02*
X561854Y697100D01*
X562000Y697246D01*
D50*
X35703Y1051543D02*
X12096Y1051543D01*
X35703Y1051543D02*
X37246Y1050000D01*
X-21754Y991224D02*
X-21754Y967000D01*
X-21754Y991224D02*
X-24370Y993840D01*
X-24370Y1023854D01*
X-9181Y1039043D01*
X-4904Y1039043D01*
D63*
X-50777Y945923D02*
X-56700Y940000D01*
X-56700Y932000D01*
X134625Y923100D02*
X173300Y923100D01*
X134625Y923100D02*
X108600Y923100D01*
X108000Y922500D01*
X-4904Y1049043D02*
X-9923Y1049043D01*
X-50777Y1008189D01*
X-50777Y945923D01*
X16182Y1041543D02*
X134625Y923100D01*
X16182Y1041543D02*
X12096Y1041543D01*
X130863Y935800D02*
X173300Y935800D01*
X-31300Y932000D02*
X-37300Y938000D01*
X130000Y936663D02*
X130863Y935800D01*
X130000Y936754D02*
X20211Y1046543D01*
X130000Y938663D02*
X130000Y936754D01*
X130000Y936663D01*
X130000Y938663D02*
X130000Y962500D01*
X-4904Y1044043D02*
X-9894Y1044043D01*
X-37300Y1016638D01*
X-37300Y938000D01*
X12096Y1046543D02*
X20211Y1046543D01*
X276021Y960100D02*
X278521Y957600D01*
D55*
X276021Y960100D02*
X234400Y960100D01*
D26*
X233300Y961200D01*
X274388Y925100D02*
X278521Y925100D01*
D55*
X274388Y925100D02*
X250988Y948500D01*
X233300Y948500D01*
X321579Y956700D02*
X368754Y956700D01*
D26*
X321579Y956700D02*
X320679Y957600D01*
D55*
X368754Y1016172D02*
X405488Y1052906D01*
X368754Y1016172D02*
X368754Y956700D01*
X405488Y1052906D02*
X470512Y1052906D01*
X892600Y518560D02*
X913560Y518560D01*
X925000Y530000D01*
X925000Y882500D01*
X511915Y1052906D02*
X500000Y1052906D01*
X470512Y1052906D01*
D63*
X511915Y1052906D02*
X512094Y1052906D01*
D55*
X517976Y912024D02*
X895476Y912024D01*
X925000Y882500D01*
X514346Y1055158D02*
X514346Y1093000D01*
X514346Y1055158D02*
X512094Y1052906D01*
D57*
X514346Y1093000D02*
X526346Y1105000D01*
X535246Y1105000D01*
D55*
X500000Y930000D02*
X517976Y912024D01*
X500000Y930000D02*
X500000Y1052906D01*
D57*
X43200Y958046D02*
X43000Y958246D01*
X43200Y958046D02*
X43200Y942650D01*
D61*
X363427Y1232695D02*
X379500Y1248769D01*
X379500Y1253650D01*
D63*
X705500Y688000D02*
X705500Y634500D01*
X707140Y632860D01*
X717600Y632860D01*
X705500Y688000D02*
X681000Y712500D01*
X675000Y712500D01*
X700500Y673000D02*
X700500Y622000D01*
X702340Y620160D01*
X717600Y620160D01*
X700500Y673000D02*
X681000Y692500D01*
X675000Y692500D01*
X782700Y707000D02*
X796656Y693044D01*
X782700Y707000D02*
X782700Y717000D01*
X796656Y693044D02*
X868044Y693044D01*
X782700Y717000D02*
X782700Y726300D01*
X868044Y693044D02*
X892600Y668488D01*
X892600Y658260D01*
X691200Y773800D02*
X691200Y815000D01*
X691200Y773800D02*
X720000Y745000D01*
X764000Y745000D01*
X782700Y726300D01*
X849500Y678860D02*
X849500Y670360D01*
X770492Y688220D02*
X757300Y701412D01*
X770492Y688220D02*
X840140Y688220D01*
X849500Y678860D01*
X757300Y717000D02*
X734300Y740000D01*
X713800Y740000D01*
X665800Y788000D01*
X665800Y815000D01*
X757300Y717000D02*
X757300Y701412D01*
X665800Y840400D02*
X678400Y853000D01*
X707000Y853000D01*
X772000Y788000D01*
X906750Y649250D02*
X903060Y645560D01*
X892600Y645560D01*
X795288Y788000D02*
X772000Y788000D01*
X795288Y788000D02*
X885644Y697644D01*
X906750Y676538D01*
X906750Y649250D01*
X827456Y697644D02*
X808100Y717000D01*
X827456Y697644D02*
X885644Y697644D01*
X665800Y865800D02*
X647500Y865800D01*
X647500Y795000D01*
X731750Y710750D01*
X760600Y681900D01*
X760600Y670360D01*
X647500Y865800D02*
X602554Y865800D01*
D57*
X600754Y864000D01*
D63*
X731900Y717000D02*
X731900Y710900D01*
X731750Y710750D01*
X717600Y531260D02*
X687660Y531260D01*
X663920Y555000D01*
X655000Y555000D01*
X188700Y961200D02*
X173300Y961200D01*
X188700Y961200D02*
X230000Y1002500D01*
X300000Y1002500D01*
X394700Y1097200D01*
X394700Y1121500D01*
X697360Y543960D02*
X717600Y543960D01*
X697360Y543960D02*
X666320Y575000D01*
X186400Y973900D02*
X173300Y973900D01*
X186400Y973900D02*
X222500Y1010000D01*
X296000Y1010000D01*
X362500Y1076500D01*
X362500Y1121500D01*
X369300Y1121500D01*
X655000Y575000D02*
X666320Y575000D01*
D55*
X368754Y925000D02*
X320779Y925000D01*
D26*
X320679Y925100D01*
D55*
X390615Y900694D02*
X405388Y900694D01*
X390615Y900694D02*
X371654Y919655D01*
X368754Y925000D01*
X405388Y900694D02*
X470412Y900694D01*
X641800Y729306D01*
X717600Y695760D02*
X717600Y658260D01*
X717600Y695760D02*
X684054Y729306D01*
X641800Y729306D01*
D26*
X305100Y1044588D02*
X305100Y1048721D01*
D60*
X305100Y1044588D02*
X282727Y1022214D01*
X166449Y1022214D01*
X957Y1059043D02*
X-4904Y1059043D01*
X957Y1059043D02*
X3457Y1056543D01*
X12096Y1056543D01*
X957Y1034043D02*
X-4904Y1034043D01*
X957Y1034043D02*
X3457Y1031543D01*
X12096Y1031543D01*
D50*
X3457Y1031543D02*
X3457Y1056543D01*
D60*
X12096Y1031543D02*
X16726Y1031543D01*
X43000Y1005269D02*
X43000Y987754D01*
X43000Y1005269D02*
X16726Y1031543D01*
X18260Y1056543D02*
X27067Y1065351D01*
X18260Y1056543D02*
X12096Y1056543D01*
X123312Y1065351D02*
X166449Y1022214D01*
X123312Y1065351D02*
X27067Y1065351D01*
D57*
X516000Y1250300D02*
X519000Y1253300D01*
X563000Y1253300D01*
X516000Y1250300D02*
X511000Y1255300D01*
X433000Y1255300D01*
X433000Y1202921D02*
X380179Y1150100D01*
X433000Y1202921D02*
X433000Y1255300D01*
X563000Y1253300D02*
X580600Y1253300D01*
X600800Y1233100D02*
X616800Y1233100D01*
X600800Y1233100D02*
X580600Y1253300D01*
D61*
X305100Y1115021D02*
X305100Y1090879D01*
X305100Y1115021D02*
X334179Y1144100D01*
X374179Y1144100D01*
X380179Y1150100D01*
M02*
