G04 EAGLE Gerber RS-274X export*
G75*
%MOMM*%
%FSLAX34Y34*%
%LPD*%
%IN*%
%IPPOS*%
%AMOC8*
5,1,8,0,0,1.08239X$1,22.5*%
G01*
G04 Define Apertures*
%ADD10C,0.254000*%
D10*
X-93000Y473500D02*
X980000Y473500D01*
X980000Y1320000D01*
X-93000Y1320000D01*
X-93000Y473500D01*
X2246Y1006543D02*
X2258Y1006260D01*
X2295Y1005979D01*
X2356Y1005702D01*
X2442Y1005432D01*
X2550Y1005170D01*
X2681Y1004918D01*
X2833Y1004679D01*
X3006Y1004454D01*
X3198Y1004245D01*
X3407Y1004054D01*
X3632Y1003881D01*
X3871Y1003729D01*
X4122Y1003598D01*
X4384Y1003489D01*
X4655Y1003404D01*
X4931Y1003343D01*
X5212Y1003306D01*
X5496Y1003293D01*
X5779Y1003306D01*
X6060Y1003343D01*
X6337Y1003404D01*
X6607Y1003489D01*
X6869Y1003598D01*
X7121Y1003729D01*
X7360Y1003881D01*
X7585Y1004054D01*
X7794Y1004245D01*
X7985Y1004454D01*
X8158Y1004679D01*
X8310Y1004918D01*
X8441Y1005170D01*
X8550Y1005432D01*
X8635Y1005702D01*
X8696Y1005979D01*
X8733Y1006260D01*
X8746Y1006543D01*
X8746Y1009543D01*
X8733Y1009827D01*
X8696Y1010108D01*
X8635Y1010384D01*
X8550Y1010655D01*
X8441Y1010917D01*
X8310Y1011168D01*
X8158Y1011407D01*
X7985Y1011632D01*
X7794Y1011841D01*
X7585Y1012033D01*
X7360Y1012206D01*
X7121Y1012358D01*
X6869Y1012489D01*
X6607Y1012597D01*
X6337Y1012683D01*
X6060Y1012744D01*
X5779Y1012781D01*
X5496Y1012793D01*
X5212Y1012781D01*
X4931Y1012744D01*
X4655Y1012683D01*
X4384Y1012597D01*
X4122Y1012489D01*
X3871Y1012358D01*
X3632Y1012206D01*
X3407Y1012033D01*
X3198Y1011841D01*
X3006Y1011632D01*
X2833Y1011407D01*
X2681Y1011168D01*
X2550Y1010917D01*
X2442Y1010655D01*
X2356Y1010384D01*
X2295Y1010108D01*
X2258Y1009827D01*
X2246Y1009543D01*
X2246Y1006543D01*
X-10004Y1082843D02*
X-4004Y1082843D01*
X-3786Y1082853D01*
X-3570Y1082881D01*
X-3357Y1082928D01*
X-3149Y1082994D01*
X-2948Y1083077D01*
X-2754Y1083178D01*
X-2570Y1083295D01*
X-2397Y1083428D01*
X-2237Y1083575D01*
X-2089Y1083736D01*
X-1956Y1083909D01*
X-1839Y1084093D01*
X-1739Y1084287D01*
X-1655Y1084488D01*
X-1590Y1084696D01*
X-1542Y1084909D01*
X-1514Y1085125D01*
X-1504Y1085343D01*
X-1514Y1085561D01*
X-1542Y1085777D01*
X-1590Y1085990D01*
X-1655Y1086198D01*
X-1739Y1086400D01*
X-1839Y1086593D01*
X-1956Y1086777D01*
X-2089Y1086950D01*
X-2237Y1087111D01*
X-2397Y1087258D01*
X-2570Y1087391D01*
X-2754Y1087508D01*
X-2948Y1087609D01*
X-3149Y1087692D01*
X-3357Y1087758D01*
X-3570Y1087805D01*
X-3786Y1087834D01*
X-4004Y1087843D01*
X-10004Y1087843D01*
X-10222Y1087834D01*
X-10438Y1087805D01*
X-10651Y1087758D01*
X-10859Y1087692D01*
X-11061Y1087609D01*
X-11254Y1087508D01*
X-11438Y1087391D01*
X-11611Y1087258D01*
X-11772Y1087111D01*
X-11919Y1086950D01*
X-12052Y1086777D01*
X-12169Y1086593D01*
X-12270Y1086400D01*
X-12354Y1086198D01*
X-12419Y1085990D01*
X-12466Y1085777D01*
X-12495Y1085561D01*
X-12504Y1085343D01*
X-12495Y1085125D01*
X-12466Y1084909D01*
X-12419Y1084696D01*
X-12354Y1084488D01*
X-12270Y1084287D01*
X-12169Y1084093D01*
X-12052Y1083909D01*
X-11919Y1083736D01*
X-11772Y1083575D01*
X-11611Y1083428D01*
X-11438Y1083295D01*
X-11254Y1083178D01*
X-11061Y1083077D01*
X-10859Y1082994D01*
X-10651Y1082928D01*
X-10438Y1082881D01*
X-10222Y1082853D01*
X-10004Y1082843D01*
X-10004Y1000243D02*
X-4004Y1000243D01*
X-3786Y1000253D01*
X-3570Y1000281D01*
X-3357Y1000328D01*
X-3149Y1000394D01*
X-2948Y1000477D01*
X-2754Y1000578D01*
X-2570Y1000695D01*
X-2397Y1000828D01*
X-2237Y1000975D01*
X-2089Y1001136D01*
X-1956Y1001309D01*
X-1839Y1001493D01*
X-1739Y1001687D01*
X-1655Y1001888D01*
X-1590Y1002096D01*
X-1542Y1002309D01*
X-1514Y1002525D01*
X-1504Y1002743D01*
X-1514Y1002961D01*
X-1542Y1003177D01*
X-1590Y1003390D01*
X-1655Y1003598D01*
X-1739Y1003800D01*
X-1839Y1003993D01*
X-1956Y1004177D01*
X-2089Y1004350D01*
X-2237Y1004511D01*
X-2397Y1004658D01*
X-2570Y1004791D01*
X-2754Y1004908D01*
X-2948Y1005009D01*
X-3149Y1005092D01*
X-3357Y1005158D01*
X-3570Y1005205D01*
X-3786Y1005234D01*
X-4004Y1005243D01*
X-10004Y1005243D01*
X-10222Y1005234D01*
X-10438Y1005205D01*
X-10651Y1005158D01*
X-10859Y1005092D01*
X-11061Y1005009D01*
X-11254Y1004908D01*
X-11438Y1004791D01*
X-11611Y1004658D01*
X-11772Y1004511D01*
X-11919Y1004350D01*
X-12052Y1004177D01*
X-12169Y1003993D01*
X-12270Y1003800D01*
X-12354Y1003598D01*
X-12419Y1003390D01*
X-12466Y1003177D01*
X-12495Y1002961D01*
X-12504Y1002743D01*
X-12495Y1002525D01*
X-12466Y1002309D01*
X-12419Y1002096D01*
X-12354Y1001888D01*
X-12270Y1001687D01*
X-12169Y1001493D01*
X-12052Y1001309D01*
X-11919Y1001136D01*
X-11772Y1000975D01*
X-11611Y1000828D01*
X-11438Y1000695D01*
X-11254Y1000578D01*
X-11061Y1000477D01*
X-10859Y1000394D01*
X-10651Y1000328D01*
X-10438Y1000281D01*
X-10222Y1000253D01*
X-10004Y1000243D01*
X-69504Y1086443D02*
X-63504Y1086443D01*
X-63286Y1086453D01*
X-63070Y1086481D01*
X-62857Y1086528D01*
X-62649Y1086594D01*
X-62448Y1086677D01*
X-62254Y1086778D01*
X-62070Y1086895D01*
X-61897Y1087028D01*
X-61737Y1087175D01*
X-61589Y1087336D01*
X-61456Y1087509D01*
X-61339Y1087693D01*
X-61239Y1087887D01*
X-61155Y1088088D01*
X-61090Y1088296D01*
X-61042Y1088509D01*
X-61014Y1088725D01*
X-61004Y1088943D01*
X-61014Y1089161D01*
X-61042Y1089377D01*
X-61090Y1089590D01*
X-61155Y1089798D01*
X-61239Y1090000D01*
X-61339Y1090193D01*
X-61456Y1090377D01*
X-61589Y1090550D01*
X-61737Y1090711D01*
X-61897Y1090858D01*
X-62070Y1090991D01*
X-62254Y1091108D01*
X-62448Y1091209D01*
X-62649Y1091292D01*
X-62857Y1091358D01*
X-63070Y1091405D01*
X-63286Y1091434D01*
X-63504Y1091443D01*
X-69504Y1091443D01*
X-69722Y1091434D01*
X-69938Y1091405D01*
X-70151Y1091358D01*
X-70359Y1091292D01*
X-70561Y1091209D01*
X-70754Y1091108D01*
X-70938Y1090991D01*
X-71111Y1090858D01*
X-71272Y1090711D01*
X-71419Y1090550D01*
X-71552Y1090377D01*
X-71669Y1090193D01*
X-71770Y1090000D01*
X-71854Y1089798D01*
X-71919Y1089590D01*
X-71966Y1089377D01*
X-71995Y1089161D01*
X-72004Y1088943D01*
X-71995Y1088725D01*
X-71966Y1088509D01*
X-71919Y1088296D01*
X-71854Y1088088D01*
X-71770Y1087887D01*
X-71669Y1087693D01*
X-71552Y1087509D01*
X-71419Y1087336D01*
X-71272Y1087175D01*
X-71111Y1087028D01*
X-70938Y1086895D01*
X-70754Y1086778D01*
X-70561Y1086677D01*
X-70359Y1086594D01*
X-70151Y1086528D01*
X-69938Y1086481D01*
X-69722Y1086453D01*
X-69504Y1086443D01*
X-69504Y996643D02*
X-63504Y996643D01*
X-63286Y996653D01*
X-63070Y996681D01*
X-62857Y996728D01*
X-62649Y996794D01*
X-62448Y996877D01*
X-62254Y996978D01*
X-62070Y997095D01*
X-61897Y997228D01*
X-61737Y997375D01*
X-61589Y997536D01*
X-61456Y997709D01*
X-61339Y997893D01*
X-61239Y998087D01*
X-61155Y998288D01*
X-61090Y998496D01*
X-61042Y998709D01*
X-61014Y998925D01*
X-61004Y999143D01*
X-61014Y999361D01*
X-61042Y999577D01*
X-61090Y999790D01*
X-61155Y999998D01*
X-61239Y1000200D01*
X-61339Y1000393D01*
X-61456Y1000577D01*
X-61589Y1000750D01*
X-61737Y1000911D01*
X-61897Y1001058D01*
X-62070Y1001191D01*
X-62254Y1001308D01*
X-62448Y1001409D01*
X-62649Y1001492D01*
X-62857Y1001558D01*
X-63070Y1001605D01*
X-63286Y1001634D01*
X-63504Y1001643D01*
X-69504Y1001643D01*
X-69722Y1001634D01*
X-69938Y1001605D01*
X-70151Y1001558D01*
X-70359Y1001492D01*
X-70561Y1001409D01*
X-70754Y1001308D01*
X-70938Y1001191D01*
X-71111Y1001058D01*
X-71272Y1000911D01*
X-71419Y1000750D01*
X-71552Y1000577D01*
X-71669Y1000393D01*
X-71770Y1000200D01*
X-71854Y999998D01*
X-71919Y999790D01*
X-71966Y999577D01*
X-71995Y999361D01*
X-72004Y999143D01*
X-71995Y998925D01*
X-71966Y998709D01*
X-71919Y998496D01*
X-71854Y998288D01*
X-71770Y998087D01*
X-71669Y997893D01*
X-71552Y997709D01*
X-71419Y997536D01*
X-71272Y997375D01*
X-71111Y997228D01*
X-70938Y997095D01*
X-70754Y996978D01*
X-70561Y996877D01*
X-70359Y996794D01*
X-70151Y996728D01*
X-69938Y996681D01*
X-69722Y996653D01*
X-69504Y996643D01*
M02*
