G04 EAGLE Gerber RS-274X export*
G75*
%MOMM*%
%FSLAX34Y34*%
%LPD*%
%INSolderpaste Top*%
%IPPOS*%
%AMOC8*
5,1,8,0,0,1.08239X$1,22.5*%
G01*
G04 Define Apertures*
%ADD10R,3.150000X4.780000*%
%ADD11R,0.970200X0.920900*%
%ADD12R,2.392000X1.565300*%
%ADD13R,1.210300X0.875700*%
%ADD14R,0.610000X1.600000*%
%ADD15R,3.510000X2.620000*%
%ADD16R,0.360000X1.260000*%
%ADD17R,1.600000X0.700000*%
%ADD18R,1.400000X1.200000*%
%ADD19R,1.400000X1.600000*%
%ADD20R,2.200000X1.200000*%
%ADD21R,1.874000X0.532600*%
%ADD22R,1.500000X1.000000*%
%ADD23R,1.500000X3.300000*%
%ADD24R,1.500000X0.900000*%
%ADD25R,0.900000X1.500000*%
%ADD26R,1.050000X1.050000*%
%ADD27R,1.200000X0.800000*%
%ADD28R,0.700000X0.300000*%
%ADD29R,1.711800X0.961800*%
%ADD30R,0.920900X0.970200*%
%ADD31R,1.565300X2.392000*%
%ADD32R,1.815300X1.164600*%
%ADD33R,1.231200X3.370200*%
%ADD34R,3.370200X1.231200*%
%ADD35R,1.164600X1.815300*%
D10*
X249487Y577874D03*
X-60913Y577874D03*
D11*
X252000Y738946D03*
X252000Y723454D03*
X273700Y738946D03*
X273700Y723454D03*
D12*
X482721Y697100D03*
X524879Y697100D03*
D13*
X322000Y1206027D03*
X322000Y1227373D03*
D14*
X238260Y1224240D03*
X225560Y1224240D03*
X212860Y1224240D03*
X200160Y1224240D03*
X200160Y1170240D03*
X212860Y1170240D03*
X225560Y1170240D03*
X238260Y1170240D03*
D15*
X219210Y1197240D03*
D16*
X173500Y829300D03*
X167000Y829300D03*
X160500Y829300D03*
X154000Y829300D03*
X147500Y829300D03*
X141000Y829300D03*
X134500Y829300D03*
X134500Y771300D03*
X141000Y771300D03*
X147500Y771300D03*
X154000Y771300D03*
X160500Y771300D03*
X167000Y771300D03*
X173500Y771300D03*
D17*
X48500Y859400D03*
X48500Y848400D03*
X48500Y837400D03*
X48500Y826400D03*
X48500Y815400D03*
X48500Y804400D03*
X48500Y793400D03*
X48500Y782400D03*
X48500Y771400D03*
D18*
X43500Y871400D03*
D19*
X43500Y724900D03*
D20*
X-52500Y870900D03*
X-52500Y715900D03*
D21*
X348400Y756500D03*
X348400Y743800D03*
X348400Y731100D03*
X348400Y718400D03*
X348400Y705700D03*
X348400Y693000D03*
X348400Y680300D03*
X348400Y667600D03*
X442130Y667600D03*
X442130Y680300D03*
X442130Y693000D03*
X442130Y705700D03*
X442130Y718400D03*
X442130Y731100D03*
X442130Y743800D03*
X442130Y756500D03*
D22*
X616800Y1279100D03*
X616800Y1256100D03*
X616800Y1233100D03*
D23*
X679800Y1256100D03*
D24*
X892600Y493160D03*
X892600Y505860D03*
X892600Y518560D03*
X892600Y531260D03*
X892600Y543960D03*
X892600Y556660D03*
X892600Y569360D03*
X892600Y582060D03*
X892600Y594760D03*
X892600Y607460D03*
X892600Y620160D03*
X892600Y632860D03*
X892600Y645560D03*
X892600Y658260D03*
D25*
X862200Y670360D03*
X849500Y670360D03*
X836800Y670360D03*
X824100Y670360D03*
X811400Y670360D03*
X798700Y670360D03*
X786000Y670360D03*
X773300Y670360D03*
X760600Y670360D03*
X747900Y670360D03*
D24*
X717600Y658260D03*
X717600Y645560D03*
X717600Y632860D03*
X717600Y620160D03*
X717600Y607460D03*
X717600Y594760D03*
X717600Y582060D03*
X717600Y569360D03*
X717600Y556660D03*
X717600Y543960D03*
X717600Y531260D03*
X717600Y518560D03*
X717600Y505860D03*
X717600Y493160D03*
D26*
X811900Y581410D03*
X811900Y566160D03*
X811900Y550910D03*
X796650Y581410D03*
X796650Y566160D03*
X796650Y550910D03*
X827150Y581410D03*
X827150Y566160D03*
X827150Y550910D03*
D27*
X173300Y986600D03*
X173300Y973900D03*
X173300Y961200D03*
X173300Y948500D03*
X173300Y935800D03*
X173300Y923100D03*
X173300Y910400D03*
X173300Y897700D03*
X233300Y897700D03*
X233300Y910400D03*
X233300Y923100D03*
X233300Y935800D03*
X233300Y948500D03*
X233300Y961200D03*
X233300Y973900D03*
X233300Y986600D03*
D28*
X12096Y1071543D03*
X-4904Y1019043D03*
X-4904Y1024043D03*
X-4904Y1029043D03*
X-4904Y1034043D03*
X-4904Y1039043D03*
X-4904Y1044043D03*
X-4904Y1049043D03*
X-4904Y1054043D03*
X-4904Y1059043D03*
X-4904Y1064043D03*
X-4904Y1069043D03*
X-4904Y1074043D03*
X12096Y1066543D03*
X12096Y1061543D03*
X12096Y1056543D03*
X12096Y1051543D03*
X12096Y1046543D03*
X12096Y1041543D03*
X12096Y1036543D03*
X12096Y1031543D03*
X12096Y1026543D03*
X12096Y1021543D03*
X12096Y1016543D03*
D29*
X43200Y912150D03*
X43200Y942650D03*
D12*
X278521Y925100D03*
X320679Y925100D03*
X278521Y957600D03*
X320679Y957600D03*
X334179Y1144100D03*
X292021Y1144100D03*
D30*
X384246Y925000D03*
X368754Y925000D03*
X384246Y956700D03*
X368754Y956700D03*
D31*
X305100Y1090879D03*
X305100Y1048721D03*
D29*
X379500Y1284150D03*
X379500Y1253650D03*
D32*
X548700Y1180854D03*
X548700Y1151346D03*
D11*
X576200Y1185846D03*
X576200Y1170354D03*
D30*
X514346Y1093000D03*
X498854Y1093000D03*
D33*
X42305Y1218000D03*
X101695Y1218000D03*
D34*
X137000Y1256695D03*
X137000Y1197305D03*
X125000Y1145695D03*
X125000Y1086305D03*
X363427Y1173305D03*
X363427Y1232695D03*
D32*
X43000Y958246D03*
X43000Y987754D03*
D35*
X-21754Y967000D03*
X7754Y967000D03*
X66754Y1050000D03*
X37246Y1050000D03*
X600754Y864000D03*
X571246Y864000D03*
X564754Y1105000D03*
X535246Y1105000D03*
X234754Y836000D03*
X205246Y836000D03*
X234754Y866178D03*
X205246Y866178D03*
D32*
X90000Y881754D03*
X90000Y852246D03*
D35*
X207246Y692000D03*
X236754Y692000D03*
X295246Y768000D03*
X324754Y768000D03*
X295246Y728000D03*
X324754Y728000D03*
X472246Y766000D03*
X501754Y766000D03*
X472246Y737000D03*
X501754Y737000D03*
D32*
X562000Y726754D03*
X562000Y697246D03*
M02*
