G04 EAGLE Gerber RS-274X export*
G75*
%MOMM*%
%FSLAX34Y34*%
%LPD*%
%INSoldermask Bottom*%
%IPPOS*%
%AMOC8*
5,1,8,0,0,1.08239X$1,22.5*%
G01*
G04 Define Apertures*
%ADD10C,1.903200*%
%ADD11R,1.411200X1.411200*%
%ADD12C,1.411200*%
%ADD13R,1.311200X1.311200*%
%ADD14C,1.311200*%
%ADD15C,1.211200*%
%ADD16C,0.853200*%
%ADD17C,2.082800*%
%ADD18P,1.8695X8X22.5*%
%ADD19C,1.727200*%
%ADD20R,1.727200X1.727200*%
%ADD21C,1.727200*%
%ADD22C,1.653200*%
%ADD23C,1.711200*%
D10*
X186100Y1063400D03*
X211500Y1038000D03*
X236900Y1063400D03*
D11*
X610800Y1169700D03*
D12*
X610800Y1144300D03*
X610800Y1118900D03*
X610800Y1093500D03*
X610800Y1068100D03*
X610800Y1042700D03*
X610800Y1017300D03*
X610800Y991900D03*
X610800Y966500D03*
D13*
X665800Y865800D03*
D14*
X665800Y840400D03*
X665800Y815000D03*
X691200Y865800D03*
X691200Y840400D03*
X691200Y815000D03*
X730400Y764400D03*
X755800Y764400D03*
X781200Y764400D03*
X820400Y815000D03*
X820400Y840400D03*
X820400Y865800D03*
X845800Y815000D03*
X845800Y840400D03*
X845800Y865800D03*
D15*
X-61464Y1088943D02*
X-71544Y1088943D01*
X-71544Y999143D02*
X-61464Y999143D01*
X-12044Y1002743D02*
X-1964Y1002743D01*
X-1964Y1085343D02*
X-12044Y1085343D01*
D16*
X5496Y1080043D03*
D17*
X405388Y945906D03*
X470412Y945906D03*
X405388Y900694D03*
X470412Y900694D03*
X470512Y1007694D03*
X405488Y1007694D03*
X470512Y1052906D03*
X405488Y1052906D03*
D18*
X87500Y1040000D03*
X-1500Y936500D03*
D19*
X-56700Y939620D02*
X-56700Y924380D01*
X-31300Y924380D02*
X-31300Y939620D01*
D18*
X108000Y922500D03*
X130000Y962500D03*
X480500Y1147500D03*
X120000Y1002500D03*
X92500Y800000D03*
X177500Y857500D03*
D19*
X199800Y747620D02*
X199800Y732380D01*
X225200Y732380D02*
X225200Y747620D01*
D18*
X157500Y745000D03*
X130000Y885000D03*
X500000Y797500D03*
X432500Y612500D03*
X510500Y1147500D03*
D20*
X655000Y515000D03*
D21*
X655000Y555000D03*
X655000Y535000D03*
X655000Y575000D03*
X655000Y595000D03*
D20*
X675000Y632500D03*
D21*
X675000Y672500D03*
X675000Y652500D03*
X675000Y692500D03*
X675000Y712500D03*
D18*
X519500Y878500D03*
D19*
X394700Y1113880D02*
X394700Y1129120D01*
X369300Y1129120D02*
X369300Y1113880D01*
D18*
X275000Y677500D03*
D19*
X431700Y806380D02*
X431700Y821620D01*
X406300Y821620D02*
X406300Y806380D01*
D18*
X940000Y515000D03*
X267500Y860000D03*
X267500Y825000D03*
X233000Y1138000D03*
X174500Y1172000D03*
X175500Y1256500D03*
X226500Y1256500D03*
D17*
X-40700Y1141000D03*
X-15300Y1141000D03*
D22*
X4000Y1201700D03*
X4000Y1176300D03*
D17*
X65700Y1141000D03*
X40300Y1141000D03*
D22*
X4000Y1266700D03*
X4000Y1241300D03*
D17*
X99700Y1174000D03*
X74300Y1174000D03*
X290000Y1229700D03*
X290000Y1204300D03*
D22*
X330000Y1256300D03*
X330000Y1281700D03*
X563000Y1253300D03*
X563000Y1278700D03*
D17*
X516000Y1250300D03*
X516000Y1275700D03*
D22*
X433000Y1255300D03*
X433000Y1280700D03*
X481700Y1205000D03*
X456300Y1205000D03*
D17*
X551700Y1209000D03*
X526300Y1209000D03*
D23*
X826000Y1265300D03*
X851000Y1265300D03*
D19*
X731900Y724620D02*
X731900Y709380D01*
X757300Y709380D02*
X757300Y724620D01*
X782700Y724620D02*
X782700Y709380D01*
X808100Y709380D02*
X808100Y724620D01*
M02*
