G04 EAGLE Gerber RS-274X export*
G75*
%MOMM*%
%FSLAX34Y34*%
%LPD*%
%INSoldermask Top*%
%IPPOS*%
%AMOC8*
5,1,8,0,0,1.08239X$1,22.5*%
G01*
G04 Define Apertures*
%ADD10R,3.353200X4.983200*%
%ADD11R,1.173400X1.124100*%
%ADD12R,2.595200X1.768500*%
%ADD13R,1.413500X1.078900*%
%ADD14C,1.903200*%
%ADD15R,1.411200X1.411200*%
%ADD16C,1.411200*%
%ADD17R,1.311200X1.311200*%
%ADD18C,1.311200*%
%ADD19R,0.813200X1.803200*%
%ADD20R,3.713200X2.823200*%
%ADD21R,0.563200X1.463200*%
%ADD22R,1.803200X0.903200*%
%ADD23R,1.603200X1.403200*%
%ADD24R,1.603200X1.803200*%
%ADD25R,2.403200X1.403200*%
%ADD26R,2.077200X0.735800*%
%ADD27R,1.703200X1.203200*%
%ADD28R,1.703200X3.503200*%
%ADD29R,1.703200X1.103200*%
%ADD30R,1.103200X1.703200*%
%ADD31R,1.253200X1.253200*%
%ADD32R,1.403200X1.003200*%
%ADD33C,1.211200*%
%ADD34R,0.903200X0.503200*%
%ADD35C,0.853200*%
%ADD36R,1.915000X1.165000*%
%ADD37C,2.082800*%
%ADD38R,1.124100X1.173400*%
%ADD39R,1.768500X2.595200*%
%ADD40R,2.018500X1.367800*%
%ADD41P,1.8695X8X22.5*%
%ADD42C,1.727200*%
%ADD43R,1.727200X1.727200*%
%ADD44C,1.727200*%
%ADD45C,1.653200*%
%ADD46R,1.434400X3.573400*%
%ADD47R,3.573400X1.434400*%
%ADD48R,1.367800X2.018500*%
%ADD49C,1.711200*%
D10*
X249487Y577874D03*
X-60913Y577874D03*
D11*
X252000Y738946D03*
X252000Y723454D03*
X273700Y738946D03*
X273700Y723454D03*
D12*
X482721Y697100D03*
X524879Y697100D03*
D13*
X322000Y1206027D03*
X322000Y1227373D03*
D14*
X186100Y1063400D03*
X211500Y1038000D03*
X236900Y1063400D03*
D15*
X610800Y1169700D03*
D16*
X610800Y1144300D03*
X610800Y1118900D03*
X610800Y1093500D03*
X610800Y1068100D03*
X610800Y1042700D03*
X610800Y1017300D03*
X610800Y991900D03*
X610800Y966500D03*
D17*
X665800Y865800D03*
D18*
X665800Y840400D03*
X665800Y815000D03*
X691200Y865800D03*
X691200Y840400D03*
X691200Y815000D03*
X730400Y764400D03*
X755800Y764400D03*
X781200Y764400D03*
X820400Y815000D03*
X820400Y840400D03*
X820400Y865800D03*
X845800Y815000D03*
X845800Y840400D03*
X845800Y865800D03*
D19*
X238260Y1224240D03*
X225560Y1224240D03*
X212860Y1224240D03*
X200160Y1224240D03*
X200160Y1170240D03*
X212860Y1170240D03*
X225560Y1170240D03*
X238260Y1170240D03*
D20*
X219210Y1197240D03*
D21*
X173500Y829300D03*
X167000Y829300D03*
X160500Y829300D03*
X154000Y829300D03*
X147500Y829300D03*
X141000Y829300D03*
X134500Y829300D03*
X134500Y771300D03*
X141000Y771300D03*
X147500Y771300D03*
X154000Y771300D03*
X160500Y771300D03*
X167000Y771300D03*
X173500Y771300D03*
D22*
X48500Y859400D03*
X48500Y848400D03*
X48500Y837400D03*
X48500Y826400D03*
X48500Y815400D03*
X48500Y804400D03*
X48500Y793400D03*
X48500Y782400D03*
X48500Y771400D03*
D23*
X43500Y871400D03*
D24*
X43500Y724900D03*
D25*
X-52500Y870900D03*
X-52500Y715900D03*
D26*
X348400Y756500D03*
X348400Y743800D03*
X348400Y731100D03*
X348400Y718400D03*
X348400Y705700D03*
X348400Y693000D03*
X348400Y680300D03*
X348400Y667600D03*
X442130Y667600D03*
X442130Y680300D03*
X442130Y693000D03*
X442130Y705700D03*
X442130Y718400D03*
X442130Y731100D03*
X442130Y743800D03*
X442130Y756500D03*
D27*
X616800Y1279100D03*
X616800Y1256100D03*
X616800Y1233100D03*
D28*
X679800Y1256100D03*
D29*
X892600Y493160D03*
X892600Y505860D03*
X892600Y518560D03*
X892600Y531260D03*
X892600Y543960D03*
X892600Y556660D03*
X892600Y569360D03*
X892600Y582060D03*
X892600Y594760D03*
X892600Y607460D03*
X892600Y620160D03*
X892600Y632860D03*
X892600Y645560D03*
X892600Y658260D03*
D30*
X862200Y670360D03*
X849500Y670360D03*
X836800Y670360D03*
X824100Y670360D03*
X811400Y670360D03*
X798700Y670360D03*
X786000Y670360D03*
X773300Y670360D03*
X760600Y670360D03*
X747900Y670360D03*
D29*
X717600Y658260D03*
X717600Y645560D03*
X717600Y632860D03*
X717600Y620160D03*
X717600Y607460D03*
X717600Y594760D03*
X717600Y582060D03*
X717600Y569360D03*
X717600Y556660D03*
X717600Y543960D03*
X717600Y531260D03*
X717600Y518560D03*
X717600Y505860D03*
X717600Y493160D03*
D31*
X811900Y581410D03*
X811900Y566160D03*
X811900Y550910D03*
X796650Y581410D03*
X796650Y566160D03*
X796650Y550910D03*
X827150Y581410D03*
X827150Y566160D03*
X827150Y550910D03*
D32*
X173300Y986600D03*
X173300Y973900D03*
X173300Y961200D03*
X173300Y948500D03*
X173300Y935800D03*
X173300Y923100D03*
X173300Y910400D03*
X173300Y897700D03*
X233300Y897700D03*
X233300Y910400D03*
X233300Y923100D03*
X233300Y935800D03*
X233300Y948500D03*
X233300Y961200D03*
X233300Y973900D03*
X233300Y986600D03*
D33*
X-61464Y1088943D02*
X-71544Y1088943D01*
X-71544Y999143D02*
X-61464Y999143D01*
X-12044Y1002743D02*
X-1964Y1002743D01*
X-1964Y1085343D02*
X-12044Y1085343D01*
D34*
X12096Y1071543D03*
X-4904Y1019043D03*
X-4904Y1024043D03*
X-4904Y1029043D03*
X-4904Y1034043D03*
X-4904Y1039043D03*
X-4904Y1044043D03*
X-4904Y1049043D03*
X-4904Y1054043D03*
X-4904Y1059043D03*
X-4904Y1064043D03*
X-4904Y1069043D03*
X-4904Y1074043D03*
X12096Y1066543D03*
X12096Y1061543D03*
X12096Y1056543D03*
X12096Y1051543D03*
X12096Y1046543D03*
X12096Y1041543D03*
X12096Y1036543D03*
X12096Y1031543D03*
X12096Y1026543D03*
X12096Y1021543D03*
X12096Y1016543D03*
D35*
X5496Y1080043D03*
D36*
X43200Y912150D03*
X43200Y942650D03*
D12*
X278521Y925100D03*
X320679Y925100D03*
X278521Y957600D03*
X320679Y957600D03*
X334179Y1144100D03*
X292021Y1144100D03*
D37*
X405388Y945906D03*
X470412Y945906D03*
X405388Y900694D03*
X470412Y900694D03*
X470512Y1007694D03*
X405488Y1007694D03*
X470512Y1052906D03*
X405488Y1052906D03*
D38*
X384246Y925000D03*
X368754Y925000D03*
X384246Y956700D03*
X368754Y956700D03*
D39*
X305100Y1090879D03*
X305100Y1048721D03*
D36*
X379500Y1284150D03*
X379500Y1253650D03*
D40*
X548700Y1180854D03*
X548700Y1151346D03*
D11*
X576200Y1185846D03*
X576200Y1170354D03*
D38*
X514346Y1093000D03*
X498854Y1093000D03*
D41*
X87500Y1040000D03*
X-1500Y936500D03*
D42*
X-56700Y939620D02*
X-56700Y924380D01*
X-31300Y924380D02*
X-31300Y939620D01*
D41*
X108000Y922500D03*
X130000Y962500D03*
X480500Y1147500D03*
X120000Y1002500D03*
X92500Y800000D03*
X177500Y857500D03*
D42*
X199800Y747620D02*
X199800Y732380D01*
X225200Y732380D02*
X225200Y747620D01*
D41*
X157500Y745000D03*
X130000Y885000D03*
X500000Y797500D03*
X432500Y612500D03*
X510500Y1147500D03*
D43*
X655000Y515000D03*
D44*
X655000Y555000D03*
X655000Y535000D03*
X655000Y575000D03*
X655000Y595000D03*
D43*
X675000Y632500D03*
D44*
X675000Y672500D03*
X675000Y652500D03*
X675000Y692500D03*
X675000Y712500D03*
D41*
X519500Y878500D03*
D42*
X394700Y1113880D02*
X394700Y1129120D01*
X369300Y1129120D02*
X369300Y1113880D01*
D41*
X275000Y677500D03*
D42*
X431700Y806380D02*
X431700Y821620D01*
X406300Y821620D02*
X406300Y806380D01*
D41*
X940000Y515000D03*
X267500Y860000D03*
X267500Y825000D03*
X233000Y1138000D03*
X174500Y1172000D03*
X175500Y1256500D03*
X226500Y1256500D03*
D37*
X-40700Y1141000D03*
X-15300Y1141000D03*
D45*
X4000Y1201700D03*
X4000Y1176300D03*
D37*
X65700Y1141000D03*
X40300Y1141000D03*
D45*
X4000Y1266700D03*
X4000Y1241300D03*
D37*
X99700Y1174000D03*
X74300Y1174000D03*
X290000Y1229700D03*
X290000Y1204300D03*
D46*
X42305Y1218000D03*
X101695Y1218000D03*
D47*
X137000Y1256695D03*
X137000Y1197305D03*
X125000Y1145695D03*
X125000Y1086305D03*
D45*
X330000Y1256300D03*
X330000Y1281700D03*
D47*
X363427Y1173305D03*
X363427Y1232695D03*
D45*
X563000Y1253300D03*
X563000Y1278700D03*
D37*
X516000Y1250300D03*
X516000Y1275700D03*
D45*
X433000Y1255300D03*
X433000Y1280700D03*
X481700Y1205000D03*
X456300Y1205000D03*
D37*
X551700Y1209000D03*
X526300Y1209000D03*
D40*
X43000Y958246D03*
X43000Y987754D03*
D48*
X-21754Y967000D03*
X7754Y967000D03*
X66754Y1050000D03*
X37246Y1050000D03*
X600754Y864000D03*
X571246Y864000D03*
X564754Y1105000D03*
X535246Y1105000D03*
X234754Y836000D03*
X205246Y836000D03*
X234754Y866178D03*
X205246Y866178D03*
D40*
X90000Y881754D03*
X90000Y852246D03*
D48*
X207246Y692000D03*
X236754Y692000D03*
X295246Y768000D03*
X324754Y768000D03*
X295246Y728000D03*
X324754Y728000D03*
X472246Y766000D03*
X501754Y766000D03*
X472246Y737000D03*
X501754Y737000D03*
D40*
X562000Y726754D03*
X562000Y697246D03*
D49*
X826000Y1265300D03*
X851000Y1265300D03*
D42*
X731900Y724620D02*
X731900Y709380D01*
X757300Y709380D02*
X757300Y724620D01*
X782700Y724620D02*
X782700Y709380D01*
X808100Y709380D02*
X808100Y724620D01*
M02*
